M48
;DRILL file {Pcbnew (2014-03-16 BZR 4752)-product} date tis 18 mar 2014 22:49:13
;FORMAT={2:4/ absolute / inch / keep zeros}
FMAT,2
INCH,TZ
T1C0.024
T2C0.030
T3C0.031
T4C0.032
T5C0.039
T6C0.040
T7C0.045
%
G90
G05
M72
T1
X072244Y048500
X072638Y046335
X072638Y050665
X077362Y046335
X077362Y050665
T2
X057500Y036000
X057500Y038000
T3
X067500Y045500
X068500Y045500
X069500Y045500
T4
X047047Y053815
X047047Y054815
X047047Y055815
X047047Y056815
X054000Y035500
X054000Y038500
X055000Y035500
X055000Y038500
X056200Y041100
X056200Y044100
X056949Y026772
X057965Y041142
X058600Y032100
X058600Y033100
X058965Y041142
X060100Y027800
X060500Y033500
X060500Y034500
X060500Y035500
X060500Y036500
X060500Y037500
X060500Y038500
X060500Y039500
X060500Y040500
X060500Y041500
X060500Y042500
X060508Y031890
X060508Y051378
X061295Y048425
X061311Y050000
X061402Y046850
X061949Y026772
X062311Y050000
X062402Y046850
X063100Y027800
X063386Y029224
X063386Y030224
X063402Y046850
X063500Y033500
X063500Y034500
X063500Y035500
X063500Y036500
X063500Y037500
X063500Y038500
X063500Y039500
X063500Y040500
X063500Y041500
X063500Y042500
X063508Y031890
X063508Y051378
X063898Y054260
X063898Y055260
X064295Y048425
X064764Y051469
X064764Y052469
X065020Y033465
X065500Y042500
X065500Y045500
X068500Y047500
X068500Y050500
X069398Y055260
X069398Y056260
X069685Y038476
X069685Y039476
X070020Y033465
X071457Y041429
X071457Y042429
X071728Y027362
X071850Y038476
X071850Y039476
X072728Y025787
X073728Y025787
X074213Y038476
X074213Y039476
X074213Y041429
X074213Y042429
X074728Y027362
X075898Y055260
X075898Y056260
X079028Y052756
X080028Y052756
T5
X058720Y024110
X059720Y024110
X060720Y024110
X061720Y024110
X062720Y024110
X063720Y024110
X064720Y024110
X065720Y024110
X066720Y024110
X067720Y024110
X068720Y024110
X069720Y024110
X070720Y024110
X071720Y024110
X072720Y024110
X073720Y024110
T6
X055709Y052150
X055709Y054150
X060524Y028921
X060524Y029921
X060524Y030921
X061524Y028921
X061524Y029921
X061524Y030921
X063173Y058465
X065173Y058465
X072398Y054260
X072398Y056260
T7
X066898Y054260
X066898Y055260
X066898Y056260
X078898Y054260
X078898Y055260
X078898Y056260
T0
M30
