<?xml version="1.0" standalone="no"?>
 <!DOCTYPE svg PUBLIC "-//W3C//DTD SVG 1.1//EN" 
 "http://www.w3.org/Graphics/SVG/1.1/DTD/svg11.dtd"> 
<svg xmlns="http://www.w3.org/2000/svg" version="1.1" 
    width="41.9989cm" height="29.7002cm" viewBox="0 0 165350 116930 ">
<title>SVG Picture created as Timerbox-F_SilkS.svg date 2014/03/16 23:44:20 </title>
  <desc>Picture generated by PCBNEW </desc>
<g style="fill:#000000; fill-opacity:1;stroke:#000000; stroke-opacity:1;
stroke-linecap:round; stroke-linejoin:round; "
 transform="translate(0 0) scale(1 1)">
</g>
<g style="fill:#000000; fill-opacity:0.0; 
stroke:#000000; stroke-width:39.3701; stroke-opacity:1; 
stroke-linecap:round; stroke-linejoin:round;">
<path d="M4000 4000
L161350 4000
L161350 112930
L4000 112930
L4000 4000
" />
<path d="M4700 4700
L160650 4700
L160650 112230
L4700 112230
L4700 4700
" />
<path d="M26470 4000
L26470 4700
" />
<path d="M15382 4552
L15097 4552
" />
<path d="M15240 4552
L15240 4052
L15192 4123
L15144 4171
L15097 4195
" />
<path d="M26470 112930
L26470 112230
" />
<path d="M15382 112782
L15097 112782
" />
<path d="M15240 112782
L15240 112282
L15192 112353
L15144 112401
L15097 112425
" />
<path d="M48940 4000
L48940 4700
" />
<path d="M37567 4100
L37590 4076
L37638 4052
L37757 4052
L37805 4076
L37829 4100
L37852 4147
L37852 4195
L37829 4266
L37543 4552
L37852 4552
" />
<path d="M48940 112930
L48940 112230
" />
<path d="M37567 112330
L37590 112306
L37638 112282
L37757 112282
L37805 112306
L37829 112330
L37852 112377
L37852 112425
L37829 112496
L37543 112782
L37852 112782
" />
<path d="M71410 4000
L71410 4700
" />
<path d="M60013 4052
L60322 4052
L60156 4242
L60227 4242
L60275 4266
L60299 4290
L60322 4338
L60322 4457
L60299 4504
L60275 4528
L60227 4552
L60084 4552
L60037 4528
L60013 4504
" />
<path d="M71410 112930
L71410 112230
" />
<path d="M60013 112282
L60322 112282
L60156 112472
L60227 112472
L60275 112496
L60299 112520
L60322 112568
L60322 112687
L60299 112734
L60275 112758
L60227 112782
L60084 112782
L60037 112758
L60013 112734
" />
<path d="M93880 4000
L93880 4700
" />
<path d="M82745 4219
L82745 4552
" />
<path d="M82626 4028
L82507 4385
L82816 4385
" />
<path d="M93880 112930
L93880 112230
" />
<path d="M82745 112449
L82745 112782
" />
<path d="M82626 112258
L82507 112615
L82816 112615
" />
<path d="M116350 4000
L116350 4700
" />
<path d="M105239 4052
L105000 4052
L104977 4290
L105000 4266
L105048 4242
L105167 4242
L105215 4266
L105239 4290
L105262 4338
L105262 4457
L105239 4504
L105215 4528
L105167 4552
L105048 4552
L105000 4528
L104977 4504
" />
<path d="M116350 112930
L116350 112230
" />
<path d="M105239 112282
L105000 112282
L104977 112520
L105000 112496
L105048 112472
L105167 112472
L105215 112496
L105239 112520
L105262 112568
L105262 112687
L105239 112734
L105215 112758
L105167 112782
L105048 112782
L105000 112758
L104977 112734
" />
<path d="M138820 4000
L138820 4700
" />
<path d="M127685 4052
L127590 4052
L127542 4076
L127518 4100
L127470 4171
L127447 4266
L127447 4457
L127470 4504
L127494 4528
L127542 4552
L127637 4552
L127685 4528
L127709 4504
L127732 4457
L127732 4338
L127709 4290
L127685 4266
L127637 4242
L127542 4242
L127494 4266
L127470 4290
L127447 4338
" />
<path d="M138820 112930
L138820 112230
" />
<path d="M127685 112282
L127590 112282
L127542 112306
L127518 112330
L127470 112401
L127447 112496
L127447 112687
L127470 112734
L127494 112758
L127542 112782
L127637 112782
L127685 112758
L127709 112734
L127732 112687
L127732 112568
L127709 112520
L127685 112496
L127637 112472
L127542 112472
L127494 112496
L127470 112520
L127447 112568
" />
<path d="M149893 4052
L150226 4052
L150012 4552
" />
<path d="M149893 112282
L150226 112282
L150012 112782
" />
<path d="M4000 25780
L4700 25780
" />
<path d="M4230 14949
L4469 14949
" />
<path d="M4183 15092
L4350 14592
L4516 15092
" />
<path d="M161350 25780
L160650 25780
" />
<path d="M160880 14949
L161119 14949
" />
<path d="M160833 15092
L161000 14592
L161166 15092
" />
<path d="M4000 47560
L4700 47560
" />
<path d="M4385 36610
L4457 36634
L4480 36658
L4504 36705
L4504 36777
L4480 36824
L4457 36848
L4409 36872
L4219 36872
L4219 36372
L4385 36372
L4433 36396
L4457 36420
L4480 36467
L4480 36515
L4457 36562
L4433 36586
L4385 36610
L4219 36610
" />
<path d="M161350 47560
L160650 47560
" />
<path d="M161035 36610
L161107 36634
L161130 36658
L161154 36705
L161154 36777
L161130 36824
L161107 36848
L161059 36872
L160869 36872
L160869 36372
L161035 36372
L161083 36396
L161107 36420
L161130 36467
L161130 36515
L161107 36562
L161083 36586
L161035 36610
L160869 36610
" />
<path d="M4000 69340
L4700 69340
" />
<path d="M4504 58604
L4480 58628
L4409 58652
L4361 58652
L4290 58628
L4242 58580
L4219 58533
L4195 58438
L4195 58366
L4219 58271
L4242 58223
L4290 58176
L4361 58152
L4409 58152
L4480 58176
L4504 58200
" />
<path d="M161350 69340
L160650 69340
" />
<path d="M161154 58604
L161130 58628
L161059 58652
L161011 58652
L160940 58628
L160892 58580
L160869 58533
L160845 58438
L160845 58366
L160869 58271
L160892 58223
L160940 58176
L161011 58152
L161059 58152
L161130 58176
L161154 58200
" />
<path d="M4000 91120
L4700 91120
" />
<path d="M4219 80432
L4219 79932
L4338 79932
L4409 79956
L4457 80003
L4480 80051
L4504 80146
L4504 80218
L4480 80313
L4457 80360
L4409 80408
L4338 80432
L4219 80432
" />
<path d="M161350 91120
L160650 91120
" />
<path d="M160869 80432
L160869 79932
L160988 79932
L161059 79956
L161107 80003
L161130 80051
L161154 80146
L161154 80218
L161130 80313
L161107 80360
L161059 80408
L160988 80432
L160869 80432
" />
<path d="M4242 101950
L4409 101950
" />
<path d="M4480 102212
L4242 102212
L4242 101712
L4480 101712
" />
<path d="M160892 101950
L161059 101950
" />
<path d="M161130 102212
L160892 102212
L160892 101712
L161130 101712
" />
<path d="M127800 110672
L127875 110072
L128017 110072
L128100 110101
L128150 110158
L128171 110215
L128185 110330
L128175 110415
L128132 110530
L128096 110587
L128032 110644
L127942 110672
L127800 110672
" />
<path d="M128657 110672
L128696 110358
L128675 110301
L128621 110272
L128507 110272
L128446 110301
" />
<path d="M128660 110644
L128600 110672
L128457 110672
L128403 110644
L128382 110587
L128389 110530
L128425 110472
L128485 110444
L128628 110444
L128689 110415
" />
<path d="M128907 110272
L129135 110272
" />
<path d="M129017 110072
L128953 110587
L128975 110644
L129028 110672
L129085 110672
" />
<path d="M129517 110644
L129457 110672
L129342 110672
L129289 110644
L129267 110587
L129296 110358
L129332 110301
L129392 110272
L129507 110272
L129560 110301
L129582 110358
L129575 110415
L129282 110472
" />
<path d="M129807 110615
L129832 110644
L129800 110672
L129775 110644
L129807 110615
L129800 110672
" />
<path d="M129846 110301
L129871 110330
L129839 110358
L129814 110330
L129846 110301
L129839 110358
" />
<path d="M119392 111872
L119392 111272
" />
<path d="M119735 111872
L119478 111530
" />
<path d="M119735 111272
L119392 111615
" />
<path d="M119992 111872
L119992 111472
" />
<path d="M119992 111272
L119964 111301
L119992 111330
L120021 111301
L119992 111272
L119992 111330
" />
<path d="M120621 111815
L120592 111844
L120507 111872
L120450 111872
L120364 111844
L120307 111787
L120278 111730
L120250 111615
L120250 111530
L120278 111415
L120307 111358
L120364 111301
L120450 111272
L120507 111272
L120592 111301
L120621 111330
" />
<path d="M121135 111872
L121135 111558
L121107 111501
L121050 111472
L120935 111472
L120878 111501
" />
<path d="M121135 111844
L121078 111872
L120935 111872
L120878 111844
L120850 111787
L120850 111730
L120878 111672
L120935 111644
L121078 111644
L121135 111615
" />
<path d="M121678 111872
L121678 111272
" />
<path d="M121678 111844
L121621 111872
L121507 111872
L121450 111844
L121421 111815
L121392 111758
L121392 111587
L121421 111530
L121450 111501
L121507 111472
L121621 111472
L121678 111501
" />
<path d="M122421 111558
L122621 111558
" />
<path d="M122707 111872
L122421 111872
L122421 111272
L122707 111272
" />
<path d="M122964 111815
L122992 111844
L122964 111872
L122935 111844
L122964 111815
L122964 111872
" />
<path d="M123249 111872
L123249 111272
L123392 111272
L123478 111301
L123535 111358
L123564 111415
L123592 111530
L123592 111615
L123564 111730
L123535 111787
L123478 111844
L123392 111872
L123249 111872
" />
<path d="M123849 111815
L123878 111844
L123849 111872
L123821 111844
L123849 111815
L123849 111872
" />
<path d="M124107 111701
L124392 111701
" />
<path d="M124049 111872
L124249 111272
L124449 111872
" />
<path d="M124649 111815
L124678 111844
L124649 111872
L124621 111844
L124649 111815
L124649 111872
" />
<path d="M152942 110672
L152778 110387
" />
<path d="M152600 110672
L152675 110072
L152903 110072
L152957 110101
L152982 110130
L153003 110187
L152992 110272
L152957 110330
L152925 110358
L152864 110387
L152635 110387
" />
<path d="M153432 110644
L153371 110672
L153257 110672
L153203 110644
L153182 110587
L153210 110358
L153246 110301
L153307 110272
L153421 110272
L153475 110301
L153496 110358
L153489 110415
L153196 110472
" />
<path d="M153707 110272
L153800 110672
L153992 110272
" />
<path d="M154178 110615
L154203 110644
L154171 110672
L154146 110644
L154178 110615
L154171 110672
" />
<path d="M154217 110301
L154242 110330
L154210 110358
L154185 110330
L154217 110301
L154210 110358
" />
<path d="M119364 110644
L119450 110672
L119592 110672
L119650 110644
L119678 110615
L119707 110558
L119707 110501
L119678 110444
L119650 110415
L119592 110387
L119478 110358
L119421 110330
L119392 110301
L119364 110244
L119364 110187
L119392 110130
L119421 110101
L119478 110072
L119621 110072
L119707 110101
" />
<path d="M119964 110672
L119964 110272
" />
<path d="M119964 110072
L119935 110101
L119964 110130
L119992 110101
L119964 110072
L119964 110130
" />
<path d="M120192 110272
L120507 110272
L120192 110672
L120507 110672
" />
<path d="M120964 110644
L120907 110672
L120792 110672
L120735 110644
L120707 110587
L120707 110358
L120735 110301
L120792 110272
L120907 110272
L120964 110301
L120992 110358
L120992 110415
L120707 110472
" />
<path d="M121250 110615
L121278 110644
L121250 110672
L121221 110644
L121250 110615
L121250 110672
" />
<path d="M121250 110301
L121278 110330
L121250 110358
L121221 110330
L121250 110301
L121250 110358
" />
<path d="M121964 110501
L122250 110501
" />
<path d="M121907 110672
L122107 110072
L122307 110672
" />
<path d="M122450 110072
L122821 110072
L122621 110301
L122707 110301
L122764 110330
L122792 110358
L122821 110415
L122821 110558
L122792 110615
L122764 110644
L122707 110672
L122535 110672
L122478 110644
L122450 110615
" />
<path d="M152592 111872
L152592 111272
" />
<path d="M153135 111872
L153135 111272
" />
<path d="M153135 111844
L153078 111872
L152964 111872
L152907 111844
L152878 111815
L152850 111758
L152850 111587
L152878 111530
L152907 111501
L152964 111472
L153078 111472
L153135 111501
" />
<path d="M153421 111815
L153450 111844
L153421 111872
L153392 111844
L153421 111815
L153421 111872
" />
<path d="M153421 111501
L153450 111530
L153421 111558
L153392 111530
L153421 111501
L153421 111558
" />
<path d="M154478 111872
L154135 111872
" />
<path d="M154307 111872
L154307 111272
L154249 111358
L154192 111415
L154135 111444
" />
<path d="M155164 111244
L154650 112015
" />
<path d="M155678 111872
L155335 111872
" />
<path d="M155507 111872
L155507 111272
L155449 111358
L155392 111415
L155335 111444
" />
<path d="M119389 108872
L119732 108872
" />
<path d="M119485 109472
L119560 108872
" />
<path d="M119857 109472
L119907 109072
" />
<path d="M119932 108872
L119900 108901
L119925 108930
L119957 108901
L119932 108872
L119925 108930
" />
<path d="M120107 109072
L120335 109072
" />
<path d="M120217 108872
L120153 109387
L120175 109444
L120228 109472
L120285 109472
" />
<path d="M120571 109472
L120517 109444
L120496 109387
L120560 108872
" />
<path d="M121032 109444
L120971 109472
L120857 109472
L120803 109444
L120782 109387
L120810 109158
L120846 109101
L120907 109072
L121021 109072
L121075 109101
L121096 109158
L121089 109215
L120796 109272
" />
<path d="M121321 109415
L121346 109444
L121314 109472
L121289 109444
L121321 109415
L121314 109472
" />
<path d="M121360 109101
L121385 109130
L121353 109158
L121328 109130
L121360 109101
L121353 109158
" />
<path d="M119592 106758
L119392 106758
" />
<path d="M119392 107072
L119392 106472
L119678 106472
" />
<path d="M119907 107072
L119907 106672
" />
<path d="M119907 106472
L119878 106501
L119907 106530
L119935 106501
L119907 106472
L119907 106530
" />
<path d="M120278 107072
L120221 107044
L120192 106987
L120192 106472
" />
<path d="M120735 107044
L120678 107072
L120564 107072
L120507 107044
L120478 106987
L120478 106758
L120507 106701
L120564 106672
L120678 106672
L120735 106701
L120764 106758
L120764 106815
L120478 106872
" />
<path d="M121021 107015
L121050 107044
L121021 107072
L120992 107044
L121021 107015
L121021 107072
" />
<path d="M121021 106701
L121050 106730
L121021 106758
L120992 106730
L121021 106701
L121021 106758
" />
<path d="M121678 106472
L122021 106472
" />
<path d="M121850 107072
L121850 106472
" />
<path d="M122221 107072
L122221 106672
" />
<path d="M122221 106472
L122192 106501
L122221 106530
L122250 106501
L122221 106472
L122221 106530
" />
<path d="M122507 107072
L122507 106672
" />
<path d="M122507 106730
L122535 106701
L122592 106672
L122678 106672
L122735 106701
L122764 106758
L122764 107072
" />
<path d="M122764 106758
L122792 106701
L122850 106672
L122935 106672
L122992 106701
L123021 106758
L123021 107072
" />
<path d="M123535 107044
L123478 107072
L123364 107072
L123307 107044
L123278 106987
L123278 106758
L123307 106701
L123364 106672
L123478 106672
L123535 106701
L123564 106758
L123564 106815
L123278 106872
" />
<path d="M123821 107072
L123821 106672
" />
<path d="M123821 106787
L123850 106730
L123878 106701
L123935 106672
L123992 106672
" />
<path d="M124192 107072
L124192 106472
" />
<path d="M124192 106701
L124250 106672
L124364 106672
L124421 106701
L124450 106730
L124478 106787
L124478 106958
L124450 107015
L124421 107044
L124364 107072
L124250 107072
L124192 107044
" />
<path d="M124821 107072
L124764 107044
L124735 107015
L124707 106958
L124707 106787
L124735 106730
L124764 106701
L124821 106672
L124907 106672
L124964 106701
L124992 106730
L125021 106787
L125021 106958
L124992 107015
L124964 107044
L124907 107072
L124821 107072
" />
<path d="M125221 107072
L125535 106672
" />
<path d="M125221 106672
L125535 107072
" />
<path d="M125764 107015
L125792 107044
L125764 107072
L125735 107044
L125764 107015
L125764 107072
" />
<path d="M126050 107072
L126050 106472
" />
<path d="M126107 106844
L126278 107072
" />
<path d="M126278 106672
L126050 106901
" />
<path d="M126535 107072
L126535 106672
" />
<path d="M126535 106472
L126507 106501
L126535 106530
L126564 106501
L126535 106472
L126535 106530
" />
<path d="M127078 107044
L127021 107072
L126907 107072
L126850 107044
L126821 107015
L126792 106958
L126792 106787
L126821 106730
L126850 106701
L126907 106672
L127021 106672
L127078 106701
" />
<path d="M127592 107072
L127592 106758
L127564 106701
L127507 106672
L127392 106672
L127335 106701
" />
<path d="M127592 107044
L127535 107072
L127392 107072
L127335 107044
L127307 106987
L127307 106930
L127335 106872
L127392 106844
L127535 106844
L127592 106815
" />
<path d="M128135 107072
L128135 106472
" />
<path d="M128135 107044
L128078 107072
L127964 107072
L127907 107044
L127878 107015
L127850 106958
L127850 106787
L127878 106730
L127907 106701
L127964 106672
L128078 106672
L128135 106701
" />
<path d="M128278 107130
L128735 107130
" />
<path d="M128878 106672
L128878 107272
" />
<path d="M128878 106701
L128935 106672
L129050 106672
L129107 106701
L129135 106730
L129164 106787
L129164 106958
L129135 107015
L129107 107044
L129050 107072
L128935 107072
L128878 107044
" />
<path d="M129678 107044
L129621 107072
L129507 107072
L129450 107044
L129421 107015
L129392 106958
L129392 106787
L129421 106730
L129450 106701
L129507 106672
L129621 106672
L129678 106701
" />
<path d="M129935 107072
L129935 106472
" />
<path d="M129935 106701
L129992 106672
L130107 106672
L130164 106701
L130192 106730
L130221 106787
L130221 106958
L130192 107015
L130164 107044
L130107 107072
L129992 107072
L129935 107044
" />
<path d="M119364 108244
L119450 108272
L119592 108272
L119650 108244
L119678 108215
L119707 108158
L119707 108101
L119678 108044
L119650 108015
L119592 107987
L119478 107958
L119421 107930
L119392 107901
L119364 107844
L119364 107787
L119392 107730
L119421 107701
L119478 107672
L119621 107672
L119707 107701
" />
<path d="M119964 108272
L119964 107672
" />
<path d="M120221 108272
L120221 107958
L120192 107901
L120135 107872
L120050 107872
L119992 107901
L119964 107930
" />
<path d="M120735 108244
L120678 108272
L120564 108272
L120507 108244
L120478 108187
L120478 107958
L120507 107901
L120564 107872
L120678 107872
L120735 107901
L120764 107958
L120764 108015
L120478 108072
" />
<path d="M121250 108244
L121192 108272
L121078 108272
L121021 108244
L120992 108187
L120992 107958
L121021 107901
L121078 107872
L121192 107872
L121250 107901
L121278 107958
L121278 108015
L120992 108072
" />
<path d="M121450 107872
L121678 107872
" />
<path d="M121535 107672
L121535 108187
L121564 108244
L121621 108272
L121678 108272
" />
<path d="M121878 108215
L121907 108244
L121878 108272
L121850 108244
L121878 108215
L121878 108272
" />
<path d="M121878 107901
L121907 107930
L121878 107958
L121850 107930
L121878 107901
L121878 107958
" />
<path d="M118650 106230
L118650 112230
" />
<path d="M118650 106230
L160650 106230
" />
<path d="M118650 106230
L160650 106230
" />
<path d="M118650 108630
L160650 108630
" />
<path d="M151850 109830
L151850 112230
" />
<path d="M118650 111030
L160650 111030
" />
<path d="M118650 109830
L160650 109830
" />
<path d="M125250 109830
L125250 111030
" />
</g>
<g style="fill:#FFFF00; fill-opacity:0.0; 
stroke:#FFFF00; stroke-width:59.0551; stroke-opacity:1; 
stroke-linecap:round; stroke-linejoin:round;">
<path d="M44685 22834
L44685 62204
" />
<path d="M84055 22834
L84055 62204
" />
<path d="M84055 22834
L44685 22834
" />
<path d="M44685 62204
L45472 62204
" />
<path d="M84055 62204
L45472 62204
" />
</g>
<g style="fill:#00A0A0; fill-opacity:0.0; 
stroke:#00A0A0; stroke-width:100; stroke-opacity:1; 
stroke-linecap:round; stroke-linejoin:round;">
<path d="M57363 53232
L57387 53256
L57411 53328
L57411 53375
L57387 53447
L57339 53494
L57291 53518
L57196 53542
L57125 53542
L57030 53518
L56982 53494
L56934 53447
L56911 53375
L56911 53328
L56934 53256
L56958 53232
" />
<path d="M56911 53066
L56911 52732
L57411 52947
" />
<path d="M54911 54399
L54911 54685
" />
<path d="M54911 54542
L54411 54542
L54482 54590
L54530 54637
L54553 54685
" />
<path d="M54411 54090
L54411 54042
L54434 53994
L54458 53971
L54506 53947
L54601 53923
L54720 53923
L54815 53947
L54863 53971
L54887 53994
L54911 54042
L54911 54090
L54887 54137
L54863 54161
L54815 54185
L54720 54209
L54601 54209
L54506 54185
L54458 54161
L54434 54137
L54411 54090
" />
<path d="M54411 53613
L54411 53566
L54434 53518
L54458 53494
L54506 53471
L54601 53447
L54720 53447
L54815 53471
L54863 53494
L54887 53518
L54911 53566
L54911 53613
L54887 53661
L54863 53685
L54815 53709
L54720 53732
L54601 53732
L54506 53709
L54458 53685
L54434 53661
L54411 53613
" />
<path d="M54411 53137
L54411 53090
L54434 53042
L54458 53018
L54506 52994
L54601 52971
L54720 52971
L54815 52994
L54863 53018
L54887 53042
L54911 53090
L54911 53137
L54887 53185
L54863 53209
L54815 53232
L54720 53256
L54601 53256
L54506 53232
L54458 53209
L54434 53185
L54411 53137
" />
<path d="M54411 52661
L54411 52613
L54434 52566
L54458 52542
L54506 52518
L54601 52494
L54720 52494
L54815 52518
L54863 52542
L54887 52566
L54911 52613
L54911 52661
L54887 52709
L54863 52732
L54815 52756
L54720 52780
L54601 52780
L54506 52756
L54458 52732
L54434 52709
L54411 52661
" />
<path d="M54577 52066
L54911 52066
" />
<path d="M54577 52280
L54839 52280
L54887 52256
L54911 52209
L54911 52137
L54887 52090
L54863 52066
" />
<path d="M54649 51661
L54649 51828
" />
<path d="M54911 51828
L54411 51828
L54411 51590
" />
</g>
<g style="fill:#00A0A0; fill-opacity:0.0; 
stroke:#00A0A0; stroke-width:80; stroke-opacity:1; 
stroke-linecap:round; stroke-linejoin:round;">
<path d="M68461 44800
L68423 44780
L68385 44742
L68328 44685
L68290 44666
L68252 44666
" />
<path d="M68271 44761
L68233 44742
L68195 44704
L68176 44628
L68176 44495
L68195 44419
L68233 44380
L68271 44361
L68347 44361
L68385 44380
L68423 44419
L68442 44495
L68442 44628
L68423 44704
L68385 44742
L68347 44761
L68271 44761
" />
<path d="M68823 44761
L68595 44761
" />
<path d="M68709 44761
L68709 44361
L68671 44419
L68633 44457
L68595 44476
" />
</g>
<g style="fill:#00A0A0; fill-opacity:0.0; 
stroke:#00A0A0; stroke-width:59.0551; stroke-opacity:1; 
stroke-linecap:round; stroke-linejoin:round;">
<path d="M74596 49159
L74465 48971
" />
<path d="M74371 49159
L74371 48765
L74521 48765
L74559 48784
L74578 48803
L74596 48840
L74596 48896
L74578 48934
L74559 48953
L74521 48971
L74371 48971
" />
<path d="M74765 48953
L74896 48953
" />
<path d="M74953 49159
L74765 49159
L74765 48765
L74953 48765
" />
<path d="M75309 49159
L75121 49159
L75121 48765
" />
<path d="M75646 49159
L75421 49159
" />
<path d="M75534 49159
L75534 48765
L75496 48821
L75459 48859
L75421 48878
" />
<path d="M74118 48640
L74175 48659
L74268 48659
L74306 48640
L74325 48621
L74343 48584
L74343 48546
L74325 48509
L74306 48490
L74268 48471
L74193 48453
L74156 48434
L74137 48415
L74118 48378
L74118 48340
L74137 48303
L74156 48284
L74193 48265
L74287 48265
L74343 48284
" />
<path d="M74737 48659
L74606 48471
" />
<path d="M74512 48659
L74512 48265
L74662 48265
L74700 48284
L74718 48303
L74737 48340
L74737 48396
L74718 48434
L74700 48453
L74662 48471
L74512 48471
" />
<path d="M74906 48659
L74906 48265
L75000 48265
L75056 48284
L75093 48321
L75112 48359
L75131 48434
L75131 48490
L75112 48565
L75093 48603
L75056 48640
L75000 48659
L74906 48659
" />
<path d="M75468 48396
L75468 48659
" />
<path d="M75374 48246
L75281 48528
L75524 48528
" />
<path d="M75731 48434
L75693 48415
L75674 48396
L75656 48359
L75656 48340
L75674 48303
L75693 48284
L75731 48265
L75806 48265
L75843 48284
L75862 48303
L75881 48340
L75881 48359
L75862 48396
L75843 48415
L75806 48434
L75731 48434
L75693 48453
L75674 48471
L75656 48509
L75656 48584
L75674 48621
L75693 48640
L75731 48659
L75806 48659
L75843 48640
L75862 48621
L75881 48584
L75881 48509
L75862 48471
L75843 48453
L75806 48434
" />
</g>
<g style="fill:#00A0A0; fill-opacity:0.0; 
stroke:#00A0A0; stroke-width:120; stroke-opacity:1; 
stroke-linecap:round; stroke-linejoin:round;">
</g>
<g style="fill:#00A0A0; fill-opacity:0.0; 
stroke:#00A0A0; stroke-width:107; stroke-opacity:1; 
stroke-linecap:round; stroke-linejoin:round;">
<path d="M46323 55630
L45640 55630
L45640 55467
L45673 55427
L45705 55406
L45770 55386
L45868 55386
L45933 55406
L45965 55427
L45998 55467
L45998 55630
" />
<path d="M46323 54978
L46323 55223
" />
<path d="M46323 55100
L45640 55100
L45738 55141
L45803 55182
L45835 55223
" />
</g>
<g style="fill:#00A0A0; fill-opacity:0.0; 
stroke:#00A0A0; stroke-width:120; stroke-opacity:1; 
stroke-linecap:round; stroke-linejoin:round;">
</g>
<g style="fill:#00A0A0; fill-opacity:0.0; 
stroke:#00A0A0; stroke-width:106; stroke-opacity:1; 
stroke-linecap:round; stroke-linejoin:round;">
<path d="M62088 46135
L62088 45430
" />
<path d="M62330 46135
L62149 45732
" />
<path d="M62330 45430
L62088 45833
" />
<path d="M62734 46135
L62492 46135
" />
<path d="M62613 46135
L62613 45430
L62573 45531
L62532 45598
L62492 45632
" />
</g>
<g style="fill:#00A0A0; fill-opacity:0.0; 
stroke:#00A0A0; stroke-width:120; stroke-opacity:1; 
stroke-linecap:round; stroke-linejoin:round;">
</g>
<g style="fill:#00A0A0; fill-opacity:0.0; 
stroke:#00A0A0; stroke-width:107; stroke-opacity:1; 
stroke-linecap:round; stroke-linejoin:round;">
<path d="M75488 39292
L74807 39292
L74807 39129
L74839 39088
L74872 39068
L74936 39047
L75034 39047
L75099 39068
L75131 39088
L75163 39129
L75163 39292
" />
<path d="M74807 38905
L74807 38640
L75066 38782
L75066 38721
L75099 38680
L75131 38660
L75196 38640
L75358 38640
L75423 38660
L75455 38680
L75488 38721
L75488 38843
L75455 38884
L75423 38905
" />
</g>
<g style="fill:#00A0A0; fill-opacity:0.0; 
stroke:#00A0A0; stroke-width:120; stroke-opacity:1; 
stroke-linecap:round; stroke-linejoin:round;">
</g>
<g style="fill:#00A0A0; fill-opacity:0.0; 
stroke:#00A0A0; stroke-width:107; stroke-opacity:1; 
stroke-linecap:round; stroke-linejoin:round;">
<path d="M73126 39292
L72445 39292
L72445 39129
L72477 39088
L72509 39068
L72574 39047
L72672 39047
L72736 39068
L72769 39088
L72801 39129
L72801 39292
" />
<path d="M72445 38660
L72445 38864
L72769 38884
L72736 38864
L72704 38823
L72704 38721
L72736 38680
L72769 38660
L72834 38640
L72996 38640
L73061 38660
L73093 38680
L73126 38721
L73126 38823
L73093 38864
L73061 38884
" />
</g>
<g style="fill:#00A0A0; fill-opacity:0.0; 
stroke:#00A0A0; stroke-width:120; stroke-opacity:1; 
stroke-linecap:round; stroke-linejoin:round;">
</g>
<g style="fill:#00A0A0; fill-opacity:0.0; 
stroke:#00A0A0; stroke-width:107; stroke-opacity:1; 
stroke-linecap:round; stroke-linejoin:round;">
<path d="M73488 42245
L72807 42245
L72807 42081
L72839 42041
L72872 42020
L72936 42000
L73034 42000
L73099 42020
L73131 42041
L73163 42081
L73163 42245
" />
<path d="M72872 41837
L72839 41817
L72807 41776
L72807 41674
L72839 41633
L72872 41613
L72936 41592
L73001 41592
L73099 41613
L73488 41857
L73488 41592
" />
</g>
<g style="fill:#00A0A0; fill-opacity:0.0; 
stroke:#00A0A0; stroke-width:120; stroke-opacity:1; 
stroke-linecap:round; stroke-linejoin:round;">
</g>
<g style="fill:#00A0A0; fill-opacity:0.0; 
stroke:#00A0A0; stroke-width:80; stroke-opacity:1; 
stroke-linecap:round; stroke-linejoin:round;">
<path d="M62259 48647
L61973 48647
" />
<path d="M62116 48647
L62116 48097
L62069 48176
L62021 48228
L61973 48254
" />
<path d="M62569 48097
L62616 48097
L62664 48124
L62688 48150
L62711 48202
L62735 48307
L62735 48438
L62711 48543
L62688 48595
L62664 48621
L62616 48647
L62569 48647
L62521 48621
L62497 48595
L62473 48543
L62450 48438
L62450 48307
L62473 48202
L62497 48150
L62521 48124
L62569 48097
" />
<path d="M63045 48097
L63092 48097
L63140 48124
L63164 48150
L63188 48202
L63211 48307
L63211 48438
L63188 48543
L63164 48595
L63140 48621
L63092 48647
L63045 48647
L62997 48621
L62973 48595
L62950 48543
L62926 48438
L62926 48307
L62950 48202
L62973 48150
L62997 48124
L63045 48097
" />
<path d="M63426 48647
L63426 48097
" />
<path d="M63473 48438
L63616 48647
" />
<path d="M63616 48281
L63426 48490
" />
<path d="M61513 32112
L61227 32112
" />
<path d="M61370 32112
L61370 31562
L61322 31640
L61275 31693
L61227 31719
" />
<path d="M61822 31562
L61870 31562
L61918 31588
L61941 31614
L61965 31667
L61989 31771
L61989 31902
L61965 32007
L61941 32060
L61918 32086
L61870 32112
L61822 32112
L61775 32086
L61751 32060
L61727 32007
L61703 31902
L61703 31771
L61727 31667
L61751 31614
L61775 31588
L61822 31562
" />
<path d="M62203 32112
L62203 31562
" />
<path d="M62251 31902
L62394 32112
" />
<path d="M62394 31745
L62203 31955
" />
<path d="M65672 44059
L65672 44345
" />
<path d="M65672 44202
L65122 44202
L65201 44249
L65253 44297
L65279 44345
" />
<path d="M65672 43845
L65122 43845
" />
<path d="M65463 43797
L65672 43654
" />
<path d="M65305 43654
L65515 43845
" />
<path d="M72871 27034
L72633 27034
L72609 27296
L72633 27270
L72680 27244
L72799 27244
L72847 27270
L72871 27296
L72895 27349
L72895 27480
L72871 27532
L72847 27558
L72799 27584
L72680 27584
L72633 27558
L72609 27532
" />
<path d="M73371 27584
L73085 27584
" />
<path d="M73228 27584
L73228 27034
L73180 27113
L73133 27165
L73085 27191
" />
<path d="M73680 27034
L73728 27034
L73775 27061
L73799 27087
L73823 27139
L73847 27244
L73847 27375
L73823 27480
L73799 27532
L73775 27558
L73728 27584
L73680 27584
L73633 27558
L73609 27532
L73585 27480
L73561 27375
L73561 27244
L73585 27139
L73609 27087
L73633 27061
L73680 27034
" />
<path d="M61472 51600
L61186 51600
" />
<path d="M61329 51600
L61329 51050
L61281 51129
L61234 51181
L61186 51207
" />
<path d="M61781 51050
L61829 51050
L61876 51076
L61900 51102
L61924 51155
L61948 51260
L61948 51391
L61924 51495
L61900 51548
L61876 51574
L61829 51600
L61781 51600
L61734 51574
L61710 51548
L61686 51495
L61662 51391
L61662 51260
L61686 51155
L61710 51102
L61734 51076
L61781 51050
" />
<path d="M62257 51050
L62305 51050
L62353 51076
L62376 51102
L62400 51155
L62424 51260
L62424 51391
L62400 51495
L62376 51548
L62353 51574
L62305 51600
L62257 51600
L62210 51574
L62186 51548
L62162 51495
L62138 51391
L62138 51260
L62162 51155
L62186 51102
L62210 51076
L62257 51050
" />
<path d="M62638 51600
L62638 51050
" />
<path d="M62686 51391
L62829 51600
" />
<path d="M62829 51233
L62638 51443
" />
<path d="M56915 41988
L56915 42274
" />
<path d="M56915 42131
L56365 42131
L56444 42179
L56496 42226
L56522 42274
" />
<path d="M56915 41774
L56365 41774
" />
<path d="M56706 41726
L56915 41583
" />
<path d="M56548 41583
L56758 41774
" />
<path d="M62647 30406
L62666 30426
L62685 30483
L62685 30521
L62666 30578
L62628 30616
L62590 30635
L62514 30654
L62456 30654
L62380 30635
L62342 30616
L62304 30578
L62285 30521
L62285 30483
L62304 30426
L62323 30406
" />
<path d="M62285 30159
L62285 30083
L62304 30045
L62342 30006
L62418 29987
L62552 29987
L62628 30006
L62666 30045
L62685 30083
L62685 30159
L62666 30197
L62628 30235
L62552 30254
L62418 30254
L62342 30235
L62304 30197
L62285 30159
" />
<path d="M62685 29816
L62285 29816
L62685 29587
L62285 29587
" />
<path d="M62685 29187
L62685 29416
" />
<path d="M62685 29302
L62285 29302
L62342 29340
L62380 29378
L62399 29416
" />
</g>
<g style="fill:#00A0A0; fill-opacity:0.0; 
stroke:#00A0A0; stroke-width:120; stroke-opacity:1; 
stroke-linecap:round; stroke-linejoin:round;">
<path d="M56020 24353
L55734 24353
L55734 23753
" />
<path d="M56563 24295
L56534 24324
L56449 24353
L56391 24353
L56306 24324
L56249 24267
L56220 24210
L56191 24095
L56191 24010
L56220 23895
L56249 23838
L56306 23781
L56391 23753
L56449 23753
L56534 23781
L56563 23810
" />
<path d="M56820 24353
L56820 23753
L56963 23753
L57049 23781
L57106 23838
L57134 23895
L57163 24010
L57163 24095
L57134 24210
L57106 24267
L57049 24324
L56963 24353
L56820 24353
" />
<path d="M57734 24353
L57391 24353
" />
<path d="M57563 24353
L57563 23753
L57506 23838
L57449 23895
L57391 23924
" />
</g>
<g style="fill:#00A0A0; fill-opacity:0.0; 
stroke:#00A0A0; stroke-width:80; stroke-opacity:1; 
stroke-linecap:round; stroke-linejoin:round;">
<path d="M77040 55564
L77526 55564
L77583 55545
L77611 55526
L77640 55488
L77640 55412
L77611 55374
L77583 55355
L77526 55336
L77040 55336
" />
<path d="M77640 54936
L77640 55164
" />
<path d="M77640 55050
L77040 55050
L77126 55088
L77183 55126
L77211 55164
" />
<path d="M79790 56376
L79790 56109
L80390 56281
" />
<path d="M80047 55900
L80019 55938
L79990 55957
L79933 55976
L79904 55976
L79847 55957
L79819 55938
L79790 55900
L79790 55824
L79819 55786
L79847 55766
L79904 55747
L79933 55747
L79990 55766
L80019 55786
L80047 55824
L80047 55900
L80076 55938
L80104 55957
L80161 55976
L80276 55976
L80333 55957
L80361 55938
L80390 55900
L80390 55824
L80361 55786
L80333 55766
L80276 55747
L80161 55747
L80104 55766
L80076 55786
L80047 55824
" />
<path d="M80390 55386
L80390 55576
L79790 55576
" />
<path d="M79790 55176
L79790 55138
L79819 55100
L79847 55081
L79904 55062
L80019 55043
L80161 55043
L80276 55062
L80333 55081
L80361 55100
L80390 55138
L80390 55176
L80361 55214
L80333 55233
L80276 55252
L80161 55271
L80019 55271
L79904 55252
L79847 55233
L79819 55214
L79790 55176
" />
<path d="M79790 54681
L79790 54871
L80076 54890
L80047 54871
L80019 54833
L80019 54738
L80047 54700
L80076 54681
L80133 54662
L80276 54662
L80333 54681
L80361 54700
L80390 54738
L80390 54833
L80361 54871
L80333 54890
" />
<path d="M68040 55564
L68526 55564
L68583 55545
L68611 55526
L68640 55488
L68640 55412
L68611 55374
L68583 55355
L68526 55336
L68040 55336
" />
<path d="M68097 55164
L68069 55145
L68040 55107
L68040 55012
L68069 54974
L68097 54955
L68154 54936
L68211 54936
L68297 54955
L68640 55183
L68640 54936
" />
<path d="M65890 55876
L65890 56066
L65290 56066
" />
<path d="M65890 55743
L65290 55743
L65719 55609
L65290 55476
L65890 55476
" />
<path d="M65290 55324
L65290 55057
L65890 55228
" />
<path d="M65547 54847
L65519 54886
L65490 54905
L65433 54924
L65404 54924
L65347 54905
L65319 54886
L65290 54847
L65290 54771
L65319 54733
L65347 54714
L65404 54695
L65433 54695
L65490 54714
L65519 54733
L65547 54771
L65547 54847
L65576 54886
L65604 54905
L65661 54924
L65776 54924
L65833 54905
L65861 54886
L65890 54847
L65890 54771
L65861 54733
L65833 54714
L65776 54695
L65661 54695
L65604 54714
L65576 54733
L65547 54771
" />
<path d="M65890 54314
L65890 54543
" />
<path d="M65890 54428
L65290 54428
L65376 54466
L65433 54505
L65461 54543
" />
<path d="M65347 54162
L65319 54143
L65290 54105
L65290 54009
L65319 53971
L65347 53952
L65404 53933
L65461 53933
L65547 53952
L65890 54181
L65890 53933
" />
</g>
<g style="fill:#00A0A0; fill-opacity:0.0; 
stroke:#00A0A0; stroke-width:35; stroke-opacity:1; 
stroke-linecap:round; stroke-linejoin:round;">
<path d="M57543 42363
L57543 42063
L57614 42063
L57657 42077
L57685 42106
L57700 42134
L57714 42191
L57714 42234
L57700 42291
L57685 42320
L57657 42348
L57614 42363
L57543 42363
" />
<path d="M57828 42091
L57843 42077
L57871 42063
L57943 42063
L57971 42077
L57985 42091
L58000 42120
L58000 42148
L57985 42191
L57814 42363
L58000 42363
" />
<path d="M58271 40263
L58128 40263
L58128 39963
" />
<path d="M58371 40106
L58471 40106
" />
<path d="M58514 40263
L58371 40263
L58371 39963
L58514 39963
" />
<path d="M58643 40263
L58643 39963
L58714 39963
L58757 39977
L58785 40006
L58800 40034
L58814 40091
L58814 40134
L58800 40191
L58785 40220
L58757 40248
L58714 40263
L58643 40263
" />
</g>
<g style="fill:#00A0A0; fill-opacity:0.0; 
stroke:#00A0A0; stroke-width:120; stroke-opacity:1; 
stroke-linecap:round; stroke-linejoin:round;">
<path d="M55642 37485
L56242 37085
" />
<path d="M55642 37085
L56242 37485
" />
<path d="M56242 36542
L56242 36885
" />
<path d="M56242 36714
L55642 36714
L55728 36771
L55785 36828
L55814 36885
" />
<path d="M59242 38014
L59242 38357
" />
<path d="M59242 38185
L58642 38185
L58728 38242
L58785 38299
L58814 38357
" />
<path d="M58642 37499
L58642 37614
L58671 37671
L58700 37699
L58785 37757
L58900 37785
L59128 37785
L59185 37757
L59214 37728
L59242 37671
L59242 37557
L59214 37499
L59185 37471
L59128 37442
L58985 37442
L58928 37471
L58900 37499
L58871 37557
L58871 37671
L58900 37728
L58928 37757
L58985 37785
" />
<path d="M59242 37185
L58642 37185
L59071 36985
L58642 36785
L59242 36785
" />
<path d="M59242 36499
L58642 36499
" />
<path d="M58928 36499
L58928 36157
" />
<path d="M59242 36157
L58642 36157
" />
<path d="M58842 35928
L58842 35614
L59242 35928
L59242 35614
" />
</g>
<g style="fill:#00A0A0; fill-opacity:0.0; 
stroke:#00A0A0; stroke-width:112.5; stroke-opacity:1; 
stroke-linecap:round; stroke-linejoin:round;">
<path d="M62783 34939
L62083 34939
" />
<path d="M62716 34467
L62750 34489
L62783 34553
L62783 34596
L62750 34660
L62683 34703
L62616 34724
L62483 34746
L62383 34746
L62250 34724
L62183 34703
L62116 34660
L62083 34596
L62083 34553
L62116 34489
L62150 34467
" />
<path d="M62783 34039
L62783 34296
" />
<path d="M62783 34167
L62083 34167
L62183 34210
L62250 34253
L62283 34296
" />
</g>
<g style="fill:#00A0A0; fill-opacity:0.0; 
stroke:#00A0A0; stroke-width:120; stroke-opacity:1; 
stroke-linecap:round; stroke-linejoin:round;">
</g>
<g style="fill:#00A0A0; fill-opacity:0.0; 
stroke:#00A0A0; stroke-width:112.5; stroke-opacity:1; 
stroke-linecap:round; stroke-linejoin:round;">
<path d="M61583 40346
L61583 40132
" />
<path d="M61783 40389
L61083 40239
L61783 40089
" />
<path d="M61083 40003
L61083 39746
" />
<path d="M61783 39874
L61083 39874
" />
<path d="M61083 39660
L61083 39403
" />
<path d="M61783 39532
L61083 39532
" />
<path d="M61783 39253
L61083 39253
" />
<path d="M61783 39039
L61083 39039
L61783 38782
L61083 38782
" />
<path d="M61450 38482
L61783 38482
" />
<path d="M61083 38632
L61450 38482
L61083 38332
" />
<path d="M61316 37989
L61783 37989
" />
<path d="M61050 38096
L61550 38203
L61550 37924
" />
<path d="M61083 37796
L61083 37517
L61350 37667
L61350 37603
L61383 37560
L61416 37539
L61483 37517
L61650 37517
L61716 37539
L61750 37560
L61783 37603
L61783 37732
L61750 37775
L61716 37796
" />
<path d="M61783 37089
L61783 37346
" />
<path d="M61783 37217
L61083 37217
L61183 37260
L61250 37303
L61283 37346
" />
<path d="M61083 36939
L61083 36660
L61350 36810
L61350 36746
L61383 36703
L61416 36682
L61483 36660
L61650 36660
L61716 36682
L61750 36703
L61783 36746
L61783 36875
L61750 36917
L61716 36939
" />
<path d="M61516 36467
L61516 36125
" />
<path d="M61783 35910
L61083 35910
L61083 35739
L61116 35696
L61150 35675
L61216 35653
L61316 35653
L61383 35675
L61416 35696
L61450 35739
L61450 35910
" />
</g>
<g style="fill:#00A0A0; fill-opacity:0.0; 
stroke:#00A0A0; stroke-width:120; stroke-opacity:1; 
stroke-linecap:round; stroke-linejoin:round;">
</g>
<g style="fill:#00A0A0; fill-opacity:0.0; 
stroke:#00A0A0; stroke-width:80; stroke-opacity:1; 
stroke-linecap:round; stroke-linejoin:round;">
<path d="M68661 49295
L68261 49295
L68261 49199
L68280 49142
L68319 49104
L68357 49085
L68433 49066
L68490 49066
L68566 49085
L68604 49104
L68642 49142
L68661 49199
L68661 49295
" />
<path d="M68661 48685
L68661 48914
" />
<path d="M68661 48799
L68261 48799
L68319 48838
L68357 48876
L68376 48914
" />
</g>
<g style="fill:#00A0A0; fill-opacity:0.0; 
stroke:#00A0A0; stroke-width:100; stroke-opacity:1; 
stroke-linecap:round; stroke-linejoin:round;">
<path d="M63851 57619
L63827 57643
L63756 57666
L63708 57666
L63637 57643
L63589 57595
L63566 57547
L63542 57452
L63542 57381
L63566 57285
L63589 57238
L63637 57190
L63708 57166
L63756 57166
L63827 57190
L63851 57214
" />
<path d="M64327 57666
L64042 57666
" />
<path d="M64185 57666
L64185 57166
L64137 57238
L64089 57285
L64042 57309
" />
<path d="M64756 57166
L64661 57166
L64613 57190
L64589 57214
L64542 57285
L64518 57381
L64518 57571
L64542 57619
L64566 57643
L64613 57666
L64708 57666
L64756 57643
L64780 57619
L64804 57571
L64804 57452
L64780 57405
L64756 57381
L64708 57357
L64613 57357
L64566 57381
L64542 57405
L64518 57452
" />
<path d="M63399 59666
L63113 59666
" />
<path d="M63256 59666
L63256 59166
L63208 59238
L63161 59285
L63113 59309
" />
<path d="M63708 59166
L63756 59166
L63804 59190
L63827 59214
L63851 59262
L63875 59357
L63875 59476
L63851 59571
L63827 59619
L63804 59643
L63756 59666
L63708 59666
L63661 59643
L63637 59619
L63613 59571
L63589 59476
L63589 59357
L63613 59262
L63637 59214
L63661 59190
L63708 59166
" />
<path d="M64185 59166
L64232 59166
L64280 59190
L64304 59214
L64327 59262
L64351 59357
L64351 59476
L64327 59571
L64304 59619
L64280 59643
L64232 59666
L64185 59666
L64137 59643
L64113 59619
L64089 59571
L64066 59476
L64066 59357
L64089 59262
L64113 59214
L64137 59190
L64185 59166
" />
<path d="M64780 59333
L64780 59666
" />
<path d="M64566 59333
L64566 59595
L64589 59643
L64637 59666
L64708 59666
L64756 59643
L64780 59619
" />
<path d="M65185 59405
L65018 59405
" />
<path d="M65018 59666
L65018 59166
L65256 59166
" />
<path d="M73552 55343
L73576 55366
L73600 55438
L73600 55486
L73576 55557
L73528 55605
L73480 55628
L73385 55652
L73314 55652
L73219 55628
L73171 55605
L73123 55557
L73100 55486
L73100 55438
L73123 55366
L73147 55343
" />
<path d="M73266 54914
L73600 54914
" />
<path d="M73076 55033
L73433 55152
L73433 54843
" />
<path d="M71600 55795
L71600 56081
" />
<path d="M71600 55938
L71100 55938
L71171 55986
L71219 56033
L71242 56081
" />
<path d="M71100 55486
L71100 55438
L71123 55390
L71147 55366
L71195 55343
L71290 55319
L71409 55319
L71504 55343
L71552 55366
L71576 55390
L71600 55438
L71600 55486
L71576 55533
L71552 55557
L71504 55581
L71409 55605
L71290 55605
L71195 55581
L71147 55557
L71123 55533
L71100 55486
" />
<path d="M71266 54890
L71600 54890
" />
<path d="M71266 55105
L71528 55105
L71576 55081
L71600 55033
L71600 54962
L71576 54914
L71552 54890
" />
<path d="M71338 54486
L71338 54652
" />
<path d="M71600 54652
L71100 54652
L71100 54414
" />
</g>
<g style="fill:#00A0A0; fill-opacity:0.0; 
stroke:#00A0A0; stroke-width:80; stroke-opacity:1; 
stroke-linecap:round; stroke-linejoin:round;">
<path d="M70708 39333
L70727 39352
L70746 39409
L70746 39447
L70727 39504
L70689 39543
L70651 39562
L70575 39581
L70518 39581
L70442 39562
L70404 39543
L70365 39504
L70346 39447
L70346 39409
L70365 39352
L70385 39333
" />
<path d="M70746 38952
L70746 39181
" />
<path d="M70746 39066
L70346 39066
L70404 39104
L70442 39143
L70461 39181
" />
<path d="M70346 38590
L70346 38781
L70537 38800
L70518 38781
L70499 38743
L70499 38647
L70518 38609
L70537 38590
L70575 38571
L70670 38571
L70708 38590
L70727 38609
L70746 38647
L70746 38743
L70727 38781
L70708 38800
" />
<path d="M72480 42286
L72499 42305
L72518 42362
L72518 42400
L72499 42457
L72461 42495
L72423 42514
L72347 42533
L72290 42533
L72213 42514
L72175 42495
L72137 42457
L72118 42400
L72118 42362
L72137 42305
L72156 42286
" />
<path d="M72518 41905
L72518 42133
" />
<path d="M72518 42019
L72118 42019
L72175 42057
L72213 42095
L72232 42133
" />
<path d="M72251 41562
L72518 41562
" />
<path d="M72099 41657
L72385 41752
L72385 41505
" />
<path d="M68621 55916
L68640 55936
L68659 55993
L68659 56031
L68640 56088
L68602 56126
L68564 56145
L68488 56164
L68430 56164
L68354 56145
L68316 56126
L68278 56088
L68259 56031
L68259 55993
L68278 55936
L68297 55916
" />
<path d="M68659 55536
L68659 55764
" />
<path d="M68659 55650
L68259 55650
L68316 55688
L68354 55726
L68373 55764
" />
<path d="M68259 55402
L68259 55155
L68411 55288
L68411 55231
L68430 55193
L68450 55174
L68488 55155
L68583 55155
L68621 55174
L68640 55193
L68659 55231
L68659 55345
L68640 55383
L68621 55402
" />
<path d="M64921 54926
L64940 54945
L64959 55002
L64959 55040
L64940 55097
L64902 55136
L64864 55155
L64788 55174
L64730 55174
L64654 55155
L64616 55136
L64578 55097
L64559 55040
L64559 55002
L64578 54945
L64597 54926
" />
<path d="M64959 54736
L64959 54659
L64940 54621
L64921 54602
L64864 54564
L64788 54545
L64635 54545
L64597 54564
L64578 54583
L64559 54621
L64559 54697
L64578 54736
L64597 54755
L64635 54774
L64730 54774
L64769 54755
L64788 54736
L64807 54697
L64807 54621
L64788 54583
L64769 54564
L64730 54545
" />
<path d="M61653 49223
L61634 49242
L61577 49261
L61539 49261
L61482 49242
L61444 49204
L61425 49166
L61406 49090
L61406 49033
L61425 48957
L61444 48919
L61482 48880
L61539 48861
L61577 48861
L61634 48880
L61653 48900
" />
<path d="M62034 49261
L61806 49261
" />
<path d="M61920 49261
L61920 48861
L61882 48919
L61844 48957
L61806 48976
" />
<path d="M62187 48900
L62206 48880
L62244 48861
L62339 48861
L62377 48880
L62396 48900
L62415 48938
L62415 48976
L62396 49033
L62168 49261
L62415 49261
" />
<path d="M63987 52125
L64006 52144
L64025 52201
L64025 52239
L64006 52297
L63968 52335
L63930 52354
L63854 52373
L63797 52373
L63720 52354
L63682 52335
L63644 52297
L63625 52239
L63625 52201
L63644 52144
L63663 52125
" />
<path d="M64025 51744
L64025 51973
" />
<path d="M64025 51858
L63625 51858
L63682 51897
L63720 51935
L63739 51973
" />
<path d="M64025 51363
L64025 51592
" />
<path d="M64025 51478
L63625 51478
L63682 51516
L63720 51554
L63739 51592
" />
<path d="M54533 34723
L54514 34742
L54457 34761
L54419 34761
L54361 34742
L54323 34704
L54304 34666
L54285 34590
L54285 34533
L54304 34457
L54323 34419
L54361 34380
L54419 34361
L54457 34361
L54514 34380
L54533 34400
" />
<path d="M54914 34761
L54685 34761
" />
<path d="M54800 34761
L54800 34361
L54761 34419
L54723 34457
L54685 34476
" />
<path d="M54533 37723
L54514 37742
L54457 37761
L54419 37761
L54361 37742
L54323 37704
L54304 37666
L54285 37590
L54285 37533
L54304 37457
L54323 37419
L54361 37380
L54419 37361
L54457 37361
L54514 37380
L54533 37400
" />
<path d="M54685 37400
L54704 37380
L54742 37361
L54838 37361
L54876 37380
L54895 37400
L54914 37438
L54914 37476
L54895 37533
L54666 37761
L54914 37761
" />
<path d="M79560 51979
L79541 51998
L79484 52017
L79446 52017
L79389 51998
L79351 51960
L79332 51922
L79313 51846
L79313 51789
L79332 51713
L79351 51674
L79389 51636
L79446 51617
L79484 51617
L79541 51636
L79560 51655
" />
<path d="M79903 51617
L79827 51617
L79789 51636
L79770 51655
L79732 51713
L79713 51789
L79713 51941
L79732 51979
L79751 51998
L79789 52017
L79865 52017
L79903 51998
L79922 51979
L79941 51941
L79941 51846
L79922 51808
L79903 51789
L79865 51770
L79789 51770
L79751 51789
L79732 51808
L79713 51846
" />
<path d="M75121 55726
L75140 55745
L75159 55802
L75159 55840
L75140 55897
L75102 55936
L75064 55955
L74988 55974
L74930 55974
L74854 55955
L74816 55936
L74778 55897
L74759 55840
L74759 55802
L74778 55745
L74797 55726
" />
<path d="M74759 55364
L74759 55555
L74950 55574
L74930 55555
L74911 55516
L74911 55421
L74930 55383
L74950 55364
L74988 55345
L75083 55345
L75121 55364
L75140 55383
L75159 55421
L75159 55516
L75140 55555
L75121 55574
" />
<path d="M62609 29881
L62628 29900
L62647 29957
L62647 29995
L62628 30052
L62590 30091
L62552 30110
L62476 30129
L62419 30129
L62342 30110
L62304 30091
L62266 30052
L62247 29995
L62247 29957
L62266 29900
L62285 29881
" />
<path d="M62647 29500
L62647 29729
" />
<path d="M62647 29614
L62247 29614
L62304 29652
L62342 29691
L62362 29729
" />
<path d="M62247 29252
L62247 29214
L62266 29176
L62285 29157
L62323 29138
L62400 29119
L62495 29119
L62571 29138
L62609 29157
L62628 29176
L62647 29214
L62647 29252
L62628 29291
L62609 29310
L62571 29329
L62495 29348
L62400 29348
L62323 29329
L62285 29310
L62266 29291
L62247 29252
" />
<path d="M59488 31269
L59507 31288
L59526 31345
L59526 31383
L59507 31440
L59469 31478
L59431 31497
L59355 31516
L59297 31516
L59221 31497
L59183 31478
L59145 31440
L59126 31383
L59126 31345
L59145 31288
L59164 31269
" />
<path d="M59126 31135
L59126 30888
L59278 31021
L59278 30964
L59297 30926
L59316 30907
L59355 30888
L59450 30888
L59488 30907
L59507 30926
L59526 30964
L59526 31078
L59507 31116
L59488 31135
" />
<path d="M73261 25011
L73242 25030
L73185 25049
L73147 25049
L73090 25030
L73052 24992
L73033 24954
L73014 24877
L73014 24820
L73033 24744
L73052 24706
L73090 24668
L73147 24649
L73185 24649
L73242 24668
L73261 24687
" />
<path d="M73490 24820
L73452 24801
L73433 24782
L73414 24744
L73414 24725
L73433 24687
L73452 24668
L73490 24649
L73566 24649
L73604 24668
L73623 24687
L73642 24725
L73642 24744
L73623 24782
L73604 24801
L73566 24820
L73490 24820
L73452 24839
L73433 24858
L73414 24896
L73414 24973
L73433 25011
L73452 25030
L73490 25049
L73566 25049
L73604 25030
L73623 25011
L73642 24973
L73642 24896
L73623 24858
L73604 24839
L73566 24820
" />
<path d="M67436 33687
L67269 33425
" />
<path d="M67150 33687
L67150 33137
L67341 33137
L67388 33163
L67412 33189
L67436 33241
L67436 33320
L67412 33372
L67388 33399
L67341 33425
L67150 33425
" />
<path d="M67722 33372
L67674 33346
L67650 33320
L67626 33268
L67626 33241
L67650 33189
L67674 33163
L67722 33137
L67817 33137
L67864 33163
L67888 33189
L67912 33241
L67912 33268
L67888 33320
L67864 33346
L67817 33372
L67722 33372
L67674 33399
L67650 33425
L67626 33477
L67626 33582
L67650 33634
L67674 33660
L67722 33687
L67817 33687
L67864 33660
L67888 33634
L67912 33582
L67912 33477
L67888 33425
L67864 33399
L67817 33372
" />
<path d="M61984 27181
L62031 27181
L62079 27207
L62103 27234
L62126 27286
L62150 27391
L62150 27522
L62126 27626
L62103 27679
L62079 27705
L62031 27731
L61984 27731
L61936 27705
L61912 27679
L61888 27626
L61865 27522
L61865 27391
L61888 27286
L61912 27234
L61936 27207
L61984 27181
" />
<path d="M58971 26797
L58805 26535
" />
<path d="M58686 26797
L58686 26247
L58876 26247
L58924 26273
L58947 26299
L58971 26352
L58971 26430
L58947 26483
L58924 26509
L58876 26535
L58686 26535
" />
<path d="M59209 26797
L59305 26797
L59352 26771
L59376 26745
L59424 26666
L59447 26561
L59447 26352
L59424 26299
L59400 26273
L59352 26247
L59257 26247
L59209 26273
L59186 26299
L59162 26352
L59162 26483
L59186 26535
L59209 26561
L59257 26587
L59352 26587
L59400 26561
L59424 26535
L59447 26483
" />
</g>
<g style="fill:#00A0A0; fill-opacity:0.0; 
stroke:#00A0A0; stroke-width:60; stroke-opacity:1; 
stroke-linecap:round; stroke-linejoin:round;">
<path d="M47531 59570
L47531 59270
" />
<path d="M47531 59413
L47702 59413
" />
<path d="M47702 59570
L47702 59270
" />
<path d="M47902 59270
L47960 59270
L47988 59284
L48017 59313
L48031 59370
L48031 59470
L48017 59527
L47988 59555
L47960 59570
L47902 59570
L47874 59555
L47845 59527
L47831 59470
L47831 59370
L47845 59313
L47874 59284
L47902 59270
" />
<path d="M48302 59570
L48160 59570
L48160 59270
" />
<path d="M48402 59413
L48502 59413
" />
<path d="M48545 59570
L48402 59570
L48402 59270
L48545 59270
" />
<path d="M81389 59963
L81389 59663
" />
<path d="M81389 59806
L81561 59806
" />
<path d="M81561 59963
L81561 59663
" />
<path d="M81761 59663
L81818 59663
L81846 59678
L81875 59706
L81889 59763
L81889 59863
L81875 59921
L81846 59949
L81818 59963
L81761 59963
L81732 59949
L81704 59921
L81689 59863
L81689 59763
L81704 59706
L81732 59678
L81761 59663
" />
<path d="M82161 59963
L82018 59963
L82018 59663
" />
<path d="M82261 59806
L82361 59806
" />
<path d="M82404 59963
L82261 59963
L82261 59663
L82404 59663
" />
<path d="M81389 24530
L81389 24230
" />
<path d="M81389 24373
L81561 24373
" />
<path d="M81561 24530
L81561 24230
" />
<path d="M81761 24230
L81818 24230
L81846 24245
L81875 24273
L81889 24330
L81889 24430
L81875 24488
L81846 24516
L81818 24530
L81761 24530
L81732 24516
L81704 24488
L81689 24430
L81689 24330
L81704 24273
L81732 24245
L81761 24230
" />
<path d="M82161 24530
L82018 24530
L82018 24230
" />
<path d="M82261 24373
L82361 24373
" />
<path d="M82404 24530
L82261 24530
L82261 24230
L82404 24230
" />
<path d="M46153 24530
L46153 24230
" />
<path d="M46153 24373
L46324 24373
" />
<path d="M46324 24530
L46324 24230
" />
<path d="M46524 24230
L46582 24230
L46610 24245
L46639 24273
L46653 24330
L46653 24430
L46639 24488
L46610 24516
L46582 24530
L46524 24530
L46496 24516
L46467 24488
L46453 24430
L46453 24330
L46467 24273
L46496 24245
L46524 24230
" />
<path d="M46924 24530
L46782 24530
L46782 24230
" />
<path d="M47024 24373
L47124 24373
" />
<path d="M47167 24530
L47024 24530
L47024 24230
L47167 24230
" />
</g>
<g style="fill:#00A0A0; fill-opacity:0.0; 
stroke:#00A0A0; stroke-width:120; stroke-opacity:1; 
stroke-linecap:round; stroke-linejoin:round;">
<circle cx="55708.7" cy="53149.6" r="2195.45" /> 
</g>
<g style="fill:#00A0A0; fill-opacity:0.0; 
stroke:#00A0A0; stroke-width:80; stroke-opacity:1; 
stroke-linecap:round; stroke-linejoin:round;">
<path d="M67725.4 44899.5 A950.329 950.329 0.0 0 0 67949.5 46224.6 " />
<path d="M69275 44900
L67725 44900
" />
<path d="M69050.5 46224.6 A950.329 950.329 0.0 0 0 69274.6 44899.5 " />
<path d="M67550 45450 A950 950 0.0 0 0 68500 46400 " />
<path d="M68500 46400 A950 950 0.0 0 0 69450 45450 " />
</g>
<g style="fill:#00A0A0; fill-opacity:0.0; 
stroke:#00A0A0; stroke-width:59.0551; stroke-opacity:1; 
stroke-linecap:round; stroke-linejoin:round;">
<path d="M71850 51452
L79330 51452
" />
<path d="M79330 51452
L79330 45547
" />
<path d="M79330 45547
L71850 45547
" />
<path d="M71850 45547
L71850 51452
" />
</g>
<g style="fill:#00A0A0; fill-opacity:0.0; 
stroke:#00A0A0; stroke-width:120; stroke-opacity:1; 
stroke-linecap:round; stroke-linejoin:round;">
<path d="M46547 57314
L46547 57314
" />
<path d="M47547 57314
L46547 57314
" />
<path d="M46547 57314
L46547 57314
" />
<path d="M46547 57314
L46547 53314
" />
<path d="M46547 53314
L47547 53314
" />
<path d="M47547 53314
L47547 57314
" />
<path d="M47547 56314
L46547 56314
" />
<path d="M60901 47350
L60901 46350
" />
<path d="M60901 46350
L63901 46350
" />
<path d="M63901 46350
L63901 47350
" />
<path d="M63901 47350
L60901 47350
" />
<path d="M61901 46350
L61901 47350
" />
<path d="M73712 37976
L74712 37976
" />
<path d="M74712 37976
L74712 39976
" />
<path d="M74712 39976
L73712 39976
" />
<path d="M73712 39976
L73712 37976
" />
<path d="M71350 37976
L72350 37976
" />
<path d="M72350 37976
L72350 39976
" />
<path d="M72350 39976
L71350 39976
" />
<path d="M71350 39976
L71350 37976
" />
<path d="M74712 42929
L73712 42929
" />
<path d="M73712 42929
L73712 40929
" />
<path d="M73712 40929
L74712 40929
" />
<path d="M74712 40929
L74712 42929
" />
</g>
<g style="fill:#00A0A0; fill-opacity:0.0; 
stroke:#00A0A0; stroke-width:80; stroke-opacity:1; 
stroke-linecap:round; stroke-linejoin:round;">
<path d="M64295 48425
L64095 48425
" />
<path d="M61295 48425
L61495 48425
" />
<path d="M61495 48425
L61495 48825
" />
<path d="M61495 48825
L64095 48825
" />
<path d="M64095 48825
L64095 48025
" />
<path d="M64095 48025
L61495 48025
" />
<path d="M61495 48025
L61495 48425
" />
<path d="M64095 48625
L63895 48825
" />
<path d="M63507 31889
L63307 31889
" />
<path d="M60507 31889
L60707 31889
" />
<path d="M60707 31889
L60707 32289
" />
<path d="M60707 32289
L63307 32289
" />
<path d="M63307 32289
L63307 31489
" />
<path d="M63307 31489
L60707 31489
" />
<path d="M60707 31489
L60707 31889
" />
<path d="M63307 32089
L63107 32289
" />
<path d="M65500 42500
L65500 42700
" />
<path d="M65500 45500
L65500 45300
" />
<path d="M65500 45300
L65900 45300
" />
<path d="M65900 45300
L65900 42700
" />
<path d="M65900 42700
L65100 42700
" />
<path d="M65100 42700
L65100 45300
" />
<path d="M65100 45300
L65500 45300
" />
<path d="M65700 42700
L65900 42900
" />
<path d="M74728 27362
L74528 27362
" />
<path d="M71728 27362
L71928 27362
" />
<path d="M71928 27362
L71928 27762
" />
<path d="M71928 27762
L74528 27762
" />
<path d="M74528 27762
L74528 26962
" />
<path d="M74528 26962
L71928 26962
" />
<path d="M71928 26962
L71928 27362
" />
<path d="M74528 27562
L74328 27762
" />
<path d="M60507 51377
L60707 51377
" />
<path d="M63507 51377
L63307 51377
" />
<path d="M63307 51377
L63307 50977
" />
<path d="M63307 50977
L60707 50977
" />
<path d="M60707 50977
L60707 51777
" />
<path d="M60707 51777
L63307 51777
" />
<path d="M63307 51777
L63307 51377
" />
<path d="M60707 51177
L60907 50977
" />
<path d="M56692 40429
L56692 40629
" />
<path d="M56692 43429
L56692 43229
" />
<path d="M56692 43229
L57092 43229
" />
<path d="M57092 43229
L57092 40629
" />
<path d="M57092 40629
L56292 40629
" />
<path d="M56292 40629
L56292 43229
" />
<path d="M56292 43229
L56692 43229
" />
<path d="M56892 40629
L57092 40829
" />
<path d="M60023 31421
L60023 28421
" />
<path d="M62023 28421
L62023 31421
" />
<path d="M62023 31421
L60023 31421
" />
<path d="M60023 28421
L62023 28421
" />
</g>
<g style="fill:#00A0A0; fill-opacity:0.0; 
stroke:#00A0A0; stroke-width:120; stroke-opacity:1; 
stroke-linecap:round; stroke-linejoin:round;">
<path d="M74120 24510
L73320 23710
" />
<path d="M73320 24510
L74120 23710
" />
<path d="M73220 24410
L73220 23810
" />
<path d="M66120 23710
L65320 23710
" />
<path d="M65320 23710
L65220 23810
" />
<path d="M65220 23810
L65120 23710
" />
<path d="M65120 23710
L64320 23710
" />
<path d="M64320 23710
L64220 23810
" />
<path d="M68220 23810
L68120 23710
" />
<path d="M68120 23710
L67320 23710
" />
<path d="M67320 23710
L67220 23810
" />
<path d="M67220 23810
L67120 23710
" />
<path d="M67120 23710
L66320 23710
" />
<path d="M66320 23710
L66220 23810
" />
<path d="M66220 23810
L66120 23710
" />
<path d="M68220 24410
L68120 24510
" />
<path d="M68120 24510
L67320 24510
" />
<path d="M67320 24510
L67220 24410
" />
<path d="M67220 24410
L67120 24510
" />
<path d="M67120 24510
L66320 24510
" />
<path d="M66320 24510
L66220 24410
" />
<path d="M66220 24410
L66120 24510
" />
<path d="M66120 24510
L65320 24510
" />
<path d="M65320 24510
L65220 24410
" />
<path d="M65220 24410
L65120 24510
" />
<path d="M65120 24510
L64320 24510
" />
<path d="M64320 24510
L64220 24410
" />
</g>
<g style="fill:#00A0A0; fill-opacity:0.0; 
stroke:#00A0A0; stroke-width:150; stroke-opacity:1; 
stroke-linecap:round; stroke-linejoin:round;">
<circle cx="73720.5" cy="23360.2" r="100" /> 
</g>
<g style="fill:#00A0A0; fill-opacity:0.0; 
stroke:#00A0A0; stroke-width:120; stroke-opacity:1; 
stroke-linecap:round; stroke-linejoin:round;">
<path d="M58220 24410
L58220 23810
" />
<path d="M58220 23810
L58320 23710
" />
<path d="M58320 23710
L59120 23710
" />
<path d="M59120 24510
L58320 24510
" />
<path d="M58320 24510
L58220 24410
" />
<path d="M64220 23810
L64120 23710
" />
<path d="M64120 23710
L63320 23710
" />
<path d="M63320 24510
L64120 24510
" />
<path d="M64120 24510
L64220 24410
" />
<path d="M69120 23710
L68320 23710
" />
<path d="M68320 24510
L68220 24410
" />
<path d="M68220 23810
L68320 23710
" />
<path d="M68320 24510
L69120 24510
" />
<path d="M74120 23710
L73320 23710
" />
<path d="M73320 24510
L74120 24510
" />
<path d="M74120 24510
L74220 24410
" />
<path d="M74220 24410
L74220 23810
" />
<path d="M74220 23810
L74120 23710
" />
<path d="M62120 23710
L61320 23710
" />
<path d="M62220 23810
L62120 23710
" />
<path d="M62320 23710
L62220 23810
" />
<path d="M63120 23710
L62320 23710
" />
<path d="M63220 23810
L63120 23710
" />
<path d="M63320 23710
L63220 23810
" />
<path d="M61220 23810
L61320 23710
" />
<path d="M61120 23710
L61220 23810
" />
<path d="M60320 23710
L61120 23710
" />
<path d="M60220 23810
L60320 23710
" />
<path d="M60120 23710
L60220 23810
" />
<path d="M60020 23710
L60120 23710
" />
<path d="M59320 23710
L60020 23710
" />
<path d="M59220 23810
L59320 23710
" />
<path d="M59120 23710
L59220 23810
" />
<path d="M59220 24410
L59120 24510
" />
<path d="M59320 24510
L59220 24410
" />
<path d="M60120 24510
L59320 24510
" />
<path d="M60220 24410
L60120 24510
" />
<path d="M60320 24510
L60220 24410
" />
<path d="M61120 24510
L60320 24510
" />
<path d="M61220 24410
L61120 24510
" />
<path d="M61320 24510
L61220 24410
" />
<path d="M62120 24510
L61320 24510
" />
<path d="M62220 24410
L62120 24510
" />
<path d="M62320 24510
L62220 24410
" />
<path d="M63120 24510
L62320 24510
" />
<path d="M63220 24410
L63120 24510
" />
<path d="M63320 24510
L63220 24410
" />
<path d="M73320 24510
L73220 24410
" />
<path d="M73220 24410
L73120 24510
" />
<path d="M73120 24510
L72320 24510
" />
<path d="M72320 24510
L72220 24410
" />
<path d="M72220 24410
L72120 24510
" />
<path d="M72120 24510
L71320 24510
" />
<path d="M71320 24510
L71220 24410
" />
<path d="M71220 24410
L71120 24510
" />
<path d="M71120 24510
L70320 24510
" />
<path d="M70320 24510
L70220 24410
" />
<path d="M70220 24410
L70120 24510
" />
<path d="M70120 24510
L69320 24510
" />
<path d="M69320 24510
L69220 24410
" />
<path d="M69220 24410
L69120 24510
" />
<path d="M69120 23710
L69220 23810
" />
<path d="M69220 23810
L69320 23710
" />
<path d="M69320 23710
L70020 23710
" />
<path d="M70020 23710
L70120 23710
" />
<path d="M70120 23710
L70220 23810
" />
<path d="M70220 23810
L70320 23710
" />
<path d="M70320 23710
L71120 23710
" />
<path d="M71120 23710
L71220 23810
" />
<path d="M71220 23810
L71320 23710
" />
<path d="M73320 23710
L73220 23810
" />
<path d="M73220 23810
L73120 23710
" />
<path d="M73120 23710
L72320 23710
" />
<path d="M72320 23710
L72220 23810
" />
<path d="M72220 23810
L72120 23710
" />
<path d="M72120 23710
L71320 23710
" />
</g>
<g style="fill:#00A0A0; fill-opacity:0.0; 
stroke:#00A0A0; stroke-width:100; stroke-opacity:1; 
stroke-linecap:round; stroke-linejoin:round;">
<path d="M78147 57009
L77897 57009
" />
<path d="M77897 57009
L77897 53509
" />
<path d="M77897 53509
L78147 53509
" />
<path d="M79647 57009
L78147 57009
" />
<path d="M78147 57009
L78147 53509
" />
<path d="M78147 53509
L79647 53509
" />
<path d="M79647 53509
L79647 57009
" />
<path d="M67647 53509
L67897 53509
" />
<path d="M67897 53509
L67897 57009
" />
<path d="M67897 57009
L67647 57009
" />
<path d="M66147 53509
L67647 53509
" />
<path d="M67647 53509
L67647 57009
" />
<path d="M67647 57009
L66147 57009
" />
<path d="M66147 57009
L66147 53509
" />
<path d="M57744 40641
L57744 41641
" />
</g>
<g style="fill:#00A0A0; fill-opacity:0.0; 
stroke:#00A0A0; stroke-width:60; stroke-opacity:1; 
stroke-linecap:round; stroke-linejoin:round;">
<path d="M58825.5 41525.8 A600 600 0.0 0 0 58964.6 41141.7 " />
<path d="M58963.8 41141.7 A599.256 599.256 0.0 0 0 58812.7 40743.9 " />
<path d="M57765.3 41141.7 A599.27 599.27 0.0 0 0 57909.6 41531.7 " />
<path d="M57903.6 40757.7 A600 600 0.0 0 0 57764.6 41141.7 " />
<path d="M57876.7 41491 A600 600 0.0 0 0 58364.6 41741.7 " />
<path d="M58364.6 41741.7 A600 600 0.0 0 0 58844.4 41502 " />
<path d="M58364.6 40542.4 A599.294 599.294 0.0 0 0 57891.7 40773.6 " />
<path d="M58838 40773.2 A600 600 0.0 0 0 58364.6 40541.7 " />
<path d="M58364.6 41391.7 A250 250 0.0 0 0 58614.6 41141.7 " />
<path d="M58364.6 41541.7 A400 400 0.0 0 0 58764.6 41141.7 " />
<path d="M58364.6 40891.7 A250 250 0.0 0 0 58114.6 41141.7 " />
<path d="M58364.6 40741.7 A400 400 0.0 0 0 57964.6 41141.7 " />
</g>
<g style="fill:#00A0A0; fill-opacity:0.0; 
stroke:#00A0A0; stroke-width:100; stroke-opacity:1; 
stroke-linecap:round; stroke-linejoin:round;">
<path d="M57750.8 41654.9 A800 800 0.0 0 0 58364.6 41941.7 " />
<path d="M58364.6 41940.7 A799 799 0.0 0 0 59069.4 41518.1 " />
<path d="M58363.2 40342.8 A798.972 798.972 0.0 0 0 57754.3 40626 " />
<path d="M59058.8 40744.2 A800 800 0.0 0 0 58364.6 40341.7 " />
<path d="M59068.9 41521 A800 800 0.0 0 0 59164.6 41141.7 " />
<path d="M59164.1 41141.7 A799.576 799.576 0.0 0 0 59045.6 40722.8 " />
</g>
<g style="fill:#00A0A0; fill-opacity:0.0; 
stroke:#00A0A0; stroke-width:125; stroke-opacity:1; 
stroke-linecap:round; stroke-linejoin:round;">
<path d="M58500 38250
L58500 35750
" />
<path d="M56500 38250
L56500 35750
" />
<path d="M57500 34750 A1000 1000 0.0 0 0 56500 35750 " />
<path d="M58500 35750 A1000 1000 0.0 0 0 57500 34750 " />
<path d="M56500 38250 A1000 1000 0.0 0 0 57500 39250 " />
<path d="M57500 39250 A1000 1000 0.0 0 0 58500 38250 " />
</g>
<g style="fill:#00A0A0; fill-opacity:0.0; 
stroke:#00A0A0; stroke-width:150; stroke-opacity:1; 
stroke-linecap:round; stroke-linejoin:round;">
<path d="M62500 32500
L62500 33000
" />
<path d="M62500 33000
L61500 33000
" />
<path d="M61500 33000
L61500 32500
" />
<path d="M63000 32500
L63000 43500
" />
<path d="M63000 43500
L61000 43500
" />
<path d="M61000 43500
L61000 32500
" />
<path d="M61000 32500
L63000 32500
" />
</g>
<g style="fill:#00A0A0; fill-opacity:0.0; 
stroke:#00A0A0; stroke-width:120; stroke-opacity:1; 
stroke-linecap:round; stroke-linejoin:round;">
<path d="M68500 50500
L68500 50200
" />
<path d="M68500 50200
L68900 50200
" />
<path d="M68900 50200
L68900 47800
" />
<path d="M68900 47800
L68500 47800
" />
<path d="M68500 47800
L68500 47500
" />
<path d="M68500 47800
L68100 47800
" />
<path d="M68100 47800
L68100 50200
" />
<path d="M68100 50200
L68500 50200
" />
<path d="M68900 50000
L68100 50000
" />
<path d="M68100 49900
L68900 49900
" />
<circle cx="64173.2" cy="58464.6" r="2195.45" /> 
<circle cx="72397.6" cy="55259.8" r="2195.45" /> 
<path d="M70185 37996
L70185 39976
" />
<path d="M70185 39976
L69185 39976
" />
<path d="M69185 39976
L69185 37976
" />
<path d="M69185 37976
L70185 37976
" />
<path d="M69935 37976
L70185 38226
" />
<path d="M71956 40949
L71956 42929
" />
<path d="M71956 42929
L70956 42929
" />
<path d="M70956 42929
L70956 40929
" />
<path d="M70956 40929
L71956 40929
" />
<path d="M71706 40929
L71956 41179
" />
<path d="M68897 56739
L68897 54759
" />
<path d="M68897 54759
L69897 54759
" />
<path d="M69897 54759
L69897 56759
" />
<path d="M69897 56759
L68897 56759
" />
<path d="M69147 56759
L68897 56509
" />
<path d="M64397 53779
L64397 55759
" />
<path d="M64397 55759
L63397 55759
" />
<path d="M63397 55759
L63397 53759
" />
<path d="M63397 53759
L64397 53759
" />
<path d="M64147 53759
L64397 54009
" />
<path d="M60831 49500
L62811 49500
" />
<path d="M62811 49500
L62811 50500
" />
<path d="M62811 50500
L60811 50500
" />
<path d="M60811 50500
L60811 49500
" />
<path d="M60811 49750
L61061 49500
" />
<path d="M64263 52948
L64263 50968
" />
<path d="M64263 50968
L65263 50968
" />
<path d="M65263 50968
L65263 52968
" />
<path d="M65263 52968
L64263 52968
" />
<path d="M64513 52968
L64263 52718
" />
<path d="M53520 35000
L55500 35000
" />
<path d="M55500 35000
L55500 36000
" />
<path d="M55500 36000
L53500 36000
" />
<path d="M53500 36000
L53500 35000
" />
<path d="M53500 35250
L53750 35000
" />
<path d="M53520 38000
L55500 38000
" />
<path d="M55500 38000
L55500 39000
" />
<path d="M55500 39000
L53500 39000
" />
<path d="M53500 39000
L53500 38000
" />
<path d="M53500 38250
L53750 38000
" />
<path d="M78547 52255
L80527 52255
" />
<path d="M80527 52255
L80527 53255
" />
<path d="M80527 53255
L78527 53255
" />
<path d="M78527 53255
L78527 52255
" />
<path d="M78527 52505
L78777 52255
" />
<path d="M75397 56739
L75397 54759
" />
<path d="M75397 54759
L76397 54759
" />
<path d="M76397 54759
L76397 56759
" />
<path d="M76397 56759
L75397 56759
" />
<path d="M75647 56759
L75397 56509
" />
<path d="M62885 30704
L62885 28724
" />
<path d="M62885 28724
L63885 28724
" />
<path d="M63885 28724
L63885 30724
" />
<path d="M63885 30724
L62885 30724
" />
<path d="M63135 30724
L62885 30474
" />
<path d="M58964 30122
L58964 32102
" />
<path d="M58964 32102
L57964 32102
" />
<path d="M57964 32102
L57964 30102
" />
<path d="M57964 30102
L58964 30102
" />
<path d="M58714 30102
L58964 30352
" />
<path d="M72248 25287
L74228 25287
" />
<path d="M74228 25287
L74228 26287
" />
<path d="M74228 26287
L72228 26287
" />
<path d="M72228 26287
L72228 25287
" />
<path d="M72228 25537
L72478 25287
" />
<path d="M70019 33464
L69619 33464
" />
<path d="M65019 33464
L65419 33464
" />
<path d="M65419 33964
L65419 32964
" />
<path d="M65419 32964
L69619 32964
" />
<path d="M69619 32964
L69619 33964
" />
<path d="M69619 33964
L65419 33964
" />
<path d="M69619 33764
L69419 33964
" />
</g>
<g style="fill:#00A0A0; fill-opacity:0.0; 
stroke:#00A0A0; stroke-width:80; stroke-opacity:1; 
stroke-linecap:round; stroke-linejoin:round;">
<path d="M63507 27559
L63307 27559
" />
<path d="M60507 27559
L60707 27559
" />
<path d="M60707 27559
L60707 27959
" />
<path d="M60707 27959
L63307 27959
" />
<path d="M63307 27959
L63307 27159
" />
<path d="M63307 27159
L60707 27159
" />
<path d="M60707 27159
L60707 27559
" />
<path d="M63307 27759
L63107 27959
" />
</g>
<g style="fill:#00A0A0; fill-opacity:0.0; 
stroke:#00A0A0; stroke-width:120; stroke-opacity:1; 
stroke-linecap:round; stroke-linejoin:round;">
<path d="M61555 26574
L61155 26574
" />
<path d="M56555 26574
L56955 26574
" />
<path d="M56955 27074
L56955 26074
" />
<path d="M56955 26074
L61155 26074
" />
<path d="M61155 26074
L61155 27074
" />
<path d="M61155 27074
L56955 27074
" />
<path d="M61155 26874
L60955 27074
" />
</g>
<g style="fill:#00A0A0; fill-opacity:0.0; 
stroke:#00A0A0; stroke-width:80; stroke-opacity:1; 
stroke-linecap:round; stroke-linejoin:round;">
<circle cx="48031.5" cy="59448.8" r="1200" /> 
<circle cx="48031.5" cy="59448.8" r="630" /> 
<circle cx="81889.8" cy="59842.5" r="1200" /> 
<circle cx="81889.8" cy="59842.5" r="630" /> 
<circle cx="81889.8" cy="24409.4" r="1200" /> 
<circle cx="81889.8" cy="24409.4" r="630" /> 
<circle cx="46653.5" cy="24409.4" r="1200" /> 
<circle cx="46653.5" cy="24409.4" r="630" /> 
</g>
<g style="fill:#808000; fill-opacity:0.0; 
stroke:#808000; stroke-width:39.3701; stroke-opacity:1; 
stroke-linecap:round; stroke-linejoin:round;">
</g>
<g style="fill:#808000; fill-opacity:1.0; 
stroke:#808000; stroke-width:39.3701; stroke-opacity:1; 
stroke-linecap:round; stroke-linejoin:round;">
<polyline style="fill-rule:evenodd;"
points="56038,54479
55378,54479
55378,53819
56038,53819
56038,54479
" /> 
<circle cx="55708.7" cy="52149.6" r="330.315" /> 
<circle cx="68500" cy="45500" r="280.315" /> 
<circle cx="69500" cy="45500" r="280.315" /> 
<circle cx="67500" cy="45500" r="280.315" /> 
<circle cx="72637.8" cy="46334.6" r="177.165" /> 
<circle cx="72637.8" cy="50665.4" r="177.165" /> 
<circle cx="72244.1" cy="48500" r="177.165" /> 
<circle cx="77362.2" cy="46334.6" r="177.165" /> 
<circle cx="77362.2" cy="50665.4" r="177.165" /> 
<polyline style="fill-rule:evenodd;"
points="47302,57070
46791,57070
46791,56559
47302,56559
47302,57070
" /> 
<circle cx="47047.2" cy="55815" r="255.315" /> 
<circle cx="47047.2" cy="54815" r="255.315" /> 
<circle cx="47047.2" cy="53815" r="255.315" /> 
<polyline style="fill-rule:evenodd;"
points="61146,47105
61146,46595
61656,46595
61656,47105
61146,47105
" /> 
<circle cx="62401.6" cy="46850.4" r="255.315" /> 
<circle cx="63401.6" cy="46850.4" r="255.315" /> 
<polyline style="fill-rule:evenodd;"
points="73957,38221
74467,38221
74467,38731
73957,38731
73957,38221
" /> 
<circle cx="74212.6" cy="39476.4" r="255.315" /> 
<polyline style="fill-rule:evenodd;"
points="71595,38221
72105,38221
72105,38731
71595,38731
71595,38221
" /> 
<circle cx="71850.4" cy="39476.4" r="255.315" /> 
<polyline style="fill-rule:evenodd;"
points="74467,42684
73957,42684
73957,42173
74467,42173
74467,42684
" /> 
<circle cx="74212.6" cy="41429.1" r="255.315" /> 
<circle cx="64295.3" cy="48425.2" r="255.315" /> 
<circle cx="61295.3" cy="48425.2" r="255.315" /> 
<circle cx="63507.9" cy="31889.8" r="255.315" /> 
<circle cx="60507.9" cy="31889.8" r="255.315" /> 
<circle cx="65500" cy="42500" r="255.315" /> 
<circle cx="65500" cy="45500" r="255.315" /> 
<circle cx="74728.3" cy="27362.2" r="255.315" /> 
<circle cx="71728.3" cy="27362.2" r="255.315" /> 
<circle cx="60507.9" cy="51378" r="255.315" /> 
<circle cx="63507.9" cy="51378" r="255.315" /> 
<circle cx="56692.9" cy="40429.1" r="255.315" /> 
<circle cx="56692.9" cy="43429.1" r="255.315" /> 
<polyline style="fill-rule:evenodd;"
points="60243,28640
60803,28640
60803,29201
60243,29201
60243,28640
" /> 
<circle cx="61523.6" cy="28921.3" r="280.315" /> 
<circle cx="60523.6" cy="29921.3" r="280.315" /> 
<circle cx="61523.6" cy="29921.3" r="280.315" /> 
<circle cx="60523.6" cy="30921.3" r="280.315" /> 
<circle cx="61523.6" cy="30921.3" r="280.315" /> 
<polyline style="fill-rule:evenodd;"
points="74000,23679
74000,24540
73440,24540
73440,23679
74000,23679
" /> 
</g>
<g style="fill:#808000; fill-opacity:1.0; 
stroke:#808000; stroke-width:600; stroke-opacity:1; 
stroke-linecap:round; stroke-linejoin:round;">
<path d="M72720 24260
L72720 23960
" />
<path d="M71720 24260
L71720 23960
" />
<path d="M70720 24260
L70720 23960
" />
<path d="M69720 24260
L69720 23960
" />
<path d="M68720 24260
L68720 23960
" />
<path d="M67720 24260
L67720 23960
" />
<path d="M66720 24260
L66720 23960
" />
<path d="M65720 24260
L65720 23960
" />
<path d="M64720 24260
L64720 23960
" />
<path d="M63720 24260
L63720 23960
" />
<path d="M62720 24260
L62720 23960
" />
<path d="M61720 24260
L61720 23960
" />
<path d="M60720 24260
L60720 23960
" />
<path d="M59720 24260
L59720 23960
" />
<path d="M58720 24260
L58720 23960
" />
</g>
<g style="fill:#808000; fill-opacity:1.0; 
stroke:#808000; stroke-width:39.3701; stroke-opacity:1; 
stroke-linecap:round; stroke-linejoin:round;">
<circle cx="78897.6" cy="56259.8" r="330.315" /> 
<polyline style="fill-rule:evenodd;"
points="79227,54929
79227,55590
78567,55590
78567,54929
79227,54929
" /> 
<circle cx="78897.6" cy="54259.8" r="330.315" /> 
<circle cx="66897.6" cy="54259.8" r="330.315" /> 
<polyline style="fill-rule:evenodd;"
points="66567,55590
66567,54929
67227,54929
67227,55590
66567,55590
" /> 
<circle cx="66897.6" cy="56259.8" r="330.315" /> 
<circle cx="58964.6" cy="41141.7" r="310.315" /> 
<circle cx="57964.6" cy="41141.7" r="310.315" /> 
<circle cx="57500" cy="38000" r="260.315" /> 
<circle cx="57500" cy="36000" r="260.315" /> 
<polyline style="fill-rule:evenodd;"
points="60244,33244
60755,33244
60755,33755
60244,33755
60244,33244
" /> 
<circle cx="60500" cy="34500" r="255.315" /> 
<circle cx="60500" cy="35500" r="255.315" /> 
<circle cx="60500" cy="36500" r="255.315" /> 
<circle cx="60500" cy="37500" r="255.315" /> 
<circle cx="60500" cy="38500" r="255.315" /> 
<circle cx="60500" cy="39500" r="255.315" /> 
<circle cx="60500" cy="40500" r="255.315" /> 
<circle cx="60500" cy="41500" r="255.315" /> 
<circle cx="60500" cy="42500" r="255.315" /> 
<circle cx="63500" cy="42500" r="255.315" /> 
<circle cx="63500" cy="41500" r="255.315" /> 
<circle cx="63500" cy="40500" r="255.315" /> 
<circle cx="63500" cy="39500" r="255.315" /> 
<circle cx="63500" cy="38500" r="255.315" /> 
<circle cx="63500" cy="37500" r="255.315" /> 
<circle cx="63500" cy="36500" r="255.315" /> 
<circle cx="63500" cy="35500" r="255.315" /> 
<circle cx="63500" cy="34500" r="255.315" /> 
<circle cx="63500" cy="33500" r="255.315" /> 
<polyline style="fill-rule:evenodd;"
points="68244,50244
68755,50244
68755,50755
68244,50755
68244,50244
" /> 
<circle cx="68500" cy="47500" r="255.315" /> 
<polyline style="fill-rule:evenodd;"
points="65503,58134
65503,58794
64842,58794
64842,58134
65503,58134
" /> 
<circle cx="63173.2" cy="58464.6" r="330.315" /> 
<polyline style="fill-rule:evenodd;"
points="72727,56590
72067,56590
72067,55929
72727,55929
72727,56590
" /> 
<circle cx="72397.6" cy="54259.8" r="330.315" /> 
<circle cx="69685" cy="38476.4" r="255.315" /> 
<circle cx="69685" cy="39476.4" r="255.315" /> 
<circle cx="71456.7" cy="41429.1" r="255.315" /> 
<circle cx="71456.7" cy="42429.1" r="255.315" /> 
<circle cx="69397.6" cy="56259.8" r="255.315" /> 
<circle cx="69397.6" cy="55259.8" r="255.315" /> 
<circle cx="63897.6" cy="54259.8" r="255.315" /> 
<circle cx="63897.6" cy="55259.8" r="255.315" /> 
<circle cx="61311" cy="50000" r="255.315" /> 
<circle cx="62311" cy="50000" r="255.315" /> 
<circle cx="64763.8" cy="52468.5" r="255.315" /> 
<circle cx="64763.8" cy="51468.5" r="255.315" /> 
<circle cx="54000" cy="35500" r="255.315" /> 
<circle cx="55000" cy="35500" r="255.315" /> 
<circle cx="54000" cy="38500" r="255.315" /> 
<circle cx="55000" cy="38500" r="255.315" /> 
<circle cx="79027.6" cy="52755.9" r="255.315" /> 
<circle cx="80027.6" cy="52755.9" r="255.315" /> 
<circle cx="75897.6" cy="56259.8" r="255.315" /> 
<circle cx="75897.6" cy="55259.8" r="255.315" /> 
<circle cx="63385.8" cy="30224.4" r="255.315" /> 
<circle cx="63385.8" cy="29224.4" r="255.315" /> 
<circle cx="58464.6" cy="30602.4" r="255.315" /> 
<circle cx="58464.6" cy="31602.4" r="255.315" /> 
<circle cx="72728.3" cy="25787.4" r="255.315" /> 
<circle cx="73728.3" cy="25787.4" r="255.315" /> 
<circle cx="70019.7" cy="33464.6" r="280.315" /> 
<circle cx="65019.7" cy="33464.6" r="280.315" /> 
<circle cx="63507.9" cy="27559.1" r="255.315" /> 
<circle cx="60507.9" cy="27559.1" r="255.315" /> 
<circle cx="61555.1" cy="26574.8" r="280.315" /> 
<circle cx="56555.1" cy="26574.8" r="280.315" /> 
<circle cx="48031.5" cy="59448.8" r="1161.31" /> 
<circle cx="81889.8" cy="59842.5" r="1161.31" /> 
<circle cx="81889.8" cy="24409.4" r="1161.31" /> 
<circle cx="46653.5" cy="24409.4" r="1161.31" /> 
</g> 
</svg>
