G75*
G70*
%OFA0B0*%
%FSLAX24Y24*%
%IPPOS*%
%LPD*%
%AMOC8*
5,1,8,0,0,1.08239X$1,22.5*
%
%ADD10OC8,0.0560*%
%ADD11OC8,0.0630*%
%ADD12OC8,0.0640*%
%ADD13OC8,0.0680*%
%ADD14OC8,0.0712*%
%ADD15OC8,0.0760*%
%ADD16C,0.0320*%
%ADD17C,0.0400*%
%ADD18R,0.0449X0.0449*%
%ADD19C,0.0236*%
%ADD20C,0.0240*%
%ADD21C,0.0500*%
%ADD22C,0.0560*%
%ADD23C,0.0157*%
D10*
X012456Y007958D03*
X012456Y008958D03*
X014081Y009083D03*
X014081Y010083D03*
X011706Y011333D03*
X011706Y012333D03*
X011581Y013708D03*
X012581Y013708D03*
X011081Y014833D03*
X008081Y014833D03*
X008581Y018708D03*
X009581Y018708D03*
X014706Y018833D03*
X015706Y018833D03*
X016706Y018833D03*
X017706Y018833D03*
X018706Y018833D03*
X019706Y018833D03*
X020706Y018833D03*
X021706Y018833D03*
X022706Y018833D03*
X023706Y018833D03*
X024706Y018833D03*
X025706Y018833D03*
X026706Y018833D03*
X027706Y018833D03*
X029589Y017533D03*
X030589Y017533D03*
X031331Y017083D03*
X030581Y016083D03*
X029581Y016083D03*
X027706Y015833D03*
X026706Y015833D03*
X025706Y015833D03*
X024706Y015833D03*
X023706Y015833D03*
X022706Y015833D03*
X021706Y015833D03*
X020706Y015833D03*
X019706Y015833D03*
X018706Y015833D03*
X017706Y015833D03*
X016706Y015833D03*
X015706Y015833D03*
X014706Y015833D03*
X020081Y012333D03*
X020081Y011333D03*
X021581Y013208D03*
X022581Y013208D03*
X023456Y013208D03*
X024456Y013208D03*
X024281Y014583D03*
X022381Y014583D03*
X026331Y010208D03*
X026331Y009208D03*
X024956Y007208D03*
X024956Y006208D03*
X031831Y012083D03*
X032831Y012083D03*
X031331Y020083D03*
X023726Y021081D03*
X022726Y021081D03*
X015956Y006458D03*
X015956Y005458D03*
D11*
X009581Y011333D03*
X009581Y012333D03*
X029581Y013958D03*
X030581Y013958D03*
X032456Y014083D03*
X033456Y014083D03*
D12*
X032456Y016083D03*
X032456Y017083D03*
X028581Y019958D03*
X027581Y019958D03*
X025581Y020083D03*
X024581Y020083D03*
X021331Y020208D03*
X018331Y020208D03*
X017331Y020208D03*
X016331Y020208D03*
X015331Y020208D03*
X014331Y020208D03*
X013331Y020208D03*
X012846Y018426D03*
X011066Y018426D03*
X011066Y015866D03*
X012846Y015866D03*
X016831Y014708D03*
X017831Y014708D03*
X016831Y012333D03*
X015831Y012333D03*
X014831Y012333D03*
X013831Y012333D03*
X012831Y012333D03*
X012831Y011208D03*
X013831Y011208D03*
X014831Y011208D03*
X015831Y011208D03*
X016831Y011208D03*
X007206Y013708D03*
X007206Y014708D03*
X007206Y015708D03*
X007206Y016708D03*
X007206Y017708D03*
X007206Y018708D03*
X029831Y010458D03*
X030831Y010458D03*
X031831Y010458D03*
D13*
X030831Y011958D03*
X029831Y011958D03*
D14*
X023956Y009208D03*
X022956Y009208D03*
X021956Y009208D03*
X020956Y009208D03*
X019956Y009208D03*
X018956Y009208D03*
X017956Y009208D03*
X016956Y009208D03*
X017456Y007208D03*
X018456Y007208D03*
X019456Y007208D03*
X020456Y007208D03*
X021456Y007208D03*
X022456Y007208D03*
X023456Y007208D03*
D15*
X026081Y007208D03*
X027331Y010208D03*
X032456Y018083D03*
X033706Y018083D03*
X011581Y009833D03*
X010581Y005833D03*
D16*
X009831Y007958D02*
X008581Y009208D01*
X008581Y011458D01*
X009518Y012396D01*
X009581Y012458D01*
X007206Y012458D01*
X006456Y013208D01*
X006456Y015583D01*
X006581Y015708D01*
X007206Y015708D01*
X008081Y015708D01*
X008081Y014833D01*
X008081Y014458D01*
X009081Y013458D01*
X011331Y013458D01*
X011581Y013708D01*
X011081Y014833D02*
X011081Y015756D01*
X011658Y015756D01*
X012456Y014958D01*
X014581Y014958D01*
X014706Y015083D01*
X014706Y015833D01*
X014673Y015866D01*
X016831Y014958D02*
X016831Y014708D01*
X016831Y014958D02*
X017706Y015833D01*
X017831Y014958D02*
X018706Y015833D01*
X017831Y014958D02*
X017831Y014708D01*
X016831Y012333D02*
X015831Y012333D01*
X014831Y012333D01*
X013831Y012333D01*
X012831Y012333D01*
X011706Y012333D01*
X009581Y012333D01*
X020081Y012333D01*
X019956Y012333D02*
X016831Y012333D01*
X018956Y009708D02*
X019456Y010208D01*
X021081Y010208D01*
X023081Y012208D01*
X024956Y012208D01*
X025956Y013208D01*
X025956Y014208D01*
X024706Y015458D01*
X024706Y015833D01*
X025706Y015833D02*
X025706Y016708D01*
X025956Y016958D01*
X028081Y016958D01*
X028456Y016583D01*
X028456Y009833D01*
X026706Y008083D01*
X022081Y008083D01*
X021456Y007458D01*
X021456Y007208D01*
X019456Y007208D02*
X019456Y004583D01*
X019956Y004083D01*
X032831Y004083D01*
X035206Y006458D01*
X035206Y019458D01*
X033706Y020958D01*
X027206Y020958D01*
X026706Y020458D01*
X026706Y020083D01*
X025831Y019208D01*
X025831Y018958D01*
X025706Y018833D01*
X026706Y018833D02*
X026706Y019083D01*
X027581Y019958D01*
X027706Y019083D02*
X028581Y019958D01*
X027706Y019083D02*
X027706Y018833D01*
X029413Y017708D02*
X029589Y017533D01*
X029589Y016091D01*
X029581Y016083D01*
X029581Y013958D01*
X029581Y012833D01*
X029831Y012583D01*
X029831Y012083D01*
X029956Y011958D01*
X029956Y011833D01*
X029831Y011958D01*
X029831Y010458D01*
X029956Y011333D02*
X029956Y011833D01*
X029831Y011958D02*
X029831Y012083D01*
X027706Y013333D02*
X027706Y015833D01*
X027706Y015708D01*
X026706Y015833D02*
X026706Y013083D01*
X025206Y011583D01*
X023331Y011583D01*
X020956Y009208D01*
X021956Y009208D02*
X021956Y009458D01*
X023456Y010958D01*
X025331Y010958D01*
X027706Y013333D01*
X024456Y013208D02*
X024281Y013383D01*
X024281Y014583D01*
X024281Y014633D01*
X023706Y015208D01*
X023706Y015833D01*
X022706Y015833D02*
X022381Y015508D01*
X022381Y014583D01*
X022381Y014008D01*
X021581Y013208D01*
X020706Y015833D02*
X020831Y015958D01*
X021706Y018708D02*
X021706Y018833D01*
X021706Y019708D01*
X021331Y020083D01*
X021331Y020208D01*
X019706Y018833D02*
X018331Y020208D01*
X017331Y020208D02*
X018706Y018833D01*
X017706Y018833D02*
X016331Y020208D01*
X015331Y020208D02*
X016706Y018833D01*
X015706Y018833D02*
X014331Y020208D01*
X013331Y020208D02*
X014706Y018833D01*
X011081Y018458D02*
X011066Y018443D01*
X011066Y018426D01*
X010783Y018708D01*
X009581Y018708D01*
X008581Y018708D02*
X007206Y018708D01*
X010956Y015756D02*
X011081Y015756D01*
X011066Y015866D02*
X010956Y015756D01*
X018956Y009708D02*
X018956Y009208D01*
X019456Y008333D02*
X015206Y008333D01*
X015206Y008208D01*
X014956Y007958D01*
X009831Y007958D01*
X023706Y018833D02*
X023706Y019208D01*
X024581Y020083D01*
X024706Y019208D02*
X025581Y020083D01*
X024706Y019208D02*
X024706Y018833D01*
X030589Y017533D02*
X030756Y017533D01*
X031331Y017083D01*
X027456Y010208D02*
X026331Y010208D01*
D17*
X019956Y009208D02*
X019956Y008833D01*
X019456Y008333D01*
X015331Y008333D01*
X014956Y007958D01*
X012456Y007958D01*
D18*
X020831Y015958D03*
D19*
X009581Y012333D02*
X009518Y012396D01*
D20*
X006031Y003658D02*
X006031Y021883D01*
X024256Y021883D01*
X036381Y021834D01*
X036381Y010884D01*
X036331Y003658D01*
X006031Y003658D01*
X006031Y003664D02*
X036332Y003664D01*
X036333Y003902D02*
X033213Y003902D01*
X033168Y003858D02*
X035431Y006121D01*
X035431Y006121D01*
X035543Y006233D01*
X035604Y006379D01*
X035604Y019538D01*
X035543Y019684D01*
X035431Y019796D01*
X033931Y021296D01*
X033785Y021356D01*
X027127Y021356D01*
X026980Y021296D01*
X026868Y021184D01*
X026368Y020684D01*
X026308Y020538D01*
X026308Y020248D01*
X026139Y020079D01*
X026139Y020315D01*
X025812Y020641D01*
X025350Y020641D01*
X025081Y020373D01*
X024812Y020641D01*
X024350Y020641D01*
X024023Y020315D01*
X024023Y020088D01*
X023368Y019434D01*
X023308Y019288D01*
X023308Y019168D01*
X023206Y019066D01*
X022921Y019351D01*
X022491Y019351D01*
X022206Y019066D01*
X022104Y019168D01*
X022104Y019788D01*
X022043Y019934D01*
X021931Y020046D01*
X021889Y020088D01*
X021889Y020440D01*
X021562Y020766D01*
X021100Y020766D01*
X020773Y020440D01*
X020773Y019977D01*
X021100Y019650D01*
X021201Y019650D01*
X021308Y019543D01*
X021308Y019168D01*
X021193Y019053D01*
X020913Y019333D01*
X020706Y019333D01*
X020706Y018833D01*
X020706Y018333D01*
X020913Y018333D01*
X021193Y018613D01*
X021491Y018315D01*
X021615Y018315D01*
X021627Y018310D01*
X021785Y018310D01*
X021797Y018315D01*
X021921Y018315D01*
X022206Y018601D01*
X022491Y018315D01*
X022921Y018315D01*
X023206Y018601D01*
X023491Y018315D01*
X023921Y018315D01*
X024206Y018601D01*
X024491Y018315D01*
X024921Y018315D01*
X025206Y018601D01*
X025491Y018315D01*
X025921Y018315D01*
X026206Y018601D01*
X026491Y018315D01*
X026921Y018315D01*
X027206Y018601D01*
X027491Y018315D01*
X027921Y018315D01*
X028224Y018619D01*
X028224Y019038D01*
X028586Y019400D01*
X028812Y019400D01*
X029139Y019727D01*
X029139Y020190D01*
X028812Y020516D01*
X028350Y020516D01*
X028081Y020248D01*
X027812Y020516D01*
X027350Y020516D01*
X027104Y020271D01*
X027104Y020293D01*
X027371Y020560D01*
X031101Y020560D01*
X030831Y020290D01*
X030831Y020083D01*
X030831Y019876D01*
X031124Y019583D01*
X031331Y019583D01*
X031538Y019583D01*
X031831Y019876D01*
X031831Y020083D01*
X031331Y020083D01*
X031331Y019583D01*
X031331Y020083D01*
X031331Y020083D01*
X031331Y020083D01*
X030831Y020083D01*
X031331Y020083D01*
X031331Y020083D01*
X031831Y020083D01*
X031831Y020290D01*
X031561Y020560D01*
X033541Y020560D01*
X034131Y019970D01*
X033855Y020085D01*
X033557Y020085D01*
X033280Y019970D01*
X033081Y019771D01*
X032881Y019970D01*
X032605Y020085D01*
X032307Y020085D01*
X032030Y019970D01*
X031819Y019759D01*
X031705Y019483D01*
X031705Y019184D01*
X031819Y018908D01*
X032030Y018697D01*
X032147Y018648D01*
X031838Y018339D01*
X031838Y017827D01*
X031938Y017727D01*
X031938Y017355D01*
X031898Y017315D01*
X031898Y016852D01*
X032167Y016583D01*
X031898Y016315D01*
X031898Y015852D01*
X031938Y015812D01*
X031938Y015355D01*
X031968Y015283D01*
X031968Y014377D01*
X031903Y014312D01*
X031903Y013854D01*
X031968Y013789D01*
X031968Y013786D01*
X031554Y013372D01*
X031417Y013235D01*
X031343Y013055D01*
X031343Y012328D01*
X031313Y012298D01*
X031313Y012268D01*
X031063Y012518D01*
X030831Y012518D01*
X030831Y011958D01*
X030831Y011398D01*
X031063Y011398D01*
X031343Y011678D01*
X031343Y010760D01*
X031318Y010735D01*
X031055Y010998D01*
X030831Y010998D01*
X030831Y010458D01*
X030831Y009918D01*
X031055Y009918D01*
X031318Y010182D01*
X031343Y010157D01*
X031343Y009036D01*
X028129Y005821D01*
X025276Y005821D01*
X025456Y006001D01*
X025456Y006208D01*
X024956Y006208D01*
X024956Y006208D01*
X024456Y006208D01*
X024456Y006001D01*
X024636Y005821D01*
X023283Y005821D01*
X022944Y006161D01*
X022944Y006856D01*
X022956Y006868D01*
X023210Y006614D01*
X023702Y006614D01*
X023808Y006720D01*
X024711Y006720D01*
X024736Y006696D01*
X024456Y006415D01*
X024456Y006208D01*
X024956Y006208D01*
X024956Y006208D01*
X025456Y006208D01*
X025456Y006415D01*
X025176Y006696D01*
X025201Y006720D01*
X025695Y006720D01*
X025825Y006590D01*
X026337Y006590D01*
X026699Y006952D01*
X026699Y007464D01*
X026478Y007685D01*
X026785Y007685D01*
X026931Y007746D01*
X026819Y007634D01*
X026705Y007358D01*
X026705Y007059D01*
X026819Y006783D01*
X027030Y006572D01*
X027307Y006457D01*
X027605Y006457D01*
X027881Y006572D01*
X028093Y006783D01*
X028207Y007059D01*
X028207Y007358D01*
X028093Y007634D01*
X027881Y007845D01*
X027605Y007960D01*
X027307Y007960D01*
X027031Y007845D01*
X028681Y009496D01*
X028793Y009608D01*
X028854Y009754D01*
X028854Y016663D01*
X028793Y016809D01*
X028306Y017296D01*
X028160Y017356D01*
X025877Y017356D01*
X025730Y017296D01*
X025618Y017184D01*
X025368Y016934D01*
X025308Y016788D01*
X025308Y016168D01*
X025206Y016066D01*
X024921Y016351D01*
X024491Y016351D01*
X024206Y016066D01*
X023921Y016351D01*
X023491Y016351D01*
X023206Y016066D01*
X022921Y016351D01*
X022491Y016351D01*
X022193Y016053D01*
X021913Y016333D01*
X021706Y016333D01*
X021706Y015833D01*
X021706Y015333D01*
X021913Y015333D01*
X021983Y015403D01*
X021983Y014918D01*
X021863Y014798D01*
X021863Y014369D01*
X021983Y014249D01*
X021983Y014173D01*
X021536Y013726D01*
X021366Y013726D01*
X021063Y013423D01*
X021063Y012994D01*
X021366Y012690D01*
X021796Y012690D01*
X022094Y012988D01*
X022374Y012708D01*
X022581Y012708D01*
X022788Y012708D01*
X023018Y012939D01*
X023249Y012708D01*
X023456Y012708D01*
X023663Y012708D01*
X023943Y012988D01*
X024241Y012690D01*
X024671Y012690D01*
X024974Y012994D01*
X024974Y013423D01*
X024679Y013718D01*
X024679Y014249D01*
X024799Y014369D01*
X024799Y014798D01*
X024496Y015101D01*
X024376Y015101D01*
X024104Y015373D01*
X024104Y015499D01*
X024206Y015601D01*
X024308Y015499D01*
X024308Y015379D01*
X024368Y015233D01*
X024480Y015121D01*
X025558Y014043D01*
X025558Y013373D01*
X024791Y012606D01*
X023002Y012606D01*
X022855Y012546D01*
X022743Y012434D01*
X020916Y010606D01*
X019377Y010606D01*
X019230Y010546D01*
X019118Y010434D01*
X018618Y009934D01*
X018558Y009788D01*
X018558Y009651D01*
X018456Y009549D01*
X018202Y009803D01*
X017710Y009803D01*
X017443Y009536D01*
X017195Y009785D01*
X016956Y009785D01*
X016717Y009785D01*
X016380Y009447D01*
X016380Y009208D01*
X016380Y008970D01*
X016578Y008771D01*
X015244Y008771D01*
X015147Y008731D01*
X015127Y008731D01*
X014980Y008671D01*
X014868Y008559D01*
X014820Y008442D01*
X014774Y008396D01*
X012751Y008396D01*
X012676Y008471D01*
X012956Y008751D01*
X012956Y008958D01*
X012456Y008958D01*
X012456Y008958D01*
X011956Y008958D01*
X011956Y008751D01*
X012236Y008471D01*
X012121Y008356D01*
X009996Y008356D01*
X008979Y009373D01*
X008979Y011293D01*
X009046Y011360D01*
X009046Y011333D01*
X009046Y011112D01*
X009359Y010798D01*
X009581Y010798D01*
X009803Y010798D01*
X010116Y011112D01*
X010116Y011333D01*
X009581Y011333D01*
X009581Y010798D01*
X009581Y011333D01*
X009581Y011333D01*
X009581Y011333D01*
X009046Y011333D01*
X009581Y011333D01*
X009581Y011333D01*
X010116Y011333D01*
X010116Y011555D01*
X009850Y011821D01*
X009965Y011935D01*
X011371Y011935D01*
X011486Y011821D01*
X011206Y011540D01*
X011206Y011333D01*
X011206Y011126D01*
X011499Y010833D01*
X011706Y010833D01*
X011913Y010833D01*
X012206Y011126D01*
X012206Y011333D01*
X011706Y011333D01*
X011706Y010833D01*
X011706Y011333D01*
X011706Y011333D01*
X011706Y011333D01*
X011206Y011333D01*
X011706Y011333D01*
X011706Y011333D01*
X012206Y011333D01*
X012206Y011540D01*
X011926Y011821D01*
X012041Y011935D01*
X012440Y011935D01*
X012600Y011775D01*
X013062Y011775D01*
X013222Y011935D01*
X013440Y011935D01*
X013600Y011775D01*
X014062Y011775D01*
X014222Y011935D01*
X014440Y011935D01*
X014600Y011775D01*
X015062Y011775D01*
X015222Y011935D01*
X015440Y011935D01*
X015600Y011775D01*
X016062Y011775D01*
X016222Y011935D01*
X016440Y011935D01*
X016600Y011775D01*
X017062Y011775D01*
X017222Y011935D01*
X019746Y011935D01*
X019861Y011821D01*
X019581Y011540D01*
X019581Y011333D01*
X019581Y011126D01*
X019874Y010833D01*
X020081Y010833D01*
X020288Y010833D01*
X020581Y011126D01*
X020581Y011333D01*
X020081Y011333D01*
X020081Y010833D01*
X020081Y011333D01*
X020081Y011333D01*
X020081Y011333D01*
X019581Y011333D01*
X020081Y011333D01*
X020081Y011333D01*
X020581Y011333D01*
X020581Y011540D01*
X020301Y011821D01*
X020599Y012119D01*
X020599Y012548D01*
X020296Y012851D01*
X019866Y012851D01*
X019746Y012731D01*
X017222Y012731D01*
X017062Y012891D01*
X016600Y012891D01*
X016440Y012731D01*
X016222Y012731D01*
X016062Y012891D01*
X015600Y012891D01*
X015440Y012731D01*
X015222Y012731D01*
X015062Y012891D01*
X014600Y012891D01*
X014440Y012731D01*
X014222Y012731D01*
X014062Y012891D01*
X013600Y012891D01*
X013440Y012731D01*
X013222Y012731D01*
X013062Y012891D01*
X012600Y012891D01*
X012440Y012731D01*
X012041Y012731D01*
X011921Y012851D01*
X011491Y012851D01*
X011371Y012731D01*
X009965Y012731D01*
X009810Y012886D01*
X009352Y012886D01*
X009322Y012856D01*
X007371Y012856D01*
X007059Y013168D01*
X007206Y013168D01*
X007430Y013168D01*
X007746Y013485D01*
X007746Y013708D01*
X007206Y013708D01*
X007206Y013168D01*
X007206Y013708D01*
X007206Y013708D01*
X007206Y013708D01*
X007746Y013708D01*
X007746Y013932D01*
X007482Y014196D01*
X007683Y014396D01*
X007683Y014379D01*
X007743Y014233D01*
X008743Y013233D01*
X008855Y013121D01*
X009002Y013060D01*
X011410Y013060D01*
X011556Y013121D01*
X011626Y013190D01*
X011796Y013190D01*
X012094Y013488D01*
X012374Y013208D01*
X012581Y013208D01*
X012788Y013208D01*
X013081Y013501D01*
X013081Y013708D01*
X012581Y013708D01*
X012581Y013208D01*
X012581Y013708D01*
X012581Y013708D01*
X012581Y013708D01*
X013081Y013708D01*
X013081Y013915D01*
X012788Y014208D01*
X012581Y014208D01*
X012581Y013708D01*
X012581Y013708D01*
X012581Y014208D01*
X012374Y014208D01*
X012094Y013928D01*
X011796Y014226D01*
X011366Y014226D01*
X011063Y013923D01*
X011063Y013856D01*
X009246Y013856D01*
X008541Y014561D01*
X008599Y014619D01*
X008599Y015048D01*
X008479Y015168D01*
X008479Y015788D01*
X008418Y015934D01*
X008306Y016046D01*
X008160Y016106D01*
X007597Y016106D01*
X007495Y016208D01*
X007764Y016477D01*
X007764Y016940D01*
X007495Y017208D01*
X007764Y017477D01*
X007764Y017940D01*
X007495Y018208D01*
X007597Y018310D01*
X008246Y018310D01*
X008366Y018190D01*
X008796Y018190D01*
X009081Y018476D01*
X009366Y018190D01*
X009796Y018190D01*
X009916Y018310D01*
X010508Y018310D01*
X010508Y018195D01*
X010764Y017938D01*
X010764Y016353D01*
X010508Y016097D01*
X010508Y015635D01*
X010683Y015460D01*
X010683Y015168D01*
X010563Y015048D01*
X010563Y014619D01*
X010866Y014315D01*
X011296Y014315D01*
X011599Y014619D01*
X011599Y015048D01*
X011479Y015168D01*
X011479Y015358D01*
X011494Y015358D01*
X012118Y014733D01*
X012230Y014621D01*
X012377Y014560D01*
X014660Y014560D01*
X014806Y014621D01*
X014918Y014733D01*
X014931Y014746D01*
X014931Y014746D01*
X015043Y014858D01*
X015104Y015004D01*
X015104Y015499D01*
X015206Y015601D01*
X015491Y015315D01*
X015921Y015315D01*
X016206Y015601D01*
X016491Y015315D01*
X016625Y015315D01*
X016493Y015184D01*
X016477Y015143D01*
X016273Y014940D01*
X016273Y014477D01*
X016600Y014150D01*
X017062Y014150D01*
X017331Y014419D01*
X017600Y014150D01*
X018062Y014150D01*
X018389Y014477D01*
X018389Y014940D01*
X018382Y014946D01*
X018751Y015315D01*
X018921Y015315D01*
X019206Y015601D01*
X019491Y015315D01*
X019921Y015315D01*
X020206Y015601D01*
X020491Y015315D01*
X020921Y015315D01*
X021101Y015496D01*
X021154Y015496D01*
X021245Y015587D01*
X021499Y015333D01*
X021706Y015333D01*
X021706Y015833D01*
X021706Y015833D01*
X021706Y015833D01*
X021706Y016333D01*
X021499Y016333D01*
X021293Y016128D01*
X021293Y016281D01*
X021154Y016421D01*
X020508Y016421D01*
X020368Y016281D01*
X020368Y016229D01*
X020206Y016066D01*
X019921Y016351D01*
X019491Y016351D01*
X019206Y016066D01*
X018921Y016351D01*
X018491Y016351D01*
X018206Y016066D01*
X017921Y016351D01*
X017491Y016351D01*
X017206Y016066D01*
X016921Y016351D01*
X016491Y016351D01*
X016206Y016066D01*
X015921Y016351D01*
X015491Y016351D01*
X015206Y016066D01*
X014921Y016351D01*
X014491Y016351D01*
X014188Y016048D01*
X014188Y015619D01*
X014308Y015499D01*
X014308Y015356D01*
X013100Y015356D01*
X013386Y015642D01*
X013386Y015866D01*
X013386Y016090D01*
X013070Y016406D01*
X012846Y016406D01*
X012846Y015866D01*
X012846Y015866D01*
X012846Y016406D01*
X012622Y016406D01*
X012306Y016090D01*
X012306Y015866D01*
X012846Y015866D01*
X013386Y015866D01*
X012846Y015866D01*
X012846Y015866D01*
X012846Y015866D01*
X012306Y015866D01*
X012306Y015671D01*
X011884Y016093D01*
X011738Y016154D01*
X011567Y016154D01*
X011398Y016323D01*
X011398Y017968D01*
X011624Y018195D01*
X011624Y018657D01*
X011297Y018984D01*
X011071Y018984D01*
X011009Y019046D01*
X010863Y019106D01*
X009916Y019106D01*
X009796Y019226D01*
X009366Y019226D01*
X009081Y018941D01*
X008796Y019226D01*
X008366Y019226D01*
X008246Y019106D01*
X007597Y019106D01*
X007437Y019266D01*
X006975Y019266D01*
X006648Y018940D01*
X006648Y018477D01*
X006917Y018208D01*
X006648Y017940D01*
X006648Y017477D01*
X006917Y017208D01*
X006648Y016940D01*
X006648Y016477D01*
X006917Y016208D01*
X006815Y016106D01*
X006502Y016106D01*
X006355Y016046D01*
X006243Y015934D01*
X006118Y015809D01*
X006058Y015663D01*
X006058Y013129D01*
X006118Y012983D01*
X006230Y012871D01*
X006980Y012121D01*
X007127Y012060D01*
X008620Y012060D01*
X008243Y011684D01*
X008183Y011538D01*
X008183Y009129D01*
X008243Y008983D01*
X008355Y008871D01*
X009605Y007621D01*
X009752Y007560D01*
X012121Y007560D01*
X012241Y007440D01*
X012671Y007440D01*
X012751Y007520D01*
X015043Y007520D01*
X015204Y007587D01*
X015512Y007895D01*
X019543Y007895D01*
X019704Y007962D01*
X019827Y008085D01*
X020327Y008585D01*
X020394Y008746D01*
X020394Y008806D01*
X020456Y008868D01*
X020710Y008614D01*
X021202Y008614D01*
X021456Y008868D01*
X021710Y008614D01*
X022202Y008614D01*
X022456Y008868D01*
X022710Y008614D01*
X023202Y008614D01*
X023469Y008881D01*
X023717Y008632D01*
X023956Y008632D01*
X024195Y008632D01*
X024532Y008970D01*
X024532Y009208D01*
X023956Y009208D01*
X023956Y008632D01*
X023956Y009208D01*
X023956Y009208D01*
X023956Y009208D01*
X024532Y009208D01*
X024532Y009447D01*
X024259Y009720D01*
X026086Y009720D01*
X026111Y009696D01*
X025831Y009415D01*
X025831Y009208D01*
X025831Y009001D01*
X026124Y008708D01*
X026331Y008708D01*
X026538Y008708D01*
X026831Y009001D01*
X026831Y009208D01*
X026331Y009208D01*
X026331Y008708D01*
X026331Y009208D01*
X026331Y009208D01*
X026331Y009208D01*
X025831Y009208D01*
X026331Y009208D01*
X026331Y009208D01*
X026831Y009208D01*
X026831Y009415D01*
X026551Y009696D01*
X026576Y009720D01*
X026945Y009720D01*
X027075Y009590D01*
X027587Y009590D01*
X027949Y009952D01*
X027949Y010464D01*
X027640Y010773D01*
X027756Y010822D01*
X027968Y011033D01*
X028058Y011250D01*
X028058Y009998D01*
X026541Y008481D01*
X022002Y008481D01*
X021855Y008421D01*
X021743Y008309D01*
X021237Y007803D01*
X021210Y007803D01*
X020943Y007536D01*
X020695Y007785D01*
X020456Y007785D01*
X020217Y007785D01*
X019969Y007536D01*
X019702Y007803D01*
X019210Y007803D01*
X018956Y007549D01*
X018702Y007803D01*
X018210Y007803D01*
X017956Y007549D01*
X017702Y007803D01*
X017210Y007803D01*
X016862Y007455D01*
X016862Y006962D01*
X017210Y006614D01*
X017702Y006614D01*
X017956Y006868D01*
X018210Y006614D01*
X018702Y006614D01*
X018956Y006868D01*
X019058Y006766D01*
X019058Y004504D01*
X019118Y004358D01*
X019230Y004246D01*
X019230Y004246D01*
X019730Y003746D01*
X019877Y003685D01*
X032910Y003685D01*
X033056Y003746D01*
X033168Y003858D01*
X033168Y003858D01*
X033451Y004141D02*
X035086Y004141D01*
X035155Y004072D02*
X035432Y003957D01*
X035730Y003957D01*
X036006Y004072D01*
X036218Y004283D01*
X036332Y004559D01*
X036332Y004858D01*
X036218Y005134D01*
X036006Y005345D01*
X035730Y005460D01*
X035432Y005460D01*
X035155Y005345D01*
X034944Y005134D01*
X034830Y004858D01*
X034830Y004559D01*
X034944Y004283D01*
X035155Y004072D01*
X034904Y004379D02*
X033690Y004379D01*
X033928Y004618D02*
X034830Y004618D01*
X034830Y004856D02*
X034167Y004856D01*
X034405Y005095D02*
X034928Y005095D01*
X035144Y005333D02*
X034644Y005333D01*
X034882Y005572D02*
X036345Y005572D01*
X036346Y005810D02*
X035121Y005810D01*
X035359Y006049D02*
X036348Y006049D01*
X036349Y006287D02*
X035566Y006287D01*
X035604Y006526D02*
X036351Y006526D01*
X036353Y006764D02*
X035604Y006764D01*
X035604Y007003D02*
X036354Y007003D01*
X036356Y007241D02*
X035604Y007241D01*
X035604Y007480D02*
X036358Y007480D01*
X036359Y007718D02*
X035604Y007718D01*
X035604Y007957D02*
X036361Y007957D01*
X036363Y008195D02*
X035604Y008195D01*
X035604Y008434D02*
X036364Y008434D01*
X036366Y008672D02*
X035604Y008672D01*
X035604Y008911D02*
X036367Y008911D01*
X036369Y009149D02*
X035604Y009149D01*
X035604Y009388D02*
X036371Y009388D01*
X036372Y009626D02*
X035604Y009626D01*
X035604Y009865D02*
X036374Y009865D01*
X036376Y010103D02*
X035604Y010103D01*
X035604Y010342D02*
X036377Y010342D01*
X036379Y010580D02*
X035604Y010580D01*
X035604Y010819D02*
X036381Y010819D01*
X036381Y011057D02*
X035604Y011057D01*
X035604Y011296D02*
X036381Y011296D01*
X036381Y011534D02*
X035604Y011534D01*
X035604Y011773D02*
X036381Y011773D01*
X036381Y012011D02*
X035604Y012011D01*
X035604Y012250D02*
X036381Y012250D01*
X036381Y012488D02*
X035604Y012488D01*
X035604Y012727D02*
X036381Y012727D01*
X036381Y012965D02*
X035604Y012965D01*
X035604Y013204D02*
X036381Y013204D01*
X036381Y013442D02*
X035604Y013442D01*
X035604Y013681D02*
X036381Y013681D01*
X036381Y013919D02*
X035604Y013919D01*
X035604Y014158D02*
X036381Y014158D01*
X036381Y014396D02*
X035604Y014396D01*
X035604Y014635D02*
X036381Y014635D01*
X036381Y014873D02*
X035604Y014873D01*
X035604Y015112D02*
X036381Y015112D01*
X036381Y015350D02*
X035604Y015350D01*
X035604Y015589D02*
X036381Y015589D01*
X036381Y015827D02*
X035604Y015827D01*
X035604Y016066D02*
X036381Y016066D01*
X036381Y016304D02*
X035604Y016304D01*
X035604Y016543D02*
X036381Y016543D01*
X036381Y016781D02*
X035604Y016781D01*
X035604Y017020D02*
X036381Y017020D01*
X036381Y017258D02*
X035604Y017258D01*
X035604Y017497D02*
X036381Y017497D01*
X036381Y017735D02*
X035604Y017735D01*
X035604Y017974D02*
X036381Y017974D01*
X036381Y018212D02*
X035604Y018212D01*
X035604Y018451D02*
X036381Y018451D01*
X036381Y018689D02*
X035604Y018689D01*
X035604Y018928D02*
X036381Y018928D01*
X036381Y019166D02*
X035604Y019166D01*
X035604Y019405D02*
X036381Y019405D01*
X036381Y019643D02*
X035560Y019643D01*
X035345Y019882D02*
X036381Y019882D01*
X036381Y020120D02*
X035107Y020120D01*
X035155Y020447D02*
X035432Y020332D01*
X035730Y020332D01*
X036006Y020447D01*
X036218Y020658D01*
X036332Y020934D01*
X036332Y021233D01*
X036218Y021509D01*
X036006Y021720D01*
X035730Y021835D01*
X035432Y021835D01*
X035155Y021720D01*
X034944Y021509D01*
X034830Y021233D01*
X034830Y020934D01*
X034944Y020658D01*
X035155Y020447D01*
X035005Y020597D02*
X034630Y020597D01*
X034868Y020359D02*
X035367Y020359D01*
X035795Y020359D02*
X036381Y020359D01*
X036381Y020597D02*
X036157Y020597D01*
X036292Y020836D02*
X036381Y020836D01*
X036381Y021074D02*
X036332Y021074D01*
X036299Y021313D02*
X036381Y021313D01*
X036381Y021551D02*
X036175Y021551D01*
X036381Y021790D02*
X035838Y021790D01*
X035324Y021790D02*
X006031Y021790D01*
X006031Y021551D02*
X006612Y021551D01*
X006655Y021595D02*
X006444Y021384D01*
X006330Y021108D01*
X006330Y020809D01*
X006444Y020533D01*
X006655Y020322D01*
X006932Y020207D01*
X007230Y020207D01*
X007506Y020322D01*
X007718Y020533D01*
X007832Y020809D01*
X007832Y021108D01*
X007718Y021384D01*
X007506Y021595D01*
X007230Y021710D01*
X006932Y021710D01*
X006655Y021595D01*
X006415Y021313D02*
X006031Y021313D01*
X006031Y021074D02*
X006330Y021074D01*
X006330Y020836D02*
X006031Y020836D01*
X006031Y020597D02*
X006417Y020597D01*
X006618Y020359D02*
X006031Y020359D01*
X006031Y020120D02*
X012773Y020120D01*
X012773Y019977D02*
X013100Y019650D01*
X013326Y019650D01*
X014188Y018788D01*
X014188Y018619D01*
X014491Y018315D01*
X014921Y018315D01*
X015206Y018601D01*
X015491Y018315D01*
X015921Y018315D01*
X016206Y018601D01*
X016491Y018315D01*
X016921Y018315D01*
X017206Y018601D01*
X017491Y018315D01*
X017921Y018315D01*
X018206Y018601D01*
X018491Y018315D01*
X018921Y018315D01*
X019206Y018601D01*
X019491Y018315D01*
X019921Y018315D01*
X020219Y018613D01*
X020499Y018333D01*
X020706Y018333D01*
X020706Y018833D01*
X020706Y018833D01*
X020706Y018833D01*
X020706Y019333D01*
X020499Y019333D01*
X020219Y019053D01*
X019921Y019351D01*
X019751Y019351D01*
X018889Y020213D01*
X018889Y020440D01*
X018562Y020766D01*
X018100Y020766D01*
X017831Y020498D01*
X017562Y020766D01*
X017100Y020766D01*
X016831Y020498D01*
X016562Y020766D01*
X016100Y020766D01*
X015831Y020498D01*
X015562Y020766D01*
X015100Y020766D01*
X014831Y020498D01*
X014562Y020766D01*
X014100Y020766D01*
X013831Y020498D01*
X013562Y020766D01*
X013100Y020766D01*
X012773Y020440D01*
X012773Y019977D01*
X012868Y019882D02*
X006031Y019882D01*
X006031Y019643D02*
X013333Y019643D01*
X013571Y019405D02*
X006031Y019405D01*
X006031Y019166D02*
X006875Y019166D01*
X006648Y018928D02*
X006031Y018928D01*
X006031Y018689D02*
X006648Y018689D01*
X006674Y018451D02*
X006031Y018451D01*
X006031Y018212D02*
X006913Y018212D01*
X006682Y017974D02*
X006031Y017974D01*
X006031Y017735D02*
X006648Y017735D01*
X006648Y017497D02*
X006031Y017497D01*
X006031Y017258D02*
X006867Y017258D01*
X006728Y017020D02*
X006031Y017020D01*
X006031Y016781D02*
X006648Y016781D01*
X006648Y016543D02*
X006031Y016543D01*
X006031Y016304D02*
X006821Y016304D01*
X006404Y016066D02*
X006031Y016066D01*
X006031Y015827D02*
X006137Y015827D01*
X006058Y015589D02*
X006031Y015589D01*
X006031Y015350D02*
X006058Y015350D01*
X006058Y015112D02*
X006031Y015112D01*
X006031Y014873D02*
X006058Y014873D01*
X006058Y014635D02*
X006031Y014635D01*
X006031Y014396D02*
X006058Y014396D01*
X006058Y014158D02*
X006031Y014158D01*
X006031Y013919D02*
X006058Y013919D01*
X006058Y013681D02*
X006031Y013681D01*
X006031Y013442D02*
X006058Y013442D01*
X006058Y013204D02*
X006031Y013204D01*
X006031Y012965D02*
X006136Y012965D01*
X006031Y012727D02*
X006374Y012727D01*
X006613Y012488D02*
X006031Y012488D01*
X006031Y012250D02*
X006851Y012250D01*
X007262Y012965D02*
X021091Y012965D01*
X021063Y013204D02*
X011809Y013204D01*
X012048Y013442D02*
X012140Y013442D01*
X012581Y013442D02*
X012581Y013442D01*
X012581Y013681D02*
X012581Y013681D01*
X012581Y013919D02*
X012581Y013919D01*
X012581Y014158D02*
X012581Y014158D01*
X012839Y014158D02*
X016592Y014158D01*
X016354Y014396D02*
X011377Y014396D01*
X011298Y014158D02*
X008944Y014158D01*
X008706Y014396D02*
X010785Y014396D01*
X010563Y014635D02*
X008599Y014635D01*
X008599Y014873D02*
X010563Y014873D01*
X010627Y015112D02*
X008535Y015112D01*
X008479Y015350D02*
X010683Y015350D01*
X010554Y015589D02*
X008479Y015589D01*
X008463Y015827D02*
X010508Y015827D01*
X010508Y016066D02*
X008258Y016066D01*
X007764Y016543D02*
X010764Y016543D01*
X010764Y016781D02*
X007764Y016781D01*
X007684Y017020D02*
X010764Y017020D01*
X010764Y017258D02*
X007545Y017258D01*
X007764Y017497D02*
X010764Y017497D01*
X010764Y017735D02*
X007764Y017735D01*
X007730Y017974D02*
X010729Y017974D01*
X010508Y018212D02*
X009818Y018212D01*
X009344Y018212D02*
X008818Y018212D01*
X009056Y018451D02*
X009106Y018451D01*
X008344Y018212D02*
X007499Y018212D01*
X007537Y019166D02*
X008306Y019166D01*
X008856Y019166D02*
X009306Y019166D01*
X009856Y019166D02*
X013810Y019166D01*
X014048Y018928D02*
X013108Y018928D01*
X013070Y018966D02*
X012846Y018966D01*
X012846Y018426D01*
X012846Y018426D01*
X012846Y018966D01*
X012622Y018966D01*
X012306Y018650D01*
X012306Y018426D01*
X012846Y018426D01*
X013386Y018426D01*
X013386Y018650D01*
X013070Y018966D01*
X012846Y018928D02*
X012846Y018928D01*
X012846Y018689D02*
X012846Y018689D01*
X012846Y018451D02*
X012846Y018451D01*
X012846Y018426D02*
X012846Y018426D01*
X012846Y018426D01*
X013386Y018426D01*
X013386Y018202D01*
X013070Y017886D01*
X012846Y017886D01*
X012846Y018426D01*
X012306Y018426D01*
X012306Y018202D01*
X012622Y017886D01*
X012846Y017886D01*
X012846Y018426D01*
X012846Y018426D01*
X012846Y018212D02*
X012846Y018212D01*
X012846Y017974D02*
X012846Y017974D01*
X013158Y017974D02*
X029116Y017974D01*
X029076Y017934D02*
X029015Y017788D01*
X029015Y017629D01*
X029070Y017496D01*
X029070Y017319D01*
X029190Y017199D01*
X029190Y016426D01*
X029063Y016298D01*
X029063Y015869D01*
X029183Y015749D01*
X029183Y014342D01*
X029028Y014187D01*
X029028Y013729D01*
X029183Y013574D01*
X029183Y012754D01*
X029243Y012608D01*
X029433Y012418D01*
X029433Y012378D01*
X029253Y012198D01*
X029253Y011719D01*
X029433Y011539D01*
X029433Y010850D01*
X029273Y010690D01*
X029273Y010227D01*
X029600Y009900D01*
X030062Y009900D01*
X030344Y010182D01*
X030607Y009918D01*
X030831Y009918D01*
X030831Y010458D01*
X030831Y010458D01*
X030831Y010458D01*
X030831Y010998D01*
X030607Y010998D01*
X030344Y010735D01*
X030229Y010850D01*
X030229Y011043D01*
X030293Y011108D01*
X030354Y011254D01*
X030354Y011643D01*
X030599Y011398D01*
X030831Y011398D01*
X030831Y011958D01*
X030831Y011958D01*
X030831Y011958D01*
X030831Y012518D01*
X030599Y012518D01*
X030344Y012263D01*
X030229Y012378D01*
X030229Y012663D01*
X030168Y012809D01*
X029979Y012998D01*
X029979Y013574D01*
X030094Y013689D01*
X030359Y013423D01*
X030581Y013423D01*
X030803Y013423D01*
X031116Y013737D01*
X031116Y013958D01*
X030581Y013958D01*
X030581Y013423D01*
X030581Y013958D01*
X030581Y013958D01*
X030581Y013958D01*
X031116Y013958D01*
X031116Y014180D01*
X030803Y014493D01*
X030581Y014493D01*
X030581Y013958D01*
X030581Y013958D01*
X030581Y014493D01*
X030359Y014493D01*
X030094Y014228D01*
X029979Y014342D01*
X029979Y015749D01*
X030094Y015863D01*
X030374Y015583D01*
X030581Y015583D01*
X030788Y015583D01*
X031081Y015876D01*
X031081Y016083D01*
X030581Y016083D01*
X030581Y015583D01*
X030581Y016083D01*
X030581Y016083D01*
X030581Y016083D01*
X031081Y016083D01*
X031081Y016290D01*
X030788Y016583D01*
X030581Y016583D01*
X030581Y016083D01*
X030581Y016083D01*
X030581Y016583D01*
X030374Y016583D01*
X030094Y016303D01*
X029987Y016410D01*
X029987Y017199D01*
X030089Y017301D01*
X030374Y017015D01*
X030772Y017015D01*
X030813Y016983D01*
X030813Y016869D01*
X031116Y016565D01*
X031546Y016565D01*
X031849Y016869D01*
X031849Y017298D01*
X031546Y017601D01*
X031315Y017601D01*
X031031Y017824D01*
X030803Y018051D01*
X030374Y018051D01*
X030089Y017766D01*
X029803Y018051D01*
X029626Y018051D01*
X029493Y018106D01*
X029334Y018106D01*
X029188Y018046D01*
X029076Y017934D01*
X029015Y017735D02*
X011398Y017735D01*
X011398Y017497D02*
X029070Y017497D01*
X029131Y017258D02*
X028344Y017258D01*
X028582Y017020D02*
X029190Y017020D01*
X029190Y016781D02*
X028805Y016781D01*
X028854Y016543D02*
X029190Y016543D01*
X029069Y016304D02*
X028854Y016304D01*
X028854Y016066D02*
X029063Y016066D01*
X029104Y015827D02*
X028854Y015827D01*
X028854Y015589D02*
X029183Y015589D01*
X029183Y015350D02*
X028854Y015350D01*
X028854Y015112D02*
X029183Y015112D01*
X029183Y014873D02*
X028854Y014873D01*
X028854Y014635D02*
X029183Y014635D01*
X029183Y014396D02*
X028854Y014396D01*
X028854Y014158D02*
X029028Y014158D01*
X029028Y013919D02*
X028854Y013919D01*
X028854Y013681D02*
X029076Y013681D01*
X029183Y013442D02*
X028854Y013442D01*
X028854Y013204D02*
X029183Y013204D01*
X029183Y012965D02*
X028854Y012965D01*
X028854Y012727D02*
X029194Y012727D01*
X029363Y012488D02*
X028854Y012488D01*
X028854Y012250D02*
X029305Y012250D01*
X029253Y012011D02*
X028854Y012011D01*
X028854Y011773D02*
X029253Y011773D01*
X029433Y011534D02*
X028854Y011534D01*
X028854Y011296D02*
X029433Y011296D01*
X029433Y011057D02*
X028854Y011057D01*
X028854Y010819D02*
X029402Y010819D01*
X029273Y010580D02*
X028854Y010580D01*
X028854Y010342D02*
X029273Y010342D01*
X029397Y010103D02*
X028854Y010103D01*
X028854Y009865D02*
X031343Y009865D01*
X031343Y010103D02*
X031240Y010103D01*
X031343Y009626D02*
X028801Y009626D01*
X028573Y009388D02*
X031343Y009388D01*
X031343Y009149D02*
X028335Y009149D01*
X028096Y008911D02*
X031218Y008911D01*
X030980Y008672D02*
X027858Y008672D01*
X027619Y008434D02*
X030741Y008434D01*
X030503Y008195D02*
X027381Y008195D01*
X027300Y007957D02*
X027142Y007957D01*
X026904Y007718D02*
X026865Y007718D01*
X026755Y007480D02*
X026684Y007480D01*
X026699Y007241D02*
X026705Y007241D01*
X026699Y007003D02*
X026728Y007003D01*
X026838Y006764D02*
X026511Y006764D01*
X027141Y006526D02*
X025346Y006526D01*
X025456Y006287D02*
X028595Y006287D01*
X028356Y006049D02*
X025456Y006049D01*
X024456Y006049D02*
X023056Y006049D01*
X022944Y006287D02*
X024456Y006287D01*
X024566Y006526D02*
X022944Y006526D01*
X022944Y006764D02*
X023059Y006764D01*
X021968Y006764D02*
X021852Y006764D01*
X021956Y006868D02*
X021968Y006856D01*
X021968Y005861D01*
X022042Y005682D01*
X022667Y005057D01*
X022804Y004920D01*
X022984Y004845D01*
X028428Y004845D01*
X028607Y004920D01*
X032107Y008420D01*
X032245Y008557D01*
X032319Y008736D01*
X032319Y010157D01*
X032389Y010227D01*
X032389Y010690D01*
X032319Y010760D01*
X032319Y011839D01*
X032344Y011863D01*
X032624Y011583D01*
X032831Y011583D01*
X033038Y011583D01*
X033331Y011876D01*
X033331Y012083D01*
X032831Y012083D01*
X032831Y011583D01*
X032831Y012083D01*
X032831Y012083D01*
X032831Y012083D01*
X033331Y012083D01*
X033331Y012290D01*
X033038Y012583D01*
X032831Y012583D01*
X032831Y012083D01*
X032831Y012083D01*
X032831Y012583D01*
X032624Y012583D01*
X032344Y012303D01*
X032319Y012328D01*
X032319Y012756D01*
X032870Y013307D01*
X032944Y013486D01*
X032944Y013789D01*
X032969Y013814D01*
X033234Y013548D01*
X033456Y013548D01*
X033678Y013548D01*
X033991Y013862D01*
X033991Y014083D01*
X033456Y014083D01*
X033456Y013548D01*
X033456Y014083D01*
X033456Y014083D01*
X033456Y014083D01*
X033991Y014083D01*
X033991Y014305D01*
X033678Y014618D01*
X033456Y014618D01*
X033456Y014083D01*
X033456Y014083D01*
X033456Y014618D01*
X033234Y014618D01*
X032969Y014353D01*
X032944Y014377D01*
X032944Y015283D01*
X032974Y015355D01*
X032974Y015812D01*
X033014Y015852D01*
X033014Y016315D01*
X032745Y016583D01*
X033014Y016852D01*
X033014Y017315D01*
X032974Y017355D01*
X032974Y017727D01*
X033074Y017827D01*
X033074Y018339D01*
X032765Y018648D01*
X032881Y018697D01*
X033081Y018896D01*
X033280Y018697D01*
X033415Y018641D01*
X033106Y018332D01*
X033106Y018093D01*
X033696Y018093D01*
X033696Y018073D01*
X033716Y018073D01*
X033716Y017483D01*
X033954Y017483D01*
X034306Y017835D01*
X034306Y018073D01*
X033716Y018073D01*
X033716Y018093D01*
X034306Y018093D01*
X034306Y018332D01*
X033997Y018641D01*
X034131Y018697D01*
X034343Y018908D01*
X034457Y019184D01*
X034457Y019483D01*
X034343Y019758D01*
X034808Y019293D01*
X034808Y006623D01*
X032666Y004481D01*
X020121Y004481D01*
X019854Y004748D01*
X019854Y006766D01*
X019969Y006881D01*
X020217Y006632D01*
X020456Y006632D01*
X020695Y006632D01*
X020943Y006881D01*
X021210Y006614D01*
X021702Y006614D01*
X021956Y006868D01*
X021968Y006526D02*
X019854Y006526D01*
X019854Y006764D02*
X020085Y006764D01*
X020456Y006764D02*
X020456Y006764D01*
X020456Y006632D02*
X020456Y007208D01*
X020456Y006632D01*
X020827Y006764D02*
X021059Y006764D01*
X020862Y007208D02*
X020456Y007208D01*
X020456Y007208D01*
X020456Y007208D01*
X020050Y007208D01*
X020050Y007208D01*
X020456Y007208D01*
X020456Y007208D01*
X020862Y007208D01*
X020862Y007208D01*
X020456Y007208D02*
X020456Y007208D01*
X020456Y007785D01*
X020456Y007208D01*
X020456Y007241D02*
X020456Y007241D01*
X020456Y007003D02*
X020456Y007003D01*
X020456Y007480D02*
X020456Y007480D01*
X020456Y007718D02*
X020456Y007718D01*
X020761Y007718D02*
X021125Y007718D01*
X021391Y007957D02*
X019692Y007957D01*
X019786Y007718D02*
X020151Y007718D01*
X019938Y008195D02*
X021630Y008195D01*
X021743Y008309D02*
X021743Y008309D01*
X021887Y008434D02*
X020176Y008434D01*
X020363Y008672D02*
X020651Y008672D01*
X021260Y008672D02*
X021651Y008672D01*
X022260Y008672D02*
X022651Y008672D01*
X023260Y008672D02*
X023677Y008672D01*
X023956Y008672D02*
X023956Y008672D01*
X023956Y008911D02*
X023956Y008911D01*
X023956Y009149D02*
X023956Y009149D01*
X024473Y008911D02*
X025921Y008911D01*
X025831Y009149D02*
X024532Y009149D01*
X024532Y009388D02*
X025831Y009388D01*
X026042Y009626D02*
X024353Y009626D01*
X024235Y008672D02*
X026732Y008672D01*
X026741Y008911D02*
X026970Y008911D01*
X026831Y009149D02*
X027209Y009149D01*
X027447Y009388D02*
X026831Y009388D01*
X027039Y009626D02*
X026620Y009626D01*
X026331Y009149D02*
X026331Y009149D01*
X026331Y008911D02*
X026331Y008911D01*
X027623Y009626D02*
X027686Y009626D01*
X027862Y009865D02*
X027924Y009865D01*
X027949Y010103D02*
X028058Y010103D01*
X028058Y010342D02*
X027949Y010342D01*
X028058Y010580D02*
X027833Y010580D01*
X027750Y010819D02*
X028058Y010819D01*
X028058Y011057D02*
X027978Y011057D01*
X030243Y011057D02*
X031343Y011057D01*
X031343Y010819D02*
X031234Y010819D01*
X030831Y010819D02*
X030831Y010819D01*
X030831Y010580D02*
X030831Y010580D01*
X030831Y010342D02*
X030831Y010342D01*
X030831Y010103D02*
X030831Y010103D01*
X030422Y010103D02*
X030265Y010103D01*
X030260Y010819D02*
X030428Y010819D01*
X030354Y011296D02*
X031343Y011296D01*
X031343Y011534D02*
X031199Y011534D01*
X030831Y011534D02*
X030831Y011534D01*
X030831Y011773D02*
X030831Y011773D01*
X030831Y012011D02*
X030831Y012011D01*
X030831Y012250D02*
X030831Y012250D01*
X030831Y012488D02*
X030831Y012488D01*
X031093Y012488D02*
X031343Y012488D01*
X031343Y012727D02*
X030202Y012727D01*
X030229Y012488D02*
X030569Y012488D01*
X030012Y012965D02*
X031343Y012965D01*
X031404Y013204D02*
X029979Y013204D01*
X029979Y013442D02*
X030340Y013442D01*
X030581Y013442D02*
X030581Y013442D01*
X030581Y013681D02*
X030581Y013681D01*
X030581Y013919D02*
X030581Y013919D01*
X030581Y014158D02*
X030581Y014158D01*
X030581Y014396D02*
X030581Y014396D01*
X030900Y014396D02*
X031968Y014396D01*
X031968Y014635D02*
X029979Y014635D01*
X029979Y014873D02*
X031968Y014873D01*
X031968Y015112D02*
X029979Y015112D01*
X029979Y015350D02*
X031940Y015350D01*
X031938Y015589D02*
X030794Y015589D01*
X030581Y015589D02*
X030581Y015589D01*
X030368Y015589D02*
X029979Y015589D01*
X030058Y015827D02*
X030130Y015827D01*
X030581Y015827D02*
X030581Y015827D01*
X030581Y016066D02*
X030581Y016066D01*
X030581Y016304D02*
X030581Y016304D01*
X030581Y016543D02*
X030581Y016543D01*
X030829Y016543D02*
X032126Y016543D01*
X031969Y016781D02*
X031762Y016781D01*
X031849Y017020D02*
X031898Y017020D01*
X031898Y017258D02*
X031849Y017258D01*
X031938Y017497D02*
X031650Y017497D01*
X031930Y017735D02*
X031144Y017735D01*
X030881Y017974D02*
X031838Y017974D01*
X031838Y018212D02*
X013386Y018212D01*
X013386Y018451D02*
X014356Y018451D01*
X014188Y018689D02*
X013346Y018689D01*
X012584Y018928D02*
X011353Y018928D01*
X011592Y018689D02*
X012346Y018689D01*
X012306Y018451D02*
X011624Y018451D01*
X011624Y018212D02*
X012306Y018212D01*
X012534Y017974D02*
X011403Y017974D01*
X011398Y017258D02*
X025693Y017258D01*
X025454Y017020D02*
X011398Y017020D01*
X011398Y016781D02*
X025308Y016781D01*
X025308Y016543D02*
X011398Y016543D01*
X011417Y016304D02*
X012521Y016304D01*
X012306Y016066D02*
X011911Y016066D01*
X012150Y015827D02*
X012306Y015827D01*
X012846Y016066D02*
X012846Y016066D01*
X012846Y016304D02*
X012846Y016304D01*
X013171Y016304D02*
X014444Y016304D01*
X014206Y016066D02*
X013386Y016066D01*
X013386Y015827D02*
X014188Y015827D01*
X014218Y015589D02*
X013333Y015589D01*
X012216Y014635D02*
X011599Y014635D01*
X011599Y014873D02*
X011978Y014873D01*
X011739Y015112D02*
X011535Y015112D01*
X011501Y015350D02*
X011479Y015350D01*
X010715Y016304D02*
X007591Y016304D01*
X007520Y014158D02*
X007818Y014158D01*
X007746Y013919D02*
X008057Y013919D01*
X008295Y013681D02*
X007746Y013681D01*
X007704Y013442D02*
X008534Y013442D01*
X008772Y013204D02*
X007465Y013204D01*
X007206Y013204D02*
X007206Y013204D01*
X007206Y013442D02*
X007206Y013442D01*
X007206Y013681D02*
X007206Y013681D01*
X009183Y013919D02*
X011063Y013919D01*
X011864Y014158D02*
X012323Y014158D01*
X013077Y013919D02*
X021729Y013919D01*
X021967Y014158D02*
X018070Y014158D01*
X018308Y014396D02*
X021863Y014396D01*
X021863Y014635D02*
X018389Y014635D01*
X018389Y014873D02*
X021938Y014873D01*
X021983Y015112D02*
X018547Y015112D01*
X018956Y015350D02*
X019456Y015350D01*
X019218Y015589D02*
X019194Y015589D01*
X019956Y015350D02*
X020456Y015350D01*
X020218Y015589D02*
X020194Y015589D01*
X020956Y015350D02*
X021482Y015350D01*
X021706Y015350D02*
X021706Y015350D01*
X021930Y015350D02*
X021983Y015350D01*
X021706Y015589D02*
X021706Y015589D01*
X021706Y015827D02*
X021706Y015827D01*
X021706Y016066D02*
X021706Y016066D01*
X021706Y016304D02*
X021706Y016304D01*
X021942Y016304D02*
X022444Y016304D01*
X022206Y016066D02*
X022181Y016066D01*
X021470Y016304D02*
X021271Y016304D01*
X020391Y016304D02*
X019968Y016304D01*
X019444Y016304D02*
X018968Y016304D01*
X018444Y016304D02*
X017968Y016304D01*
X017444Y016304D02*
X016968Y016304D01*
X016444Y016304D02*
X015968Y016304D01*
X015444Y016304D02*
X014968Y016304D01*
X015194Y015589D02*
X015218Y015589D01*
X015104Y015350D02*
X015456Y015350D01*
X015104Y015112D02*
X016445Y015112D01*
X016456Y015350D02*
X015956Y015350D01*
X016194Y015589D02*
X016218Y015589D01*
X016273Y014873D02*
X015050Y014873D01*
X014918Y014733D02*
X014918Y014733D01*
X014820Y014635D02*
X016273Y014635D01*
X017070Y014158D02*
X017592Y014158D01*
X017354Y014396D02*
X017308Y014396D01*
X020420Y012727D02*
X021330Y012727D01*
X021832Y012727D02*
X022355Y012727D01*
X022581Y012727D02*
X022581Y012727D01*
X022581Y012708D02*
X022581Y013208D01*
X022581Y012708D01*
X022807Y012727D02*
X023230Y012727D01*
X023456Y012727D02*
X023456Y012727D01*
X023456Y012708D02*
X023456Y013208D01*
X023456Y012708D01*
X023682Y012727D02*
X024205Y012727D01*
X023966Y012965D02*
X023920Y012965D01*
X023456Y012965D02*
X023456Y012965D01*
X023456Y013204D02*
X023456Y013204D01*
X023456Y013208D02*
X023456Y013208D01*
X022581Y013208D01*
X022581Y013208D01*
X022581Y013208D01*
X023081Y013208D01*
X023456Y013208D01*
X023456Y013208D01*
X023456Y013208D01*
X023456Y013708D01*
X023663Y013708D01*
X023883Y013489D01*
X023883Y014249D01*
X023763Y014369D01*
X023763Y014588D01*
X023480Y014871D01*
X023368Y014983D01*
X023308Y015129D01*
X023308Y015499D01*
X023206Y015601D01*
X022921Y015315D01*
X022779Y015315D01*
X022779Y014918D01*
X022899Y014798D01*
X022899Y014369D01*
X022779Y014249D01*
X022779Y013929D01*
X022718Y013783D01*
X022644Y013708D01*
X022788Y013708D01*
X023018Y013478D01*
X023249Y013708D01*
X023456Y013708D01*
X023456Y013208D01*
X023456Y013442D02*
X023456Y013442D01*
X023456Y013681D02*
X023456Y013681D01*
X023691Y013681D02*
X023883Y013681D01*
X023883Y013919D02*
X022775Y013919D01*
X022779Y014158D02*
X023883Y014158D01*
X023763Y014396D02*
X022899Y014396D01*
X022899Y014635D02*
X023716Y014635D01*
X023478Y014873D02*
X022824Y014873D01*
X022779Y015112D02*
X023315Y015112D01*
X023308Y015350D02*
X022956Y015350D01*
X023194Y015589D02*
X023218Y015589D01*
X024127Y015350D02*
X024320Y015350D01*
X024365Y015112D02*
X024489Y015112D01*
X024724Y014873D02*
X024728Y014873D01*
X024799Y014635D02*
X024966Y014635D01*
X024799Y014396D02*
X025205Y014396D01*
X025443Y014158D02*
X024679Y014158D01*
X024679Y013919D02*
X025558Y013919D01*
X025558Y013681D02*
X024716Y013681D01*
X024955Y013442D02*
X025558Y013442D01*
X025388Y013204D02*
X024974Y013204D01*
X024946Y012965D02*
X025150Y012965D01*
X024911Y012727D02*
X024707Y012727D01*
X023221Y013681D02*
X022816Y013681D01*
X022581Y013204D02*
X022581Y013204D01*
X022581Y012965D02*
X022581Y012965D01*
X022117Y012965D02*
X022071Y012965D01*
X022559Y012250D02*
X020599Y012250D01*
X020599Y012488D02*
X022798Y012488D01*
X022321Y012011D02*
X020492Y012011D01*
X020349Y011773D02*
X022082Y011773D01*
X021844Y011534D02*
X020581Y011534D01*
X020581Y011296D02*
X021605Y011296D01*
X021367Y011057D02*
X020512Y011057D01*
X020081Y011057D02*
X020081Y011057D01*
X020081Y011296D02*
X020081Y011296D01*
X019650Y011057D02*
X017371Y011057D01*
X017371Y010985D02*
X017371Y011208D01*
X016831Y011208D01*
X016831Y010668D01*
X017055Y010668D01*
X017371Y010985D01*
X017371Y011208D02*
X017371Y011432D01*
X017055Y011748D01*
X016831Y011748D01*
X016831Y011208D01*
X016831Y011208D01*
X016831Y010668D01*
X016607Y010668D01*
X016331Y010945D01*
X016055Y010668D01*
X015831Y010668D01*
X015831Y011208D01*
X015831Y011208D01*
X015831Y010668D01*
X015607Y010668D01*
X015331Y010945D01*
X015055Y010668D01*
X014831Y010668D01*
X014831Y011208D01*
X014831Y011208D01*
X014831Y010668D01*
X014607Y010668D01*
X014331Y010945D01*
X014055Y010668D01*
X013831Y010668D01*
X013831Y011208D01*
X013831Y011208D01*
X013831Y010668D01*
X013607Y010668D01*
X013331Y010945D01*
X013055Y010668D01*
X012831Y010668D01*
X012831Y011208D01*
X012831Y011208D01*
X012831Y010668D01*
X012607Y010668D01*
X012291Y010985D01*
X012291Y011208D01*
X012831Y011208D01*
X012831Y011208D01*
X013291Y011208D01*
X013831Y011208D01*
X013831Y011208D01*
X014291Y011208D01*
X014831Y011208D01*
X014831Y011208D01*
X015371Y011208D01*
X015831Y011208D01*
X015831Y011208D01*
X016291Y011208D01*
X016831Y011208D01*
X016831Y011208D01*
X016831Y011208D01*
X017371Y011208D01*
X017371Y011296D02*
X019581Y011296D01*
X019581Y011534D02*
X017269Y011534D01*
X016831Y011534D02*
X016831Y011534D01*
X016831Y011748D02*
X016831Y011208D01*
X015831Y011208D01*
X015831Y011208D01*
X014831Y011208D01*
X014831Y011208D01*
X013831Y011208D01*
X013831Y011208D01*
X012831Y011208D01*
X012831Y011208D01*
X012291Y011208D01*
X012291Y011432D01*
X012607Y011748D01*
X012831Y011748D01*
X012831Y011208D01*
X012831Y011208D01*
X012831Y011748D01*
X013055Y011748D01*
X013331Y011472D01*
X013607Y011748D01*
X013831Y011748D01*
X013831Y011208D01*
X013831Y011208D01*
X013831Y011748D01*
X014055Y011748D01*
X014331Y011472D01*
X014607Y011748D01*
X014831Y011748D01*
X014831Y011208D01*
X014831Y011208D01*
X014831Y011748D01*
X015055Y011748D01*
X015331Y011472D01*
X015607Y011748D01*
X015831Y011748D01*
X015831Y011208D01*
X015831Y011208D01*
X015831Y011748D01*
X016055Y011748D01*
X016331Y011472D01*
X016607Y011748D01*
X016831Y011748D01*
X016831Y011296D02*
X016831Y011296D01*
X016831Y011208D02*
X016831Y011208D01*
X016831Y011057D02*
X016831Y011057D01*
X016831Y010819D02*
X016831Y010819D01*
X017205Y010819D02*
X021128Y010819D01*
X019813Y011773D02*
X011974Y011773D01*
X012206Y011534D02*
X012393Y011534D01*
X012291Y011296D02*
X012206Y011296D01*
X012137Y011057D02*
X012291Y011057D01*
X012457Y010819D02*
X009823Y010819D01*
X009581Y010819D02*
X009581Y010819D01*
X009581Y011057D02*
X009581Y011057D01*
X009581Y011296D02*
X009581Y011296D01*
X010116Y011296D02*
X011206Y011296D01*
X011206Y011534D02*
X010116Y011534D01*
X009898Y011773D02*
X011438Y011773D01*
X011706Y011296D02*
X011706Y011296D01*
X011706Y011057D02*
X011706Y011057D01*
X011275Y011057D02*
X010062Y011057D01*
X009339Y010819D02*
X008979Y010819D01*
X008979Y011057D02*
X009100Y011057D01*
X009046Y011296D02*
X008981Y011296D01*
X008183Y011296D02*
X006031Y011296D01*
X006031Y011534D02*
X008183Y011534D01*
X008332Y011773D02*
X006031Y011773D01*
X006031Y012011D02*
X008571Y012011D01*
X008183Y011057D02*
X006031Y011057D01*
X006031Y010819D02*
X008183Y010819D01*
X008183Y010580D02*
X006031Y010580D01*
X006031Y010342D02*
X008183Y010342D01*
X008183Y010103D02*
X006031Y010103D01*
X006031Y009865D02*
X008183Y009865D01*
X008183Y009626D02*
X006031Y009626D01*
X006031Y009388D02*
X008183Y009388D01*
X008183Y009149D02*
X006031Y009149D01*
X006031Y008911D02*
X008315Y008911D01*
X008554Y008672D02*
X006031Y008672D01*
X006031Y008434D02*
X008792Y008434D01*
X009031Y008195D02*
X006031Y008195D01*
X006031Y007957D02*
X009269Y007957D01*
X009508Y007718D02*
X006031Y007718D01*
X006031Y007480D02*
X012202Y007480D01*
X012710Y007480D02*
X016887Y007480D01*
X016862Y007241D02*
X006031Y007241D01*
X006031Y007003D02*
X016862Y007003D01*
X017059Y006764D02*
X016383Y006764D01*
X016474Y006673D02*
X016171Y006976D01*
X015741Y006976D01*
X015438Y006673D01*
X015438Y006244D01*
X015736Y005946D01*
X015456Y005665D01*
X015456Y005458D01*
X015456Y005251D01*
X015749Y004958D01*
X015956Y004958D01*
X016163Y004958D01*
X016456Y005251D01*
X016456Y005458D01*
X015956Y005458D01*
X015956Y004958D01*
X015956Y005458D01*
X015956Y005458D01*
X015956Y005458D01*
X015456Y005458D01*
X015956Y005458D01*
X015956Y005458D01*
X016456Y005458D01*
X016456Y005665D01*
X016176Y005946D01*
X016474Y006244D01*
X016474Y006673D01*
X016474Y006526D02*
X019058Y006526D01*
X019058Y006764D02*
X018852Y006764D01*
X019058Y006287D02*
X016474Y006287D01*
X016279Y006049D02*
X019058Y006049D01*
X019058Y005810D02*
X016311Y005810D01*
X016456Y005572D02*
X019058Y005572D01*
X019058Y005333D02*
X016456Y005333D01*
X016300Y005095D02*
X019058Y005095D01*
X019058Y004856D02*
X008207Y004856D01*
X008207Y004858D02*
X008093Y005134D01*
X007881Y005345D01*
X007605Y005460D01*
X007307Y005460D01*
X007030Y005345D01*
X006819Y005134D01*
X006705Y004858D01*
X006705Y004559D01*
X006819Y004283D01*
X007030Y004072D01*
X007307Y003957D01*
X007605Y003957D01*
X007881Y004072D01*
X008093Y004283D01*
X008207Y004559D01*
X008207Y004858D01*
X008207Y004618D02*
X019058Y004618D01*
X019110Y004379D02*
X008133Y004379D01*
X007951Y004141D02*
X019335Y004141D01*
X019574Y003902D02*
X006031Y003902D01*
X006031Y004141D02*
X006961Y004141D01*
X006779Y004379D02*
X006031Y004379D01*
X006031Y004618D02*
X006705Y004618D01*
X006705Y004856D02*
X006031Y004856D01*
X006031Y005095D02*
X006803Y005095D01*
X007019Y005333D02*
X006031Y005333D01*
X006031Y005572D02*
X008626Y005572D01*
X008580Y005684D02*
X008694Y005408D01*
X008905Y005197D01*
X009182Y005082D01*
X009480Y005082D01*
X009756Y005197D01*
X009968Y005408D01*
X010016Y005524D01*
X010325Y005215D01*
X010837Y005215D01*
X011199Y005577D01*
X011199Y006089D01*
X010837Y006451D01*
X010325Y006451D01*
X010016Y006142D01*
X009968Y006259D01*
X009756Y006470D01*
X009480Y006585D01*
X009182Y006585D01*
X008905Y006470D01*
X008694Y006259D01*
X008580Y005983D01*
X008580Y005684D01*
X008580Y005810D02*
X006031Y005810D01*
X006031Y006049D02*
X008607Y006049D01*
X008723Y006287D02*
X006031Y006287D01*
X006031Y006526D02*
X009040Y006526D01*
X009622Y006526D02*
X015438Y006526D01*
X015438Y006287D02*
X011001Y006287D01*
X011199Y006049D02*
X015633Y006049D01*
X015601Y005810D02*
X011199Y005810D01*
X011194Y005572D02*
X015456Y005572D01*
X015456Y005333D02*
X010955Y005333D01*
X010207Y005333D02*
X009893Y005333D01*
X009511Y005095D02*
X015612Y005095D01*
X015956Y005095D02*
X015956Y005095D01*
X015956Y005333D02*
X015956Y005333D01*
X015529Y006764D02*
X006031Y006764D01*
X007893Y005333D02*
X008769Y005333D01*
X009151Y005095D02*
X008109Y005095D01*
X009939Y006287D02*
X010161Y006287D01*
X009918Y008434D02*
X012199Y008434D01*
X012035Y008672D02*
X009680Y008672D01*
X009780Y008822D02*
X010057Y008707D01*
X010355Y008707D01*
X010631Y008822D01*
X010843Y009033D01*
X010957Y009309D01*
X010957Y009608D01*
X010843Y009884D01*
X010631Y010095D01*
X010355Y010210D01*
X010057Y010210D01*
X009780Y010095D01*
X009569Y009884D01*
X009455Y009608D01*
X009455Y009309D01*
X009569Y009033D01*
X009780Y008822D01*
X009691Y008911D02*
X009441Y008911D01*
X009521Y009149D02*
X009203Y009149D01*
X008979Y009388D02*
X009455Y009388D01*
X009462Y009626D02*
X008979Y009626D01*
X008979Y009865D02*
X009561Y009865D01*
X009800Y010103D02*
X008979Y010103D01*
X008979Y010342D02*
X011215Y010342D01*
X011325Y010451D02*
X010963Y010089D01*
X010963Y009577D01*
X011325Y009215D01*
X011837Y009215D01*
X012199Y009577D01*
X012199Y010089D01*
X011837Y010451D01*
X011325Y010451D01*
X010977Y010103D02*
X010612Y010103D01*
X010851Y009865D02*
X010963Y009865D01*
X010949Y009626D02*
X010963Y009626D01*
X010957Y009388D02*
X011152Y009388D01*
X010891Y009149D02*
X011956Y009149D01*
X011956Y009165D02*
X011956Y008958D01*
X012456Y008958D01*
X012456Y008958D01*
X012956Y008958D01*
X012956Y009165D01*
X012663Y009458D01*
X012456Y009458D01*
X012249Y009458D01*
X011956Y009165D01*
X012010Y009388D02*
X012178Y009388D01*
X012199Y009626D02*
X013805Y009626D01*
X013861Y009571D02*
X013581Y009290D01*
X013581Y009083D01*
X013581Y008876D01*
X013874Y008583D01*
X014081Y008583D01*
X014288Y008583D01*
X014581Y008876D01*
X014581Y009083D01*
X014081Y009083D01*
X014081Y008583D01*
X014081Y009083D01*
X014081Y009083D01*
X014081Y009083D01*
X013581Y009083D01*
X014081Y009083D01*
X014081Y009083D01*
X014581Y009083D01*
X014581Y009290D01*
X014301Y009571D01*
X014599Y009869D01*
X014599Y010298D01*
X014296Y010601D01*
X013866Y010601D01*
X013563Y010298D01*
X013563Y009869D01*
X013861Y009571D01*
X013678Y009388D02*
X012734Y009388D01*
X012456Y009388D02*
X012456Y009388D01*
X012456Y009458D02*
X012456Y008958D01*
X012456Y008958D01*
X012456Y009458D01*
X012456Y009149D02*
X012456Y009149D01*
X011956Y008911D02*
X010721Y008911D01*
X012199Y009865D02*
X013567Y009865D01*
X013563Y010103D02*
X012185Y010103D01*
X011947Y010342D02*
X013607Y010342D01*
X013845Y010580D02*
X008979Y010580D01*
X012831Y010819D02*
X012831Y010819D01*
X012831Y011057D02*
X012831Y011057D01*
X012831Y011296D02*
X012831Y011296D01*
X012831Y011534D02*
X012831Y011534D01*
X013269Y011534D02*
X013393Y011534D01*
X013831Y011534D02*
X013831Y011534D01*
X013831Y011296D02*
X013831Y011296D01*
X013831Y011057D02*
X013831Y011057D01*
X013831Y010819D02*
X013831Y010819D01*
X014205Y010819D02*
X014457Y010819D01*
X014317Y010580D02*
X019314Y010580D01*
X019026Y010342D02*
X014555Y010342D01*
X014599Y010103D02*
X018788Y010103D01*
X018590Y009865D02*
X014595Y009865D01*
X014357Y009626D02*
X016559Y009626D01*
X016380Y009388D02*
X014484Y009388D01*
X014581Y009149D02*
X016380Y009149D01*
X016380Y009208D02*
X016956Y009208D01*
X016956Y009208D01*
X016380Y009208D01*
X016439Y008911D02*
X014581Y008911D01*
X014377Y008672D02*
X014984Y008672D01*
X014812Y008434D02*
X012713Y008434D01*
X012877Y008672D02*
X013785Y008672D01*
X014081Y008672D02*
X014081Y008672D01*
X014081Y008911D02*
X014081Y008911D01*
X013581Y008911D02*
X012956Y008911D01*
X012956Y009149D02*
X013581Y009149D01*
X015336Y007718D02*
X017125Y007718D01*
X017786Y007718D02*
X018125Y007718D01*
X018786Y007718D02*
X019125Y007718D01*
X018059Y006764D02*
X017852Y006764D01*
X019854Y006287D02*
X021968Y006287D01*
X021968Y006049D02*
X019854Y006049D01*
X019854Y005810D02*
X021989Y005810D01*
X022152Y005572D02*
X019854Y005572D01*
X019854Y005333D02*
X022391Y005333D01*
X022629Y005095D02*
X019854Y005095D01*
X019854Y004856D02*
X022957Y004856D01*
X019984Y004618D02*
X032802Y004618D01*
X033041Y004856D02*
X028455Y004856D01*
X028783Y005095D02*
X033279Y005095D01*
X033518Y005333D02*
X029021Y005333D01*
X029260Y005572D02*
X033756Y005572D01*
X033995Y005810D02*
X029498Y005810D01*
X029737Y006049D02*
X034233Y006049D01*
X034472Y006287D02*
X029975Y006287D01*
X030214Y006526D02*
X034710Y006526D01*
X034808Y006764D02*
X030452Y006764D01*
X030691Y007003D02*
X034808Y007003D01*
X034808Y007241D02*
X030929Y007241D01*
X031168Y007480D02*
X034808Y007480D01*
X034808Y007718D02*
X031406Y007718D01*
X031645Y007957D02*
X034808Y007957D01*
X034808Y008195D02*
X031883Y008195D01*
X032122Y008434D02*
X034808Y008434D01*
X034808Y008672D02*
X032293Y008672D01*
X032319Y008911D02*
X034808Y008911D01*
X034808Y009149D02*
X032319Y009149D01*
X032319Y009388D02*
X034808Y009388D01*
X034808Y009626D02*
X032319Y009626D01*
X032319Y009865D02*
X034808Y009865D01*
X034808Y010103D02*
X032319Y010103D01*
X032389Y010342D02*
X034808Y010342D01*
X034808Y010580D02*
X032389Y010580D01*
X032319Y010819D02*
X034808Y010819D01*
X034808Y011057D02*
X032319Y011057D01*
X032319Y011296D02*
X034808Y011296D01*
X034808Y011534D02*
X032319Y011534D01*
X032319Y011773D02*
X032434Y011773D01*
X032831Y011773D02*
X032831Y011773D01*
X032831Y012011D02*
X032831Y012011D01*
X032831Y012250D02*
X032831Y012250D01*
X032831Y012488D02*
X032831Y012488D01*
X033133Y012488D02*
X034808Y012488D01*
X034808Y012250D02*
X033331Y012250D01*
X033331Y012011D02*
X034808Y012011D01*
X034808Y011773D02*
X033228Y011773D01*
X032529Y012488D02*
X032319Y012488D01*
X032319Y012727D02*
X034808Y012727D01*
X034808Y012965D02*
X032528Y012965D01*
X032767Y013204D02*
X034808Y013204D01*
X034808Y013442D02*
X032926Y013442D01*
X032944Y013681D02*
X033102Y013681D01*
X033456Y013681D02*
X033456Y013681D01*
X033456Y013919D02*
X033456Y013919D01*
X033456Y014158D02*
X033456Y014158D01*
X033456Y014396D02*
X033456Y014396D01*
X033900Y014396D02*
X034808Y014396D01*
X034808Y014158D02*
X033991Y014158D01*
X033991Y013919D02*
X034808Y013919D01*
X034808Y013681D02*
X033810Y013681D01*
X033012Y014396D02*
X032944Y014396D01*
X032944Y014635D02*
X034808Y014635D01*
X034808Y014873D02*
X032944Y014873D01*
X032944Y015112D02*
X034808Y015112D01*
X034808Y015350D02*
X032972Y015350D01*
X032974Y015589D02*
X034808Y015589D01*
X034808Y015827D02*
X032989Y015827D01*
X033014Y016066D02*
X034808Y016066D01*
X034808Y016304D02*
X033014Y016304D01*
X032786Y016543D02*
X034808Y016543D01*
X034808Y016781D02*
X032943Y016781D01*
X033014Y017020D02*
X034808Y017020D01*
X034808Y017258D02*
X033014Y017258D01*
X032974Y017497D02*
X033444Y017497D01*
X033457Y017483D02*
X033696Y017483D01*
X033696Y018073D01*
X033106Y018073D01*
X033106Y017835D01*
X033457Y017483D01*
X033696Y017497D02*
X033716Y017497D01*
X033696Y017735D02*
X033716Y017735D01*
X033696Y017974D02*
X033716Y017974D01*
X033205Y017735D02*
X032982Y017735D01*
X033074Y017974D02*
X033106Y017974D01*
X033106Y018212D02*
X033074Y018212D01*
X032963Y018451D02*
X033225Y018451D01*
X033298Y018689D02*
X032864Y018689D01*
X032048Y018689D02*
X028224Y018689D01*
X028224Y018928D02*
X031811Y018928D01*
X031712Y019166D02*
X028352Y019166D01*
X028817Y019405D02*
X031705Y019405D01*
X031771Y019643D02*
X031598Y019643D01*
X031331Y019643D02*
X031331Y019643D01*
X031331Y019882D02*
X031331Y019882D01*
X031064Y019643D02*
X029055Y019643D01*
X029139Y019882D02*
X030831Y019882D01*
X030831Y020120D02*
X029139Y020120D01*
X028970Y020359D02*
X030899Y020359D01*
X031763Y020359D02*
X033742Y020359D01*
X033981Y020120D02*
X031831Y020120D01*
X031831Y019882D02*
X031942Y019882D01*
X032970Y019882D02*
X033192Y019882D01*
X034391Y019643D02*
X034458Y019643D01*
X034457Y019405D02*
X034696Y019405D01*
X034808Y019166D02*
X034450Y019166D01*
X034351Y018928D02*
X034808Y018928D01*
X034808Y018689D02*
X034114Y018689D01*
X034187Y018451D02*
X034808Y018451D01*
X034808Y018212D02*
X034306Y018212D01*
X034306Y017974D02*
X034808Y017974D01*
X034808Y017735D02*
X034207Y017735D01*
X033968Y017497D02*
X034808Y017497D01*
X031949Y018451D02*
X028056Y018451D01*
X027356Y018451D02*
X027056Y018451D01*
X026356Y018451D02*
X026056Y018451D01*
X025356Y018451D02*
X025056Y018451D01*
X024356Y018451D02*
X024056Y018451D01*
X023356Y018451D02*
X023056Y018451D01*
X022356Y018451D02*
X022056Y018451D01*
X021356Y018451D02*
X021031Y018451D01*
X020706Y018451D02*
X020706Y018451D01*
X020706Y018689D02*
X020706Y018689D01*
X020706Y018928D02*
X020706Y018928D01*
X020706Y019166D02*
X020706Y019166D01*
X021080Y019166D02*
X021306Y019166D01*
X021308Y019405D02*
X019697Y019405D01*
X019459Y019643D02*
X021208Y019643D01*
X020868Y019882D02*
X019220Y019882D01*
X018982Y020120D02*
X020773Y020120D01*
X020773Y020359D02*
X018889Y020359D01*
X018731Y020597D02*
X020931Y020597D01*
X021731Y020597D02*
X022478Y020597D01*
X022512Y020563D02*
X022941Y020563D01*
X023239Y020861D01*
X023519Y020581D01*
X023726Y020581D01*
X023726Y021081D01*
X023726Y021081D01*
X023726Y021581D01*
X023519Y021581D01*
X023239Y021301D01*
X022941Y021599D01*
X022512Y021599D01*
X022208Y021296D01*
X022208Y020867D01*
X022512Y020563D01*
X022239Y020836D02*
X007832Y020836D01*
X007832Y021074D02*
X022208Y021074D01*
X022225Y021313D02*
X007747Y021313D01*
X007550Y021551D02*
X022464Y021551D01*
X022989Y021551D02*
X023490Y021551D01*
X023726Y021551D02*
X023726Y021551D01*
X023726Y021581D02*
X023934Y021581D01*
X024226Y021288D01*
X024226Y021081D01*
X023726Y021081D01*
X023726Y021081D01*
X023726Y020581D01*
X023934Y020581D01*
X024226Y020874D01*
X024226Y021081D01*
X023726Y021081D01*
X023726Y021581D01*
X023963Y021551D02*
X034987Y021551D01*
X034863Y021313D02*
X033890Y021313D01*
X034153Y021074D02*
X034830Y021074D01*
X034870Y020836D02*
X034391Y020836D01*
X030296Y017974D02*
X029881Y017974D01*
X030046Y017258D02*
X030131Y017258D01*
X029987Y017020D02*
X030369Y017020D01*
X029987Y016781D02*
X030900Y016781D01*
X031067Y016304D02*
X031898Y016304D01*
X031898Y016066D02*
X031081Y016066D01*
X031032Y015827D02*
X031923Y015827D01*
X030333Y016543D02*
X029987Y016543D01*
X030093Y016304D02*
X030095Y016304D01*
X029979Y014396D02*
X030262Y014396D01*
X030102Y013681D02*
X030086Y013681D01*
X030822Y013442D02*
X031625Y013442D01*
X031863Y013681D02*
X031060Y013681D01*
X031116Y013919D02*
X031903Y013919D01*
X031903Y014158D02*
X031116Y014158D01*
X030463Y011534D02*
X030354Y011534D01*
X030264Y007957D02*
X027612Y007957D01*
X028008Y007718D02*
X030026Y007718D01*
X029787Y007480D02*
X028157Y007480D01*
X028207Y007241D02*
X029549Y007241D01*
X029310Y007003D02*
X028184Y007003D01*
X028074Y006764D02*
X029072Y006764D01*
X028833Y006526D02*
X027771Y006526D01*
X036018Y005333D02*
X036343Y005333D01*
X036341Y005095D02*
X036234Y005095D01*
X036332Y004856D02*
X036340Y004856D01*
X036332Y004618D02*
X036338Y004618D01*
X036336Y004379D02*
X036258Y004379D01*
X036335Y004141D02*
X036076Y004141D01*
X024218Y015589D02*
X024194Y015589D01*
X023968Y016304D02*
X024444Y016304D01*
X024968Y016304D02*
X025308Y016304D01*
X023444Y016304D02*
X022968Y016304D01*
X020381Y018451D02*
X020056Y018451D01*
X019356Y018451D02*
X019056Y018451D01*
X018356Y018451D02*
X018056Y018451D01*
X017356Y018451D02*
X017056Y018451D01*
X016356Y018451D02*
X016056Y018451D01*
X015356Y018451D02*
X015056Y018451D01*
X012773Y020359D02*
X007544Y020359D01*
X007745Y020597D02*
X012931Y020597D01*
X013731Y020597D02*
X013931Y020597D01*
X014731Y020597D02*
X014931Y020597D01*
X015731Y020597D02*
X015931Y020597D01*
X016731Y020597D02*
X016931Y020597D01*
X017731Y020597D02*
X017931Y020597D01*
X020106Y019166D02*
X020332Y019166D01*
X021889Y020120D02*
X024023Y020120D01*
X024067Y020359D02*
X021889Y020359D01*
X022065Y019882D02*
X023816Y019882D01*
X023578Y019643D02*
X022104Y019643D01*
X022104Y019405D02*
X023356Y019405D01*
X023306Y019166D02*
X023106Y019166D01*
X022306Y019166D02*
X022106Y019166D01*
X022975Y020597D02*
X023503Y020597D01*
X023726Y020597D02*
X023726Y020597D01*
X023950Y020597D02*
X024306Y020597D01*
X024188Y020836D02*
X026520Y020836D01*
X026333Y020597D02*
X025856Y020597D01*
X026095Y020359D02*
X026308Y020359D01*
X026180Y020120D02*
X026139Y020120D01*
X025306Y020597D02*
X024856Y020597D01*
X024226Y021074D02*
X026759Y021074D01*
X026868Y021184D02*
X026868Y021184D01*
X027022Y021313D02*
X024202Y021313D01*
X023726Y021313D02*
X023726Y021313D01*
X023726Y021081D02*
X023726Y021081D01*
X023726Y021074D02*
X023726Y021074D01*
X023726Y020836D02*
X023726Y020836D01*
X023265Y020836D02*
X023214Y020836D01*
X023227Y021313D02*
X023251Y021313D01*
X027169Y020359D02*
X027192Y020359D01*
X027970Y020359D02*
X028192Y020359D01*
X021321Y013681D02*
X013081Y013681D01*
X013022Y013442D02*
X021082Y013442D01*
X018533Y009626D02*
X018378Y009626D01*
X017533Y009626D02*
X017353Y009626D01*
X016956Y009626D02*
X016956Y009626D01*
X016956Y009785D02*
X016956Y009208D01*
X016956Y009208D01*
X016956Y009785D01*
X016956Y009388D02*
X016956Y009388D01*
X016457Y010819D02*
X016205Y010819D01*
X015831Y010819D02*
X015831Y010819D01*
X015831Y011057D02*
X015831Y011057D01*
X015831Y011296D02*
X015831Y011296D01*
X015831Y011534D02*
X015831Y011534D01*
X016269Y011534D02*
X016393Y011534D01*
X015457Y010819D02*
X015205Y010819D01*
X014831Y010819D02*
X014831Y010819D01*
X014831Y011057D02*
X014831Y011057D01*
X014831Y011296D02*
X014831Y011296D01*
X014831Y011534D02*
X014831Y011534D01*
X015269Y011534D02*
X015393Y011534D01*
X014393Y011534D02*
X014269Y011534D01*
X013457Y010819D02*
X013205Y010819D01*
D21*
X022456Y007208D02*
X022456Y005958D01*
X023081Y005333D01*
X028331Y005333D01*
X031831Y008833D01*
X031831Y010458D01*
X031831Y012083D01*
X031831Y012958D01*
X032456Y013583D01*
X032456Y014083D01*
X032456Y015458D01*
X027331Y010208D02*
X026331Y010208D01*
X023706Y010208D01*
X022956Y009458D01*
X022956Y009208D01*
X023456Y007208D02*
X024956Y007208D01*
X026081Y007208D01*
D22*
X032456Y015458D02*
X032456Y016083D01*
X032456Y017083D02*
X032456Y018083D01*
D23*
X011081Y018333D02*
X011081Y015958D01*
X011066Y015866D01*
X011081Y018333D02*
X011066Y018426D01*
M02*
