G75*
G70*
%OFA0B0*%
%FSLAX24Y24*%
%IPPOS*%
%LPD*%
%AMOC8*
5,1,8,0,0,1.08239X$1,22.5*
%
%ADD10C,0.1262*%
%ADD11OC8,0.0720*%
%ADD12OC8,0.0790*%
%ADD13OC8,0.0800*%
%ADD14OC8,0.0840*%
%ADD15OC8,0.0872*%
%ADD16OC8,0.0920*%
%ADD17R,0.0609X0.0609*%
D10*
X007456Y004708D03*
X009331Y005833D03*
X010206Y009458D03*
X007081Y020958D03*
X027331Y011458D03*
X027456Y007208D03*
X035581Y004708D03*
X033706Y019333D03*
X032456Y019333D03*
X035581Y021083D03*
D11*
X031331Y020083D03*
X030589Y017533D03*
X031331Y017083D03*
X030581Y016083D03*
X029581Y016083D03*
X029589Y017533D03*
X027706Y018833D03*
X026706Y018833D03*
X025706Y018833D03*
X024706Y018833D03*
X023706Y018833D03*
X022706Y018833D03*
X021706Y018833D03*
X020706Y018833D03*
X019706Y018833D03*
X018706Y018833D03*
X017706Y018833D03*
X016706Y018833D03*
X015706Y018833D03*
X014706Y018833D03*
X014706Y015833D03*
X015706Y015833D03*
X016706Y015833D03*
X017706Y015833D03*
X018706Y015833D03*
X019706Y015833D03*
X020706Y015833D03*
X021706Y015833D03*
X022706Y015833D03*
X023706Y015833D03*
X024706Y015833D03*
X025706Y015833D03*
X026706Y015833D03*
X027706Y015833D03*
X024281Y014583D03*
X024456Y013208D03*
X023456Y013208D03*
X022581Y013208D03*
X021581Y013208D03*
X020081Y012333D03*
X020081Y011333D03*
X022381Y014583D03*
X026331Y010208D03*
X026331Y009208D03*
X024956Y007208D03*
X024956Y006208D03*
X031831Y012083D03*
X032831Y012083D03*
X023726Y021081D03*
X022726Y021081D03*
X012581Y013708D03*
X011581Y013708D03*
X011081Y014833D03*
X008081Y014833D03*
X011706Y012333D03*
X011706Y011333D03*
X014081Y010083D03*
X014081Y009083D03*
X012456Y008958D03*
X012456Y007958D03*
X015956Y006458D03*
X015956Y005458D03*
X009581Y018708D03*
X008581Y018708D03*
D12*
X009581Y012333D03*
X009581Y011333D03*
X029581Y013958D03*
X030581Y013958D03*
X032456Y014083D03*
X033456Y014083D03*
D13*
X032456Y016083D03*
X032456Y017083D03*
X028581Y019958D03*
X027581Y019958D03*
X025581Y020083D03*
X024581Y020083D03*
X021331Y020208D03*
X018331Y020208D03*
X017331Y020208D03*
X016331Y020208D03*
X015331Y020208D03*
X014331Y020208D03*
X013331Y020208D03*
X012846Y018426D03*
X011066Y018426D03*
X011066Y015866D03*
X012846Y015866D03*
X016831Y014708D03*
X017831Y014708D03*
X016831Y012333D03*
X015831Y012333D03*
X014831Y012333D03*
X013831Y012333D03*
X012831Y012333D03*
X012831Y011208D03*
X013831Y011208D03*
X014831Y011208D03*
X015831Y011208D03*
X016831Y011208D03*
X007206Y013708D03*
X007206Y014708D03*
X007206Y015708D03*
X007206Y016708D03*
X007206Y017708D03*
X007206Y018708D03*
X029831Y010458D03*
X030831Y010458D03*
X031831Y010458D03*
D14*
X030831Y011958D03*
X029831Y011958D03*
D15*
X023956Y009208D03*
X022956Y009208D03*
X021956Y009208D03*
X020956Y009208D03*
X019956Y009208D03*
X018956Y009208D03*
X017956Y009208D03*
X016956Y009208D03*
X017456Y007208D03*
X018456Y007208D03*
X019456Y007208D03*
X020456Y007208D03*
X021456Y007208D03*
X022456Y007208D03*
X023456Y007208D03*
D16*
X026081Y007208D03*
X027331Y010208D03*
X032456Y018083D03*
X033706Y018083D03*
X011581Y009833D03*
X010581Y005833D03*
D17*
X020831Y015958D03*
M02*
