G75*
G70*
%OFA0B0*%
%FSLAX24Y24*%
%IPPOS*%
%LPD*%
%AMOC8*
5,1,8,0,0,1.08239X$1,22.5*
%
%ADD10C,0.0060*%
%ADD11OC8,0.0540*%
%ADD12OC8,0.0560*%
%ADD13C,0.0050*%
%ADD14C,0.0070*%
%ADD15C,0.0000*%
%ADD16C,0.0100*%
%ADD17C,0.0080*%
%ADD18OC8,0.0630*%
%ADD19C,0.0020*%
%ADD20OC8,0.0620*%
%ADD21OC8,0.0640*%
%ADD22R,0.4200X0.0300*%
%ADD23R,0.0750X0.0200*%
%ADD24R,0.0300X0.0200*%
%ADD25OC8,0.0660*%
%ADD26OC8,0.0680*%
%ADD27R,0.0200X0.1000*%
%ADD28OC8,0.0692*%
%ADD29OC8,0.0712*%
%ADD30C,0.0040*%
%ADD31R,0.7461X0.0659*%
%ADD32OC8,0.0750*%
%ADD33OC8,0.0760*%
%ADD34C,0.0160*%
%ADD35C,0.0120*%
%ADD36R,0.0200X0.0150*%
%ADD37R,0.0150X0.0200*%
%ADD38C,0.0320*%
%ADD39C,0.0400*%
%ADD40R,0.0449X0.0449*%
%ADD41C,0.0236*%
%ADD42C,0.0240*%
%ADD43C,0.0500*%
%ADD44C,0.0560*%
%ADD45C,0.0157*%
D10*
X011956Y007608D02*
X011956Y009308D01*
X011958Y009325D01*
X011962Y009342D01*
X011969Y009358D01*
X011979Y009372D01*
X011992Y009385D01*
X012006Y009395D01*
X012022Y009402D01*
X012039Y009406D01*
X012056Y009408D01*
X012856Y009408D01*
X012873Y009406D01*
X012890Y009402D01*
X012906Y009395D01*
X012920Y009385D01*
X012933Y009372D01*
X012943Y009358D01*
X012950Y009342D01*
X012954Y009325D01*
X012956Y009308D01*
X012956Y007608D01*
X012954Y007591D01*
X012950Y007574D01*
X012943Y007558D01*
X012933Y007544D01*
X012920Y007531D01*
X012906Y007521D01*
X012890Y007514D01*
X012873Y007510D01*
X012856Y007508D01*
X012056Y007508D01*
X012039Y007510D01*
X012022Y007514D01*
X012006Y007521D01*
X011992Y007531D01*
X011979Y007544D01*
X011969Y007558D01*
X011962Y007574D01*
X011958Y007591D01*
X011956Y007608D01*
X012456Y008308D02*
X012456Y008358D01*
X012456Y008558D02*
X012456Y008608D01*
X013581Y008733D02*
X013581Y010433D01*
X013583Y010450D01*
X013587Y010467D01*
X013594Y010483D01*
X013604Y010497D01*
X013617Y010510D01*
X013631Y010520D01*
X013647Y010527D01*
X013664Y010531D01*
X013681Y010533D01*
X014481Y010533D01*
X014498Y010531D01*
X014515Y010527D01*
X014531Y010520D01*
X014545Y010510D01*
X014558Y010497D01*
X014568Y010483D01*
X014575Y010467D01*
X014579Y010450D01*
X014581Y010433D01*
X014581Y008733D01*
X014579Y008716D01*
X014575Y008699D01*
X014568Y008683D01*
X014558Y008669D01*
X014545Y008656D01*
X014531Y008646D01*
X014515Y008639D01*
X014498Y008635D01*
X014481Y008633D01*
X013681Y008633D01*
X013664Y008635D01*
X013647Y008639D01*
X013631Y008646D01*
X013617Y008656D01*
X013604Y008669D01*
X013594Y008683D01*
X013587Y008699D01*
X013583Y008716D01*
X013581Y008733D01*
X014081Y009433D02*
X014081Y009483D01*
X014081Y009683D02*
X014081Y009733D01*
X014081Y010708D02*
X013581Y010708D01*
X013331Y010958D01*
X013081Y010708D01*
X012581Y010708D01*
X012331Y010958D01*
X012331Y011458D01*
X012581Y011708D01*
X013081Y011708D01*
X013331Y011458D01*
X013581Y011708D01*
X014081Y011708D01*
X014331Y011458D01*
X014331Y010958D01*
X014081Y010708D01*
X014331Y010958D02*
X014581Y010708D01*
X015081Y010708D01*
X015331Y010958D01*
X015581Y010708D01*
X016081Y010708D01*
X016331Y010958D01*
X016581Y010708D01*
X017081Y010708D01*
X017331Y010958D01*
X017331Y011458D01*
X017081Y011708D01*
X016581Y011708D01*
X016331Y011458D01*
X016331Y010958D01*
X016331Y011458D02*
X016081Y011708D01*
X015581Y011708D01*
X015331Y011458D01*
X015331Y010958D01*
X015331Y011458D02*
X015081Y011708D01*
X014581Y011708D01*
X014331Y011458D01*
X014581Y011833D02*
X014331Y012083D01*
X014081Y011833D01*
X013581Y011833D01*
X013331Y012083D01*
X013081Y011833D01*
X012581Y011833D01*
X012331Y012083D01*
X012331Y012583D01*
X012581Y012833D01*
X013081Y012833D01*
X013331Y012583D01*
X013581Y012833D01*
X014081Y012833D01*
X014331Y012583D01*
X014331Y012083D01*
X014581Y011833D02*
X015081Y011833D01*
X015331Y012083D01*
X015581Y011833D01*
X016081Y011833D01*
X016331Y012083D01*
X016581Y011833D01*
X017081Y011833D01*
X017331Y012083D01*
X017331Y012583D01*
X017081Y012833D01*
X016581Y012833D01*
X016331Y012583D01*
X016331Y012083D01*
X016331Y012583D02*
X016081Y012833D01*
X015581Y012833D01*
X015331Y012583D01*
X015331Y012083D01*
X015331Y012583D02*
X015081Y012833D01*
X014581Y012833D01*
X014331Y012583D01*
X013331Y012583D02*
X013331Y012083D01*
X013331Y011458D02*
X013331Y010958D01*
X012206Y010983D02*
X012206Y012683D01*
X012204Y012700D01*
X012200Y012717D01*
X012193Y012733D01*
X012183Y012747D01*
X012170Y012760D01*
X012156Y012770D01*
X012140Y012777D01*
X012123Y012781D01*
X012106Y012783D01*
X011306Y012783D01*
X011289Y012781D01*
X011272Y012777D01*
X011256Y012770D01*
X011242Y012760D01*
X011229Y012747D01*
X011219Y012733D01*
X011212Y012717D01*
X011208Y012700D01*
X011206Y012683D01*
X011206Y010983D01*
X011208Y010966D01*
X011212Y010949D01*
X011219Y010933D01*
X011229Y010919D01*
X011242Y010906D01*
X011256Y010896D01*
X011272Y010889D01*
X011289Y010885D01*
X011306Y010883D01*
X012106Y010883D01*
X012123Y010885D01*
X012140Y010889D01*
X012156Y010896D01*
X012170Y010906D01*
X012183Y010919D01*
X012193Y010933D01*
X012200Y010949D01*
X012204Y010966D01*
X012206Y010983D01*
X011706Y011683D02*
X011706Y011733D01*
X011706Y011933D02*
X011706Y011983D01*
X011231Y013208D02*
X012931Y013208D01*
X012948Y013210D01*
X012965Y013214D01*
X012981Y013221D01*
X012995Y013231D01*
X013008Y013244D01*
X013018Y013258D01*
X013025Y013274D01*
X013029Y013291D01*
X013031Y013308D01*
X013031Y014108D01*
X013029Y014125D01*
X013025Y014142D01*
X013018Y014158D01*
X013008Y014172D01*
X012995Y014185D01*
X012981Y014195D01*
X012965Y014202D01*
X012948Y014206D01*
X012931Y014208D01*
X011231Y014208D01*
X011214Y014206D01*
X011197Y014202D01*
X011181Y014195D01*
X011167Y014185D01*
X011154Y014172D01*
X011144Y014158D01*
X011137Y014142D01*
X011133Y014125D01*
X011131Y014108D01*
X011131Y013308D01*
X011133Y013291D01*
X011137Y013274D01*
X011144Y013258D01*
X011154Y013244D01*
X011167Y013231D01*
X011181Y013221D01*
X011197Y013214D01*
X011214Y013210D01*
X011231Y013208D01*
X011931Y013708D02*
X011981Y013708D01*
X012181Y013708D02*
X012231Y013708D01*
X010581Y014533D02*
X010581Y015133D01*
X010579Y015150D01*
X010575Y015167D01*
X010568Y015183D01*
X010558Y015197D01*
X010545Y015210D01*
X010531Y015220D01*
X010515Y015227D01*
X010498Y015231D01*
X010481Y015233D01*
X010331Y015233D01*
X010281Y015183D01*
X008881Y015183D01*
X008831Y015233D01*
X008681Y015233D01*
X008664Y015231D01*
X008647Y015227D01*
X008631Y015220D01*
X008617Y015210D01*
X008604Y015197D01*
X008594Y015183D01*
X008587Y015167D01*
X008583Y015150D01*
X008581Y015133D01*
X008581Y014533D01*
X008583Y014516D01*
X008587Y014499D01*
X008594Y014483D01*
X008604Y014469D01*
X008617Y014456D01*
X008631Y014446D01*
X008647Y014439D01*
X008664Y014435D01*
X008681Y014433D01*
X008831Y014433D01*
X008881Y014483D01*
X010281Y014483D01*
X010331Y014433D01*
X010481Y014433D01*
X010498Y014435D01*
X010515Y014439D01*
X010531Y014446D01*
X010545Y014456D01*
X010558Y014469D01*
X010568Y014483D01*
X010575Y014499D01*
X010579Y014516D01*
X010581Y014533D01*
X011656Y015846D02*
X012256Y015846D01*
X012256Y015946D01*
X012356Y015946D01*
X011656Y015946D02*
X011656Y015846D01*
X011656Y015946D02*
X011556Y015946D01*
X010756Y016296D02*
X010756Y016696D01*
X010756Y017646D01*
X010756Y017996D01*
X010031Y018308D02*
X010031Y019108D01*
X010029Y019125D01*
X010025Y019142D01*
X010018Y019158D01*
X010008Y019172D01*
X009995Y019185D01*
X009981Y019195D01*
X009965Y019202D01*
X009948Y019206D01*
X009931Y019208D01*
X008231Y019208D01*
X008214Y019206D01*
X008197Y019202D01*
X008181Y019195D01*
X008167Y019185D01*
X008154Y019172D01*
X008144Y019158D01*
X008137Y019142D01*
X008133Y019125D01*
X008131Y019108D01*
X008131Y018308D01*
X008133Y018291D01*
X008137Y018274D01*
X008144Y018258D01*
X008154Y018244D01*
X008167Y018231D01*
X008181Y018221D01*
X008197Y018214D01*
X008214Y018210D01*
X008231Y018208D01*
X009931Y018208D01*
X009948Y018210D01*
X009965Y018214D01*
X009981Y018221D01*
X009995Y018231D01*
X010008Y018244D01*
X010018Y018258D01*
X010025Y018274D01*
X010029Y018291D01*
X010031Y018308D01*
X009231Y018708D02*
X009181Y018708D01*
X008981Y018708D02*
X008931Y018708D01*
X007706Y018458D02*
X007456Y018208D01*
X007706Y017958D01*
X007706Y017458D01*
X007456Y017208D01*
X007706Y016958D01*
X007706Y016458D01*
X007456Y016208D01*
X007706Y015958D01*
X007706Y015458D01*
X007456Y015208D01*
X007706Y014958D01*
X007706Y014458D01*
X007456Y014208D01*
X007706Y013958D01*
X007706Y013458D01*
X007456Y013208D01*
X006956Y013208D01*
X006706Y013458D01*
X006706Y013958D01*
X006956Y014208D01*
X006706Y014458D01*
X006706Y014958D01*
X006956Y015208D01*
X006706Y015458D01*
X006706Y015958D01*
X006956Y016208D01*
X006706Y016458D01*
X006706Y016958D01*
X006956Y017208D01*
X006706Y017458D01*
X006706Y017958D01*
X006956Y018208D01*
X006706Y018458D01*
X006706Y018958D01*
X006956Y019208D01*
X007456Y019208D01*
X007706Y018958D01*
X007706Y018458D01*
X011556Y018346D02*
X011656Y018346D01*
X011656Y018446D01*
X012256Y018446D01*
X012256Y018346D01*
X012356Y018346D01*
X013156Y017996D02*
X013156Y017646D01*
X013156Y016646D01*
X013156Y016296D01*
X013906Y016233D02*
X028506Y016233D01*
X028506Y018433D01*
X013906Y018433D01*
X013906Y017583D01*
X013936Y017581D01*
X013966Y017576D01*
X013995Y017567D01*
X014022Y017554D01*
X014048Y017539D01*
X014072Y017520D01*
X014093Y017499D01*
X014112Y017475D01*
X014127Y017449D01*
X014140Y017422D01*
X014149Y017393D01*
X014154Y017363D01*
X014156Y017333D01*
X014154Y017303D01*
X014149Y017273D01*
X014140Y017244D01*
X014127Y017217D01*
X014112Y017191D01*
X014093Y017167D01*
X014072Y017146D01*
X014048Y017127D01*
X014022Y017112D01*
X013995Y017099D01*
X013966Y017090D01*
X013936Y017085D01*
X013906Y017083D01*
X013906Y016233D01*
X011856Y017146D02*
X011858Y017166D01*
X011864Y017184D01*
X011873Y017202D01*
X011885Y017217D01*
X011900Y017229D01*
X011918Y017238D01*
X011936Y017244D01*
X011956Y017246D01*
X011976Y017244D01*
X011994Y017238D01*
X012012Y017229D01*
X012027Y017217D01*
X012039Y017202D01*
X012048Y017184D01*
X012054Y017166D01*
X012056Y017146D01*
X012054Y017126D01*
X012048Y017108D01*
X012039Y017090D01*
X012027Y017075D01*
X012012Y017063D01*
X011994Y017054D01*
X011976Y017048D01*
X011956Y017046D01*
X011936Y017048D01*
X011918Y017054D01*
X011900Y017063D01*
X011885Y017075D01*
X011873Y017090D01*
X011864Y017108D01*
X011858Y017126D01*
X011856Y017146D01*
X011256Y017146D02*
X011258Y017198D01*
X011264Y017250D01*
X011274Y017302D01*
X011287Y017352D01*
X011304Y017402D01*
X011325Y017450D01*
X011350Y017496D01*
X011378Y017540D01*
X011409Y017582D01*
X011443Y017622D01*
X011480Y017659D01*
X011520Y017693D01*
X011562Y017724D01*
X011606Y017752D01*
X011652Y017777D01*
X011700Y017798D01*
X011750Y017815D01*
X011800Y017828D01*
X011852Y017838D01*
X011904Y017844D01*
X011956Y017846D01*
X012008Y017844D01*
X012060Y017838D01*
X012112Y017828D01*
X012162Y017815D01*
X012212Y017798D01*
X012260Y017777D01*
X012306Y017752D01*
X012350Y017724D01*
X012392Y017693D01*
X012432Y017659D01*
X012469Y017622D01*
X012503Y017582D01*
X012534Y017540D01*
X012562Y017496D01*
X012587Y017450D01*
X012608Y017402D01*
X012625Y017352D01*
X012638Y017302D01*
X012648Y017250D01*
X012654Y017198D01*
X012656Y017146D01*
X012654Y017094D01*
X012648Y017042D01*
X012638Y016990D01*
X012625Y016940D01*
X012608Y016890D01*
X012587Y016842D01*
X012562Y016796D01*
X012534Y016752D01*
X012503Y016710D01*
X012469Y016670D01*
X012432Y016633D01*
X012392Y016599D01*
X012350Y016568D01*
X012306Y016540D01*
X012260Y016515D01*
X012212Y016494D01*
X012162Y016477D01*
X012112Y016464D01*
X012060Y016454D01*
X012008Y016448D01*
X011956Y016446D01*
X011904Y016448D01*
X011852Y016454D01*
X011800Y016464D01*
X011750Y016477D01*
X011700Y016494D01*
X011652Y016515D01*
X011606Y016540D01*
X011562Y016568D01*
X011520Y016599D01*
X011480Y016633D01*
X011443Y016670D01*
X011409Y016710D01*
X011378Y016752D01*
X011350Y016796D01*
X011325Y016842D01*
X011304Y016890D01*
X011287Y016940D01*
X011274Y016990D01*
X011264Y017042D01*
X011258Y017094D01*
X011256Y017146D01*
X013081Y019708D02*
X013581Y019708D01*
X013831Y019958D01*
X014081Y019708D01*
X014581Y019708D01*
X014831Y019958D01*
X014831Y020458D01*
X014581Y020708D01*
X014081Y020708D01*
X013831Y020458D01*
X013831Y019958D01*
X013831Y020458D02*
X013581Y020708D01*
X013081Y020708D01*
X012831Y020458D01*
X012831Y019958D01*
X013081Y019708D01*
X013088Y020926D02*
X013088Y021153D01*
X012974Y021266D01*
X012861Y021153D01*
X012861Y020926D01*
X012861Y021096D02*
X013088Y021096D01*
X013229Y021096D02*
X013343Y021153D01*
X013399Y021153D01*
X013456Y021096D01*
X013456Y020983D01*
X013399Y020926D01*
X013286Y020926D01*
X013229Y020983D01*
X013229Y021096D02*
X013229Y021266D01*
X013456Y021266D01*
X014111Y021153D02*
X014111Y020926D01*
X014111Y021096D02*
X014338Y021096D01*
X014338Y021153D02*
X014338Y020926D01*
X014479Y021096D02*
X014706Y021096D01*
X014649Y021266D02*
X014479Y021096D01*
X014338Y021153D02*
X014224Y021266D01*
X014111Y021153D01*
X014649Y021266D02*
X014649Y020926D01*
X014986Y020926D02*
X014986Y021153D01*
X015099Y021266D01*
X015213Y021153D01*
X015213Y020926D01*
X015354Y020983D02*
X015411Y020926D01*
X015524Y020926D01*
X015581Y020983D01*
X015581Y021039D01*
X015524Y021096D01*
X015468Y021096D01*
X015524Y021096D02*
X015581Y021153D01*
X015581Y021209D01*
X015524Y021266D01*
X015411Y021266D01*
X015354Y021209D01*
X015213Y021096D02*
X014986Y021096D01*
X015081Y020708D02*
X015581Y020708D01*
X015831Y020458D01*
X016081Y020708D01*
X016581Y020708D01*
X016831Y020458D01*
X017081Y020708D01*
X017581Y020708D01*
X017831Y020458D01*
X018081Y020708D01*
X018581Y020708D01*
X018831Y020458D01*
X018831Y019958D01*
X018581Y019708D01*
X018081Y019708D01*
X017831Y019958D01*
X017581Y019708D01*
X017081Y019708D01*
X016831Y019958D01*
X016581Y019708D01*
X016081Y019708D01*
X015831Y019958D01*
X015581Y019708D01*
X015081Y019708D01*
X014831Y019958D01*
X014831Y020458D02*
X015081Y020708D01*
X015831Y020458D02*
X015831Y019958D01*
X016831Y019958D02*
X016831Y020458D01*
X016706Y020926D02*
X016479Y020926D01*
X016706Y021153D01*
X016706Y021209D01*
X016649Y021266D01*
X016536Y021266D01*
X016479Y021209D01*
X016338Y021153D02*
X016338Y020926D01*
X016338Y021096D02*
X016111Y021096D01*
X016111Y021153D02*
X016111Y020926D01*
X016111Y021153D02*
X016224Y021266D01*
X016338Y021153D01*
X017111Y021153D02*
X017111Y020926D01*
X017111Y021096D02*
X017338Y021096D01*
X017338Y021153D02*
X017338Y020926D01*
X017479Y020926D02*
X017706Y020926D01*
X017593Y020926D02*
X017593Y021266D01*
X017479Y021153D01*
X017338Y021153D02*
X017224Y021266D01*
X017111Y021153D01*
X017986Y021153D02*
X017986Y020926D01*
X017986Y021096D02*
X018213Y021096D01*
X018213Y021153D02*
X018213Y020926D01*
X018354Y020983D02*
X018581Y021209D01*
X018581Y020983D01*
X018524Y020926D01*
X018411Y020926D01*
X018354Y020983D01*
X018354Y021209D01*
X018411Y021266D01*
X018524Y021266D01*
X018581Y021209D01*
X018213Y021153D02*
X018099Y021266D01*
X017986Y021153D01*
X017831Y020458D02*
X017831Y019958D01*
X020831Y019958D02*
X021081Y019708D01*
X021581Y019708D01*
X021831Y019958D01*
X021831Y020458D01*
X021581Y020708D01*
X021081Y020708D01*
X020831Y020458D01*
X020831Y019958D01*
X020736Y020926D02*
X020736Y021153D01*
X020849Y021266D01*
X020963Y021153D01*
X020963Y020926D01*
X021104Y020926D02*
X021104Y021266D01*
X021274Y021266D01*
X021331Y021209D01*
X021331Y021096D01*
X021274Y021039D01*
X021104Y021039D01*
X021218Y021039D02*
X021331Y020926D01*
X020963Y021096D02*
X020736Y021096D01*
X022276Y021481D02*
X022276Y020681D01*
X022278Y020664D01*
X022282Y020647D01*
X022289Y020631D01*
X022299Y020617D01*
X022312Y020604D01*
X022326Y020594D01*
X022342Y020587D01*
X022359Y020583D01*
X022376Y020581D01*
X024076Y020581D01*
X024093Y020583D01*
X024110Y020587D01*
X024126Y020594D01*
X024140Y020604D01*
X024153Y020617D01*
X024163Y020631D01*
X024170Y020647D01*
X024174Y020664D01*
X024176Y020681D01*
X024176Y021481D01*
X024174Y021498D01*
X024170Y021515D01*
X024163Y021531D01*
X024153Y021545D01*
X024140Y021558D01*
X024126Y021568D01*
X024110Y021575D01*
X024093Y021579D01*
X024076Y021581D01*
X022376Y021581D01*
X022359Y021579D01*
X022342Y021575D01*
X022326Y021568D01*
X022312Y021558D01*
X022299Y021545D01*
X022289Y021531D01*
X022282Y021515D01*
X022278Y021498D01*
X022276Y021481D01*
X023076Y021081D02*
X023126Y021081D01*
X023326Y021081D02*
X023376Y021081D01*
X023412Y020391D02*
X023412Y020051D01*
X023525Y020051D02*
X023298Y020051D01*
X023298Y020278D02*
X023412Y020391D01*
X023667Y020334D02*
X023724Y020391D01*
X023837Y020391D01*
X023894Y020334D01*
X023894Y020278D01*
X023837Y020221D01*
X023894Y020164D01*
X023894Y020108D01*
X023837Y020051D01*
X023724Y020051D01*
X023667Y020108D01*
X023780Y020221D02*
X023837Y020221D01*
X024081Y020333D02*
X024081Y019833D01*
X024331Y019583D01*
X024831Y019583D01*
X025081Y019833D01*
X025331Y019583D01*
X025831Y019583D01*
X026081Y019833D01*
X026081Y020333D01*
X025831Y020583D01*
X025331Y020583D01*
X025081Y020333D01*
X025081Y019833D01*
X025081Y020333D02*
X024831Y020583D01*
X024331Y020583D01*
X024081Y020333D01*
X025298Y020801D02*
X025525Y020801D01*
X025412Y020801D02*
X025412Y021141D01*
X025298Y021028D01*
X025667Y021084D02*
X025724Y021141D01*
X025837Y021141D01*
X025894Y021084D01*
X025894Y021028D01*
X025667Y020801D01*
X025894Y020801D01*
X027081Y020208D02*
X027081Y019708D01*
X027331Y019458D01*
X027831Y019458D01*
X028081Y019708D01*
X028331Y019458D01*
X028831Y019458D01*
X029081Y019708D01*
X029081Y020208D01*
X028831Y020458D01*
X028331Y020458D01*
X028081Y020208D01*
X028081Y019708D01*
X028081Y020208D02*
X027831Y020458D01*
X027331Y020458D01*
X027081Y020208D01*
X027423Y020676D02*
X027650Y020676D01*
X027537Y020676D02*
X027537Y021016D01*
X027423Y020903D01*
X027792Y020959D02*
X027792Y020733D01*
X028019Y020959D01*
X028019Y020733D01*
X027962Y020676D01*
X027849Y020676D01*
X027792Y020733D01*
X027792Y020959D02*
X027849Y021016D01*
X027962Y021016D01*
X028019Y020959D01*
X028423Y021016D02*
X028423Y020676D01*
X028594Y020676D01*
X028650Y020733D01*
X028650Y020959D01*
X028594Y021016D01*
X028423Y021016D01*
X028792Y020959D02*
X028792Y020903D01*
X028849Y020846D01*
X029019Y020846D01*
X029019Y020959D02*
X028962Y021016D01*
X028849Y021016D01*
X028792Y020959D01*
X028792Y020733D02*
X028849Y020676D01*
X028962Y020676D01*
X029019Y020733D01*
X029019Y020959D01*
X030931Y019483D02*
X030931Y019333D01*
X030981Y019283D01*
X030981Y017883D01*
X030931Y017833D01*
X030931Y017683D01*
X030933Y017666D01*
X030937Y017649D01*
X030944Y017633D01*
X030954Y017619D01*
X030967Y017606D01*
X030981Y017596D01*
X030997Y017589D01*
X031014Y017585D01*
X031031Y017583D01*
X031631Y017583D01*
X031648Y017585D01*
X031665Y017589D01*
X031681Y017596D01*
X031695Y017606D01*
X031708Y017619D01*
X031718Y017633D01*
X031725Y017649D01*
X031729Y017666D01*
X031731Y017683D01*
X031731Y017833D01*
X031681Y017883D01*
X031681Y019283D01*
X031731Y019333D01*
X031731Y019483D01*
X031729Y019500D01*
X031725Y019517D01*
X031718Y019533D01*
X031708Y019547D01*
X031695Y019560D01*
X031681Y019570D01*
X031665Y019577D01*
X031648Y019581D01*
X031631Y019583D01*
X031031Y019583D01*
X031014Y019581D01*
X030997Y019577D01*
X030981Y019570D01*
X030967Y019560D01*
X030954Y019547D01*
X030944Y019533D01*
X030937Y019517D01*
X030933Y019500D01*
X030931Y019483D01*
X029615Y017165D02*
X029645Y017130D01*
X029676Y017097D01*
X029711Y017067D01*
X029747Y017040D01*
X029785Y017016D01*
X029825Y016994D01*
X029867Y016976D01*
X029910Y016960D01*
X029954Y016948D01*
X029998Y016940D01*
X030044Y016935D01*
X030089Y016933D01*
X029609Y017893D02*
X029638Y017929D01*
X029670Y017963D01*
X029705Y017994D01*
X029741Y018022D01*
X029780Y018047D01*
X029821Y018070D01*
X029863Y018089D01*
X029906Y018105D01*
X029951Y018117D01*
X029997Y018126D01*
X030043Y018131D01*
X030089Y018133D01*
X030563Y017165D02*
X030533Y017130D01*
X030502Y017097D01*
X030467Y017067D01*
X030431Y017040D01*
X030393Y017016D01*
X030353Y016994D01*
X030311Y016976D01*
X030268Y016960D01*
X030224Y016948D01*
X030180Y016940D01*
X030134Y016935D01*
X030089Y016933D01*
X030577Y017882D02*
X030548Y017919D01*
X030516Y017954D01*
X030481Y017987D01*
X030444Y018017D01*
X030405Y018043D01*
X030364Y018066D01*
X030320Y018087D01*
X030276Y018103D01*
X030230Y018116D01*
X030184Y018125D01*
X030136Y018131D01*
X030089Y018133D01*
X030931Y016583D02*
X029231Y016583D01*
X029214Y016581D01*
X029197Y016577D01*
X029181Y016570D01*
X029167Y016560D01*
X029154Y016547D01*
X029144Y016533D01*
X029137Y016517D01*
X029133Y016500D01*
X029131Y016483D01*
X029131Y015683D01*
X029133Y015666D01*
X029137Y015649D01*
X029144Y015633D01*
X029154Y015619D01*
X029167Y015606D01*
X029181Y015596D01*
X029197Y015589D01*
X029214Y015585D01*
X029231Y015583D01*
X030931Y015583D01*
X030948Y015585D01*
X030965Y015589D01*
X030981Y015596D01*
X030995Y015606D01*
X031008Y015619D01*
X031018Y015633D01*
X031025Y015649D01*
X031029Y015666D01*
X031031Y015683D01*
X031031Y016483D01*
X031029Y016500D01*
X031025Y016517D01*
X031018Y016533D01*
X031008Y016547D01*
X030995Y016560D01*
X030981Y016570D01*
X030965Y016577D01*
X030948Y016581D01*
X030931Y016583D01*
X030231Y016083D02*
X030181Y016083D01*
X029981Y016083D02*
X029931Y016083D01*
X031956Y015833D02*
X032206Y015583D01*
X032706Y015583D01*
X032956Y015833D01*
X032956Y016333D01*
X032706Y016583D01*
X032206Y016583D01*
X031956Y016333D01*
X031956Y015833D01*
X032206Y016583D02*
X031956Y016833D01*
X031956Y017333D01*
X032206Y017583D01*
X032706Y017583D01*
X032956Y017333D01*
X032956Y016833D01*
X032706Y016583D01*
X031906Y014233D02*
X031906Y013933D01*
X031756Y014083D02*
X032056Y014083D01*
X031606Y014083D02*
X031608Y014156D01*
X031614Y014229D01*
X031624Y014301D01*
X031638Y014373D01*
X031655Y014444D01*
X031677Y014514D01*
X031702Y014583D01*
X031731Y014650D01*
X031763Y014715D01*
X031799Y014779D01*
X031839Y014841D01*
X031881Y014900D01*
X031927Y014957D01*
X031976Y015011D01*
X032028Y015063D01*
X032082Y015112D01*
X032139Y015158D01*
X032198Y015200D01*
X032260Y015240D01*
X032324Y015276D01*
X032389Y015308D01*
X032456Y015337D01*
X032525Y015362D01*
X032595Y015384D01*
X032666Y015401D01*
X032738Y015415D01*
X032810Y015425D01*
X032883Y015431D01*
X032956Y015433D01*
X033029Y015431D01*
X033102Y015425D01*
X033174Y015415D01*
X033246Y015401D01*
X033317Y015384D01*
X033387Y015362D01*
X033456Y015337D01*
X033523Y015308D01*
X033588Y015276D01*
X033652Y015240D01*
X033714Y015200D01*
X033773Y015158D01*
X033830Y015112D01*
X033884Y015063D01*
X033936Y015011D01*
X033985Y014957D01*
X034031Y014900D01*
X034073Y014841D01*
X034113Y014779D01*
X034149Y014715D01*
X034181Y014650D01*
X034210Y014583D01*
X034235Y014514D01*
X034257Y014444D01*
X034274Y014373D01*
X034288Y014301D01*
X034298Y014229D01*
X034304Y014156D01*
X034306Y014083D01*
X034304Y014010D01*
X034298Y013937D01*
X034288Y013865D01*
X034274Y013793D01*
X034257Y013722D01*
X034235Y013652D01*
X034210Y013583D01*
X034181Y013516D01*
X034149Y013451D01*
X034113Y013387D01*
X034073Y013325D01*
X034031Y013266D01*
X033985Y013209D01*
X033936Y013155D01*
X033884Y013103D01*
X033830Y013054D01*
X033773Y013008D01*
X033714Y012966D01*
X033652Y012926D01*
X033588Y012890D01*
X033523Y012858D01*
X033456Y012829D01*
X033387Y012804D01*
X033317Y012782D01*
X033246Y012765D01*
X033174Y012751D01*
X033102Y012741D01*
X033029Y012735D01*
X032956Y012733D01*
X032883Y012735D01*
X032810Y012741D01*
X032738Y012751D01*
X032666Y012765D01*
X032595Y012782D01*
X032525Y012804D01*
X032456Y012829D01*
X032389Y012858D01*
X032324Y012890D01*
X032260Y012926D01*
X032198Y012966D01*
X032139Y013008D01*
X032082Y013054D01*
X032028Y013103D01*
X031976Y013155D01*
X031927Y013209D01*
X031881Y013266D01*
X031839Y013325D01*
X031799Y013387D01*
X031763Y013451D01*
X031731Y013516D01*
X031702Y013583D01*
X031677Y013652D01*
X031655Y013722D01*
X031638Y013793D01*
X031624Y013865D01*
X031614Y013937D01*
X031608Y014010D01*
X031606Y014083D01*
X031481Y012583D02*
X033181Y012583D01*
X033198Y012581D01*
X033215Y012577D01*
X033231Y012570D01*
X033245Y012560D01*
X033258Y012547D01*
X033268Y012533D01*
X033275Y012517D01*
X033279Y012500D01*
X033281Y012483D01*
X033281Y011683D01*
X033279Y011666D01*
X033275Y011649D01*
X033268Y011633D01*
X033258Y011619D01*
X033245Y011606D01*
X033231Y011596D01*
X033215Y011589D01*
X033198Y011585D01*
X033181Y011583D01*
X031481Y011583D01*
X031464Y011585D01*
X031447Y011589D01*
X031431Y011596D01*
X031417Y011606D01*
X031404Y011619D01*
X031394Y011633D01*
X031387Y011649D01*
X031383Y011666D01*
X031381Y011683D01*
X031381Y012483D01*
X031383Y012500D01*
X031387Y012517D01*
X031394Y012533D01*
X031404Y012547D01*
X031417Y012560D01*
X031431Y012570D01*
X031447Y012577D01*
X031464Y012581D01*
X031481Y012583D01*
X032181Y012083D02*
X032231Y012083D01*
X032431Y012083D02*
X032481Y012083D01*
X028731Y013958D02*
X028733Y014031D01*
X028739Y014104D01*
X028749Y014176D01*
X028763Y014248D01*
X028780Y014319D01*
X028802Y014389D01*
X028827Y014458D01*
X028856Y014525D01*
X028888Y014590D01*
X028924Y014654D01*
X028964Y014716D01*
X029006Y014775D01*
X029052Y014832D01*
X029101Y014886D01*
X029153Y014938D01*
X029207Y014987D01*
X029264Y015033D01*
X029323Y015075D01*
X029385Y015115D01*
X029449Y015151D01*
X029514Y015183D01*
X029581Y015212D01*
X029650Y015237D01*
X029720Y015259D01*
X029791Y015276D01*
X029863Y015290D01*
X029935Y015300D01*
X030008Y015306D01*
X030081Y015308D01*
X030154Y015306D01*
X030227Y015300D01*
X030299Y015290D01*
X030371Y015276D01*
X030442Y015259D01*
X030512Y015237D01*
X030581Y015212D01*
X030648Y015183D01*
X030713Y015151D01*
X030777Y015115D01*
X030839Y015075D01*
X030898Y015033D01*
X030955Y014987D01*
X031009Y014938D01*
X031061Y014886D01*
X031110Y014832D01*
X031156Y014775D01*
X031198Y014716D01*
X031238Y014654D01*
X031274Y014590D01*
X031306Y014525D01*
X031335Y014458D01*
X031360Y014389D01*
X031382Y014319D01*
X031399Y014248D01*
X031413Y014176D01*
X031423Y014104D01*
X031429Y014031D01*
X031431Y013958D01*
X031429Y013885D01*
X031423Y013812D01*
X031413Y013740D01*
X031399Y013668D01*
X031382Y013597D01*
X031360Y013527D01*
X031335Y013458D01*
X031306Y013391D01*
X031274Y013326D01*
X031238Y013262D01*
X031198Y013200D01*
X031156Y013141D01*
X031110Y013084D01*
X031061Y013030D01*
X031009Y012978D01*
X030955Y012929D01*
X030898Y012883D01*
X030839Y012841D01*
X030777Y012801D01*
X030713Y012765D01*
X030648Y012733D01*
X030581Y012704D01*
X030512Y012679D01*
X030442Y012657D01*
X030371Y012640D01*
X030299Y012626D01*
X030227Y012616D01*
X030154Y012610D01*
X030081Y012608D01*
X030008Y012610D01*
X029935Y012616D01*
X029863Y012626D01*
X029791Y012640D01*
X029720Y012657D01*
X029650Y012679D01*
X029581Y012704D01*
X029514Y012733D01*
X029449Y012765D01*
X029385Y012801D01*
X029323Y012841D01*
X029264Y012883D01*
X029207Y012929D01*
X029153Y012978D01*
X029101Y013030D01*
X029052Y013084D01*
X029006Y013141D01*
X028964Y013200D01*
X028924Y013262D01*
X028888Y013326D01*
X028856Y013391D01*
X028827Y013458D01*
X028802Y013527D01*
X028780Y013597D01*
X028763Y013668D01*
X028749Y013740D01*
X028739Y013812D01*
X028733Y013885D01*
X028731Y013958D01*
X028881Y013958D02*
X029181Y013958D01*
X029031Y013808D02*
X029031Y014108D01*
X026731Y010658D02*
X025931Y010658D01*
X025914Y010656D01*
X025897Y010652D01*
X025881Y010645D01*
X025867Y010635D01*
X025854Y010622D01*
X025844Y010608D01*
X025837Y010592D01*
X025833Y010575D01*
X025831Y010558D01*
X025831Y008858D01*
X025833Y008841D01*
X025837Y008824D01*
X025844Y008808D01*
X025854Y008794D01*
X025867Y008781D01*
X025881Y008771D01*
X025897Y008764D01*
X025914Y008760D01*
X025931Y008758D01*
X026731Y008758D01*
X026748Y008760D01*
X026765Y008764D01*
X026781Y008771D01*
X026795Y008781D01*
X026808Y008794D01*
X026818Y008808D01*
X026825Y008824D01*
X026829Y008841D01*
X026831Y008858D01*
X026831Y010558D01*
X026829Y010575D01*
X026825Y010592D01*
X026818Y010608D01*
X026808Y010622D01*
X026795Y010635D01*
X026781Y010645D01*
X026765Y010652D01*
X026748Y010656D01*
X026731Y010658D01*
X026331Y009858D02*
X026331Y009808D01*
X026331Y009608D02*
X026331Y009558D01*
X025356Y007658D02*
X024556Y007658D01*
X024539Y007656D01*
X024522Y007652D01*
X024506Y007645D01*
X024492Y007635D01*
X024479Y007622D01*
X024469Y007608D01*
X024462Y007592D01*
X024458Y007575D01*
X024456Y007558D01*
X024456Y005858D01*
X024458Y005841D01*
X024462Y005824D01*
X024469Y005808D01*
X024479Y005794D01*
X024492Y005781D01*
X024506Y005771D01*
X024522Y005764D01*
X024539Y005760D01*
X024556Y005758D01*
X025356Y005758D01*
X025373Y005760D01*
X025390Y005764D01*
X025406Y005771D01*
X025420Y005781D01*
X025433Y005794D01*
X025443Y005808D01*
X025450Y005824D01*
X025454Y005841D01*
X025456Y005858D01*
X025456Y007558D01*
X025454Y007575D01*
X025450Y007592D01*
X025443Y007608D01*
X025433Y007622D01*
X025420Y007635D01*
X025406Y007645D01*
X025390Y007652D01*
X025373Y007656D01*
X025356Y007658D01*
X024956Y006858D02*
X024956Y006808D01*
X024956Y006608D02*
X024956Y006558D01*
X024156Y006108D02*
X024156Y007508D01*
X024056Y007508D01*
X020581Y010983D02*
X020581Y012683D01*
X020579Y012700D01*
X020575Y012717D01*
X020568Y012733D01*
X020558Y012747D01*
X020545Y012760D01*
X020531Y012770D01*
X020515Y012777D01*
X020498Y012781D01*
X020481Y012783D01*
X019681Y012783D01*
X019664Y012781D01*
X019647Y012777D01*
X019631Y012770D01*
X019617Y012760D01*
X019604Y012747D01*
X019594Y012733D01*
X019587Y012717D01*
X019583Y012700D01*
X019581Y012683D01*
X019581Y010983D01*
X019583Y010966D01*
X019587Y010949D01*
X019594Y010933D01*
X019604Y010919D01*
X019617Y010906D01*
X019631Y010896D01*
X019647Y010889D01*
X019664Y010885D01*
X019681Y010883D01*
X020481Y010883D01*
X020498Y010885D01*
X020515Y010889D01*
X020531Y010896D01*
X020545Y010906D01*
X020558Y010919D01*
X020568Y010933D01*
X020575Y010949D01*
X020579Y010966D01*
X020581Y010983D01*
X020081Y011683D02*
X020081Y011733D01*
X020081Y011933D02*
X020081Y011983D01*
X021231Y012958D02*
X021231Y013458D01*
X021233Y013484D01*
X021238Y013510D01*
X021246Y013535D01*
X021258Y013558D01*
X021272Y013580D01*
X021290Y013599D01*
X021309Y013617D01*
X021331Y013631D01*
X021354Y013643D01*
X021379Y013651D01*
X021405Y013656D01*
X021431Y013658D01*
X022731Y013658D01*
X022757Y013656D01*
X022783Y013651D01*
X022808Y013643D01*
X022831Y013631D01*
X022853Y013617D01*
X022872Y013599D01*
X022890Y013580D01*
X022904Y013558D01*
X022916Y013535D01*
X022924Y013510D01*
X022929Y013484D01*
X022931Y013458D01*
X022931Y012958D01*
X023106Y012958D02*
X023106Y013458D01*
X023108Y013484D01*
X023113Y013510D01*
X023121Y013535D01*
X023133Y013558D01*
X023147Y013580D01*
X023165Y013599D01*
X023184Y013617D01*
X023206Y013631D01*
X023229Y013643D01*
X023254Y013651D01*
X023280Y013656D01*
X023306Y013658D01*
X024606Y013658D01*
X024632Y013656D01*
X024658Y013651D01*
X024683Y013643D01*
X024706Y013631D01*
X024728Y013617D01*
X024747Y013599D01*
X024765Y013580D01*
X024779Y013558D01*
X024791Y013535D01*
X024799Y013510D01*
X024804Y013484D01*
X024806Y013458D01*
X024806Y012958D01*
X024804Y012932D01*
X024799Y012906D01*
X024791Y012881D01*
X024779Y012858D01*
X024765Y012836D01*
X024747Y012817D01*
X024728Y012799D01*
X024706Y012785D01*
X024683Y012773D01*
X024658Y012765D01*
X024632Y012760D01*
X024606Y012758D01*
X023306Y012758D01*
X023280Y012760D01*
X023254Y012765D01*
X023229Y012773D01*
X023206Y012785D01*
X023184Y012799D01*
X023165Y012817D01*
X023147Y012836D01*
X023133Y012858D01*
X023121Y012881D01*
X023113Y012906D01*
X023108Y012932D01*
X023106Y012958D01*
X022931Y012958D02*
X022929Y012932D01*
X022924Y012906D01*
X022916Y012881D01*
X022904Y012858D01*
X022890Y012836D01*
X022872Y012817D01*
X022853Y012799D01*
X022831Y012785D01*
X022808Y012773D01*
X022783Y012765D01*
X022757Y012760D01*
X022731Y012758D01*
X021431Y012758D01*
X021405Y012760D01*
X021379Y012765D01*
X021354Y012773D01*
X021331Y012785D01*
X021309Y012799D01*
X021290Y012817D01*
X021272Y012836D01*
X021258Y012858D01*
X021246Y012881D01*
X021238Y012906D01*
X021233Y012932D01*
X021231Y012958D01*
X022131Y013933D02*
X024531Y013933D01*
X024581Y013935D01*
X024630Y013941D01*
X024679Y013950D01*
X024727Y013963D01*
X024774Y013980D01*
X024819Y014000D01*
X024863Y014024D01*
X024905Y014051D01*
X024945Y014082D01*
X024982Y014115D01*
X025016Y014151D01*
X025048Y014189D01*
X025077Y014230D01*
X025102Y014272D01*
X025124Y014317D01*
X025143Y014363D01*
X025158Y014411D01*
X025169Y014459D01*
X025177Y014508D01*
X025181Y014558D01*
X025181Y014608D01*
X025177Y014658D01*
X025169Y014707D01*
X025158Y014755D01*
X025143Y014803D01*
X025124Y014849D01*
X025102Y014894D01*
X025077Y014936D01*
X025048Y014977D01*
X025016Y015015D01*
X024982Y015051D01*
X024945Y015084D01*
X024905Y015115D01*
X024863Y015142D01*
X024819Y015166D01*
X024774Y015186D01*
X024727Y015203D01*
X024679Y015216D01*
X024630Y015225D01*
X024581Y015231D01*
X024531Y015233D01*
X022131Y015233D01*
X022081Y015231D01*
X022032Y015225D01*
X021983Y015216D01*
X021935Y015203D01*
X021888Y015186D01*
X021843Y015166D01*
X021799Y015142D01*
X021757Y015115D01*
X021717Y015084D01*
X021680Y015051D01*
X021646Y015015D01*
X021614Y014977D01*
X021585Y014936D01*
X021560Y014894D01*
X021538Y014849D01*
X021519Y014803D01*
X021504Y014755D01*
X021493Y014707D01*
X021485Y014658D01*
X021481Y014608D01*
X021481Y014558D01*
X021485Y014508D01*
X021493Y014459D01*
X021504Y014411D01*
X021519Y014363D01*
X021538Y014317D01*
X021560Y014272D01*
X021585Y014230D01*
X021614Y014189D01*
X021646Y014151D01*
X021680Y014115D01*
X021717Y014082D01*
X021757Y014051D01*
X021799Y014024D01*
X021843Y014000D01*
X021888Y013980D01*
X021935Y013963D01*
X021983Y013950D01*
X022032Y013941D01*
X022081Y013935D01*
X022131Y013933D01*
X022831Y014583D02*
X023081Y014583D01*
X023081Y014283D01*
X023231Y014283D02*
X023231Y014883D01*
X023431Y014883D01*
X023431Y014283D01*
X023231Y014283D01*
X023081Y014583D02*
X023081Y014883D01*
X023581Y014883D02*
X023581Y014583D01*
X023831Y014583D01*
X023581Y014583D02*
X023581Y014283D01*
X025548Y017926D02*
X025775Y017926D01*
X025662Y017926D02*
X025662Y018266D01*
X025548Y018153D01*
X025917Y018153D02*
X026030Y018266D01*
X026030Y017926D01*
X025917Y017926D02*
X026144Y017926D01*
X018331Y014958D02*
X018331Y014458D01*
X018081Y014208D01*
X017581Y014208D01*
X017331Y014458D01*
X017081Y014208D01*
X016581Y014208D01*
X016331Y014458D01*
X016331Y014958D01*
X016581Y015208D01*
X017081Y015208D01*
X017331Y014958D01*
X017581Y015208D01*
X018081Y015208D01*
X018331Y014958D01*
X017331Y014958D02*
X017331Y014458D01*
X009731Y012883D02*
X009431Y012883D01*
X009581Y013033D02*
X009581Y012733D01*
X008231Y011833D02*
X008233Y011906D01*
X008239Y011979D01*
X008249Y012051D01*
X008263Y012123D01*
X008280Y012194D01*
X008302Y012264D01*
X008327Y012333D01*
X008356Y012400D01*
X008388Y012465D01*
X008424Y012529D01*
X008464Y012591D01*
X008506Y012650D01*
X008552Y012707D01*
X008601Y012761D01*
X008653Y012813D01*
X008707Y012862D01*
X008764Y012908D01*
X008823Y012950D01*
X008885Y012990D01*
X008949Y013026D01*
X009014Y013058D01*
X009081Y013087D01*
X009150Y013112D01*
X009220Y013134D01*
X009291Y013151D01*
X009363Y013165D01*
X009435Y013175D01*
X009508Y013181D01*
X009581Y013183D01*
X009654Y013181D01*
X009727Y013175D01*
X009799Y013165D01*
X009871Y013151D01*
X009942Y013134D01*
X010012Y013112D01*
X010081Y013087D01*
X010148Y013058D01*
X010213Y013026D01*
X010277Y012990D01*
X010339Y012950D01*
X010398Y012908D01*
X010455Y012862D01*
X010509Y012813D01*
X010561Y012761D01*
X010610Y012707D01*
X010656Y012650D01*
X010698Y012591D01*
X010738Y012529D01*
X010774Y012465D01*
X010806Y012400D01*
X010835Y012333D01*
X010860Y012264D01*
X010882Y012194D01*
X010899Y012123D01*
X010913Y012051D01*
X010923Y011979D01*
X010929Y011906D01*
X010931Y011833D01*
X010929Y011760D01*
X010923Y011687D01*
X010913Y011615D01*
X010899Y011543D01*
X010882Y011472D01*
X010860Y011402D01*
X010835Y011333D01*
X010806Y011266D01*
X010774Y011201D01*
X010738Y011137D01*
X010698Y011075D01*
X010656Y011016D01*
X010610Y010959D01*
X010561Y010905D01*
X010509Y010853D01*
X010455Y010804D01*
X010398Y010758D01*
X010339Y010716D01*
X010277Y010676D01*
X010213Y010640D01*
X010148Y010608D01*
X010081Y010579D01*
X010012Y010554D01*
X009942Y010532D01*
X009871Y010515D01*
X009799Y010501D01*
X009727Y010491D01*
X009654Y010485D01*
X009581Y010483D01*
X009508Y010485D01*
X009435Y010491D01*
X009363Y010501D01*
X009291Y010515D01*
X009220Y010532D01*
X009150Y010554D01*
X009081Y010579D01*
X009014Y010608D01*
X008949Y010640D01*
X008885Y010676D01*
X008823Y010716D01*
X008764Y010758D01*
X008707Y010804D01*
X008653Y010853D01*
X008601Y010905D01*
X008552Y010959D01*
X008506Y011016D01*
X008464Y011075D01*
X008424Y011137D01*
X008388Y011201D01*
X008356Y011266D01*
X008327Y011333D01*
X008302Y011402D01*
X008280Y011472D01*
X008263Y011543D01*
X008249Y011615D01*
X008239Y011687D01*
X008233Y011760D01*
X008231Y011833D01*
X015456Y006808D02*
X015456Y005108D01*
X015458Y005091D01*
X015462Y005074D01*
X015469Y005058D01*
X015479Y005044D01*
X015492Y005031D01*
X015506Y005021D01*
X015522Y005014D01*
X015539Y005010D01*
X015556Y005008D01*
X016356Y005008D01*
X016373Y005010D01*
X016390Y005014D01*
X016406Y005021D01*
X016420Y005031D01*
X016433Y005044D01*
X016443Y005058D01*
X016450Y005074D01*
X016454Y005091D01*
X016456Y005108D01*
X016456Y006808D01*
X016454Y006825D01*
X016450Y006842D01*
X016443Y006858D01*
X016433Y006872D01*
X016420Y006885D01*
X016406Y006895D01*
X016390Y006902D01*
X016373Y006906D01*
X016356Y006908D01*
X015556Y006908D01*
X015539Y006906D01*
X015522Y006902D01*
X015506Y006895D01*
X015492Y006885D01*
X015479Y006872D01*
X015469Y006858D01*
X015462Y006842D01*
X015458Y006825D01*
X015456Y006808D01*
X015956Y006108D02*
X015956Y006058D01*
X015956Y005858D02*
X015956Y005808D01*
X016756Y006108D02*
X016756Y007508D01*
X016856Y007508D01*
D11*
X015956Y006458D03*
X015956Y005458D03*
X012456Y007958D03*
X012456Y008958D03*
X014081Y009083D03*
X014081Y010083D03*
X011706Y011333D03*
X011706Y012333D03*
X011581Y013708D03*
X012581Y013708D03*
X011081Y014833D03*
X008081Y014833D03*
X008581Y018708D03*
X009581Y018708D03*
X014706Y018833D03*
X015706Y018833D03*
X016706Y018833D03*
X017706Y018833D03*
X018706Y018833D03*
X019706Y018833D03*
X020706Y018833D03*
X021706Y018833D03*
X022706Y018833D03*
X023706Y018833D03*
X024706Y018833D03*
X025706Y018833D03*
X026706Y018833D03*
X027706Y018833D03*
X029589Y017533D03*
X030589Y017533D03*
X031331Y017083D03*
X030581Y016083D03*
X029581Y016083D03*
X027706Y015833D03*
X026706Y015833D03*
X025706Y015833D03*
X024706Y015833D03*
X023706Y015833D03*
X022706Y015833D03*
X021706Y015833D03*
X020706Y015833D03*
X019706Y015833D03*
X018706Y015833D03*
X017706Y015833D03*
X016706Y015833D03*
X015706Y015833D03*
X014706Y015833D03*
X020081Y012333D03*
X020081Y011333D03*
X021581Y013208D03*
X022581Y013208D03*
X023456Y013208D03*
X024456Y013208D03*
X024281Y014583D03*
X022381Y014583D03*
X026331Y010208D03*
X026331Y009208D03*
X024956Y007208D03*
X024956Y006208D03*
X031831Y012083D03*
X032831Y012083D03*
X031331Y020083D03*
X023726Y021081D03*
X022726Y021081D03*
D12*
X022726Y021081D03*
X023726Y021081D03*
X023706Y018833D03*
X024706Y018833D03*
X025706Y018833D03*
X026706Y018833D03*
X027706Y018833D03*
X029589Y017533D03*
X030589Y017533D03*
X031331Y017083D03*
X030581Y016083D03*
X029581Y016083D03*
X027706Y015833D03*
X026706Y015833D03*
X025706Y015833D03*
X024706Y015833D03*
X023706Y015833D03*
X022706Y015833D03*
X021706Y015833D03*
X020706Y015833D03*
X019706Y015833D03*
X018706Y015833D03*
X017706Y015833D03*
X016706Y015833D03*
X015706Y015833D03*
X014706Y015833D03*
X012581Y013708D03*
X011581Y013708D03*
X011081Y014833D03*
X008081Y014833D03*
X011706Y012333D03*
X011706Y011333D03*
X014081Y010083D03*
X014081Y009083D03*
X012456Y008958D03*
X012456Y007958D03*
X015956Y006458D03*
X015956Y005458D03*
X020081Y011333D03*
X020081Y012333D03*
X021581Y013208D03*
X022581Y013208D03*
X023456Y013208D03*
X024456Y013208D03*
X024281Y014583D03*
X022381Y014583D03*
X022706Y018833D03*
X021706Y018833D03*
X020706Y018833D03*
X019706Y018833D03*
X018706Y018833D03*
X017706Y018833D03*
X016706Y018833D03*
X015706Y018833D03*
X014706Y018833D03*
X009581Y018708D03*
X008581Y018708D03*
X024956Y007208D03*
X024956Y006208D03*
X026331Y009208D03*
X026331Y010208D03*
X031831Y012083D03*
X032831Y012083D03*
X031331Y020083D03*
D13*
X030314Y019054D02*
X030314Y018604D01*
X030164Y018604D02*
X030464Y018604D01*
X030164Y018904D02*
X030314Y019054D01*
X030003Y018979D02*
X030003Y018679D01*
X029928Y018604D01*
X029703Y018604D01*
X029703Y019054D01*
X029928Y019054D01*
X030003Y018979D01*
X029543Y019054D02*
X029243Y019054D01*
X029243Y018604D01*
X029543Y018604D01*
X029393Y018829D02*
X029243Y018829D01*
X029083Y018604D02*
X028782Y018604D01*
X028782Y019054D01*
X033201Y017478D02*
X033651Y017478D01*
X033201Y017178D01*
X033651Y017178D01*
X033576Y017018D02*
X033276Y017018D01*
X033201Y016943D01*
X033201Y016793D01*
X033276Y016718D01*
X033576Y016718D01*
X033651Y016793D01*
X033651Y016943D01*
X033576Y017018D01*
X033645Y015212D02*
X033495Y015137D01*
X033345Y014987D01*
X033570Y014987D01*
X033645Y014912D01*
X033645Y014837D01*
X033570Y014761D01*
X033420Y014761D01*
X033345Y014837D01*
X033345Y014987D01*
X033185Y015137D02*
X033110Y015212D01*
X032959Y015212D01*
X032884Y015137D01*
X032884Y014837D01*
X032959Y014761D01*
X033110Y014761D01*
X033185Y014837D01*
X030467Y014787D02*
X030467Y014712D01*
X030392Y014636D01*
X030242Y014636D01*
X030167Y014712D01*
X030006Y014712D02*
X029931Y014636D01*
X029781Y014636D01*
X029706Y014712D01*
X029706Y015012D01*
X029781Y015087D01*
X029931Y015087D01*
X030006Y015012D01*
X030167Y015012D02*
X030242Y015087D01*
X030392Y015087D01*
X030467Y015012D01*
X030467Y014937D01*
X030392Y014862D01*
X030467Y014787D01*
X030392Y014862D02*
X030317Y014862D01*
X028721Y012534D02*
X028721Y012083D01*
X028571Y012083D02*
X028871Y012083D01*
X028571Y012384D02*
X028721Y012534D01*
X028410Y012459D02*
X028410Y012309D01*
X028335Y012233D01*
X028110Y012233D01*
X028110Y012083D02*
X028110Y012534D01*
X028335Y012534D01*
X028410Y012459D01*
X028260Y012233D02*
X028410Y012083D01*
X027950Y012158D02*
X027875Y012083D01*
X027725Y012083D01*
X027650Y012158D01*
X027650Y012459D01*
X027725Y012534D01*
X027875Y012534D01*
X027950Y012459D01*
X028981Y011158D02*
X032681Y011158D01*
X032781Y011058D01*
X032831Y009908D01*
X032501Y010918D02*
X032503Y010938D01*
X032509Y010956D01*
X032518Y010974D01*
X032530Y010989D01*
X032545Y011001D01*
X032563Y011010D01*
X032581Y011016D01*
X032601Y011018D01*
X032621Y011016D01*
X032639Y011010D01*
X032657Y011001D01*
X032672Y010989D01*
X032684Y010974D01*
X032693Y010956D01*
X032699Y010938D01*
X032701Y010918D01*
X032699Y010898D01*
X032693Y010880D01*
X032684Y010862D01*
X032672Y010847D01*
X032657Y010835D01*
X032639Y010826D01*
X032621Y010820D01*
X032601Y010818D01*
X032581Y010820D01*
X032563Y010826D01*
X032545Y010835D01*
X032530Y010847D01*
X032518Y010862D01*
X032509Y010880D01*
X032503Y010898D01*
X032501Y010918D01*
X028981Y011158D02*
X028881Y011058D01*
X028831Y009908D01*
X026827Y008409D02*
X026827Y007958D01*
X026677Y007958D02*
X026977Y007958D01*
X026677Y008259D02*
X026827Y008409D01*
X026517Y008334D02*
X026216Y008033D01*
X026291Y007958D01*
X026442Y007958D01*
X026517Y008033D01*
X026517Y008334D01*
X026442Y008409D01*
X026291Y008409D01*
X026216Y008334D01*
X026216Y008033D01*
X026056Y007958D02*
X026056Y008409D01*
X025906Y008259D01*
X025756Y008409D01*
X025756Y007958D01*
X025631Y008833D02*
X025706Y008908D01*
X025706Y009059D01*
X025631Y009134D01*
X025481Y009294D02*
X025256Y009519D01*
X025706Y009519D01*
X025481Y009594D02*
X025481Y009294D01*
X025331Y009134D02*
X025256Y009059D01*
X025256Y008908D01*
X025331Y008833D01*
X025631Y008833D01*
X024256Y006594D02*
X024106Y006594D01*
X024031Y006519D01*
X024031Y006444D01*
X024106Y006294D01*
X023881Y006294D01*
X023881Y006594D01*
X024256Y006594D02*
X024331Y006519D01*
X024331Y006369D01*
X024256Y006294D01*
X024256Y006134D02*
X024331Y006059D01*
X024331Y005908D01*
X024256Y005833D01*
X023956Y005833D01*
X023881Y005908D01*
X023881Y006059D01*
X023956Y006134D01*
X019393Y010453D02*
X019393Y010904D01*
X019168Y010679D01*
X019468Y010679D01*
X019007Y010453D02*
X018707Y010453D01*
X018857Y010453D02*
X018857Y010904D01*
X018707Y010754D01*
X018547Y010829D02*
X018472Y010904D01*
X018247Y010904D01*
X018247Y010453D01*
X018472Y010453D01*
X018547Y010528D01*
X018547Y010829D01*
X018087Y010904D02*
X018087Y010453D01*
X017786Y010904D01*
X017786Y010453D01*
X017626Y010528D02*
X017626Y010679D01*
X017476Y010679D01*
X017326Y010829D02*
X017326Y010528D01*
X017401Y010453D01*
X017551Y010453D01*
X017626Y010528D01*
X017626Y010829D02*
X017551Y010904D01*
X017401Y010904D01*
X017326Y010829D01*
X017526Y012203D02*
X017451Y012278D01*
X017526Y012203D02*
X017676Y012203D01*
X017751Y012278D01*
X017751Y012429D01*
X017676Y012504D01*
X017601Y012504D01*
X017451Y012429D01*
X017451Y012654D01*
X017751Y012654D01*
X017911Y012654D02*
X017911Y012353D01*
X018061Y012203D01*
X018212Y012353D01*
X018212Y012654D01*
X014996Y016733D02*
X014996Y016884D01*
X014996Y016809D02*
X014546Y016809D01*
X014546Y016884D02*
X014546Y016733D01*
X014621Y017040D02*
X014921Y017040D01*
X014996Y017115D01*
X014996Y017266D01*
X014921Y017341D01*
X014996Y017501D02*
X014996Y017801D01*
X014996Y017651D02*
X014546Y017651D01*
X014696Y017501D01*
X014621Y017341D02*
X014546Y017266D01*
X014546Y017115D01*
X014621Y017040D01*
X013177Y014784D02*
X013027Y014709D01*
X012877Y014559D01*
X013102Y014559D01*
X013177Y014483D01*
X013177Y014408D01*
X013102Y014333D01*
X012952Y014333D01*
X012877Y014408D01*
X012877Y014559D01*
X012717Y014333D02*
X012416Y014333D01*
X012566Y014333D02*
X012566Y014784D01*
X012416Y014634D01*
X012256Y014709D02*
X012181Y014784D01*
X012031Y014784D01*
X011956Y014709D01*
X011956Y014408D01*
X012031Y014333D01*
X012181Y014333D01*
X012256Y014408D01*
X010556Y012404D02*
X010256Y012404D01*
X010556Y012104D01*
X010631Y012179D01*
X010631Y012329D01*
X010556Y012404D01*
X010556Y012104D02*
X010256Y012104D01*
X010181Y012179D01*
X010181Y012329D01*
X010256Y012404D01*
X010631Y011944D02*
X010631Y011644D01*
X010631Y011794D02*
X010181Y011794D01*
X010331Y011644D01*
X010256Y011484D02*
X010181Y011409D01*
X010181Y011258D01*
X010256Y011183D01*
X010556Y011183D01*
X010631Y011258D01*
X010631Y011409D01*
X010556Y011484D01*
X010581Y011104D02*
X010881Y010804D01*
X010956Y010879D01*
X010956Y011029D01*
X010881Y011104D01*
X010581Y011104D01*
X010506Y011029D01*
X010506Y010879D01*
X010581Y010804D01*
X010881Y010804D01*
X010956Y010644D02*
X010956Y010344D01*
X010956Y010494D02*
X010506Y010494D01*
X010656Y010344D01*
X010506Y010184D02*
X010956Y010184D01*
X010956Y009883D02*
X010506Y009883D01*
X010656Y010033D01*
X010506Y010184D01*
X008331Y013483D02*
X008331Y013784D01*
X008331Y013633D02*
X007881Y013633D01*
X008031Y013483D01*
X006531Y013459D02*
X006456Y013534D01*
X006531Y013459D02*
X006531Y013308D01*
X006456Y013233D01*
X006156Y013233D01*
X006081Y013308D01*
X006081Y013459D01*
X006156Y013534D01*
X006156Y013694D02*
X006456Y013694D01*
X006531Y013769D01*
X006531Y013919D01*
X006456Y013994D01*
X006156Y013994D01*
X006081Y013919D01*
X006081Y013769D01*
X006156Y013694D01*
X006081Y014154D02*
X006531Y014454D01*
X006081Y014454D01*
X006231Y014615D02*
X006081Y014765D01*
X006531Y014765D01*
X006531Y014615D02*
X006531Y014915D01*
X006531Y014154D02*
X006081Y014154D01*
X006306Y018483D02*
X006306Y018709D01*
X006381Y018784D01*
X006456Y018784D01*
X006531Y018709D01*
X006531Y018558D01*
X006456Y018483D01*
X006306Y018483D01*
X006156Y018633D01*
X006081Y018784D01*
X008131Y020083D02*
X008131Y020384D01*
X008206Y020459D01*
X008356Y020459D01*
X008431Y020384D01*
X008591Y020459D02*
X008591Y020008D01*
X008591Y020158D02*
X008817Y020158D01*
X008892Y020234D01*
X008892Y020384D01*
X008817Y020459D01*
X008591Y020459D01*
X008741Y020158D02*
X008892Y020008D01*
X009052Y020008D02*
X009352Y020008D01*
X009512Y020083D02*
X009587Y020008D01*
X009737Y020008D01*
X009812Y020083D01*
X009812Y020158D01*
X009737Y020234D01*
X009587Y020234D01*
X009512Y020309D01*
X009512Y020384D01*
X009587Y020459D01*
X009737Y020459D01*
X009812Y020384D01*
X009973Y020459D02*
X009973Y020008D01*
X010273Y020008D01*
X010123Y020234D02*
X009973Y020234D01*
X009973Y020459D02*
X010273Y020459D01*
X010433Y020459D02*
X010733Y020459D01*
X010583Y020459D02*
X010583Y020008D01*
X009352Y020459D02*
X009052Y020459D01*
X009052Y020008D01*
X009052Y020234D02*
X009202Y020234D01*
X008431Y020083D02*
X008356Y020008D01*
X008206Y020008D01*
X008131Y020083D01*
X025606Y014659D02*
X025606Y014358D01*
X025681Y014283D01*
X025831Y014283D01*
X025906Y014358D01*
X025906Y014659D01*
X025831Y014734D01*
X025681Y014734D01*
X025606Y014659D01*
X025756Y014433D02*
X025906Y014283D01*
X026066Y014283D02*
X026367Y014283D01*
X026216Y014283D02*
X026216Y014734D01*
X026066Y014584D01*
X011021Y005334D02*
X011021Y004883D01*
X010871Y004883D02*
X011171Y004883D01*
X010871Y005184D02*
X011021Y005334D01*
X010560Y005334D02*
X010560Y004883D01*
X010410Y004883D02*
X010710Y004883D01*
X010410Y005184D02*
X010560Y005334D01*
X010250Y005334D02*
X010100Y005184D01*
X009950Y005334D01*
X009950Y004883D01*
X010250Y004883D02*
X010250Y005334D01*
D14*
X018195Y017008D02*
X018195Y017428D01*
X018405Y017639D01*
X018615Y017428D01*
X018615Y017008D01*
X018615Y017323D02*
X018195Y017323D01*
X018840Y017639D02*
X019260Y017639D01*
X019050Y017639D02*
X019050Y017008D01*
X019484Y017008D02*
X019484Y017428D01*
X019589Y017428D01*
X019694Y017323D01*
X019799Y017428D01*
X019905Y017323D01*
X019905Y017008D01*
X019694Y017008D02*
X019694Y017323D01*
X020129Y017323D02*
X020234Y017428D01*
X020444Y017428D01*
X020549Y017323D01*
X020549Y017218D01*
X020129Y017218D01*
X020129Y017113D02*
X020129Y017323D01*
X020129Y017113D02*
X020234Y017008D01*
X020444Y017008D01*
X020773Y017113D02*
X020878Y017008D01*
X021194Y017008D01*
X021194Y016903D02*
X021194Y017428D01*
X020878Y017428D01*
X020773Y017323D01*
X020773Y017113D01*
X020983Y016798D02*
X021089Y016798D01*
X021194Y016903D01*
X021418Y017113D02*
X021523Y017218D01*
X021838Y017218D01*
X021838Y017323D02*
X021838Y017008D01*
X021523Y017008D01*
X021418Y017113D01*
X021523Y017428D02*
X021733Y017428D01*
X021838Y017323D01*
X022062Y017428D02*
X022273Y017639D01*
X022273Y017008D01*
X022483Y017008D02*
X022062Y017008D01*
X022707Y017113D02*
X022812Y017008D01*
X023022Y017008D01*
X023127Y017113D01*
X023127Y017218D01*
X023022Y017323D01*
X022707Y017323D01*
X022707Y017113D01*
X022707Y017323D02*
X022917Y017533D01*
X023127Y017639D01*
X023352Y017533D02*
X023457Y017639D01*
X023667Y017639D01*
X023772Y017533D01*
X023772Y017428D01*
X023667Y017323D01*
X023457Y017323D01*
X023352Y017428D01*
X023352Y017533D01*
X023457Y017323D02*
X023352Y017218D01*
X023352Y017113D01*
X023457Y017008D01*
X023667Y017008D01*
X023772Y017113D01*
X023772Y017218D01*
X023667Y017323D01*
X028753Y009274D02*
X028964Y009274D01*
X028859Y009274D02*
X028859Y008643D01*
X028964Y008643D02*
X028753Y008643D01*
X029183Y008748D02*
X029288Y008643D01*
X029498Y008643D01*
X029604Y008748D01*
X029828Y008643D02*
X030248Y009064D01*
X030248Y009169D01*
X030143Y009274D01*
X029933Y009274D01*
X029828Y009169D01*
X029604Y009169D02*
X029498Y009274D01*
X029288Y009274D01*
X029183Y009169D01*
X029183Y008748D01*
X029828Y008643D02*
X030248Y008643D01*
D15*
X030831Y009058D02*
X030831Y009858D01*
X030431Y009458D02*
X031231Y009458D01*
X030331Y011558D02*
X030331Y012358D01*
X029931Y011958D02*
X030731Y011958D01*
X031931Y012083D02*
X032731Y012083D01*
X032331Y011683D02*
X032331Y012483D01*
X032956Y013683D02*
X032956Y014483D01*
X032556Y014083D02*
X033356Y014083D01*
X032456Y016183D02*
X032456Y016983D01*
X032056Y016583D02*
X032856Y016583D01*
X032456Y017777D02*
X032456Y018390D01*
X032149Y018083D02*
X032763Y018083D01*
X033399Y018083D02*
X034013Y018083D01*
X033706Y017777D02*
X033706Y018390D01*
X031731Y018583D02*
X030931Y018583D01*
X031331Y018183D02*
X031331Y018983D01*
X030089Y017933D02*
X030089Y017133D01*
X029689Y017533D02*
X030489Y017533D01*
X030081Y016483D02*
X030081Y015683D01*
X029681Y016083D02*
X030481Y016083D01*
X030081Y014358D02*
X030081Y013558D01*
X029681Y013958D02*
X030481Y013958D01*
X027331Y010515D02*
X027331Y009902D01*
X027024Y010208D02*
X027638Y010208D01*
X026731Y009708D02*
X025931Y009708D01*
X026331Y009308D02*
X026331Y010108D01*
X026081Y007608D02*
X026081Y006808D01*
X025681Y007208D02*
X026481Y007208D01*
X025356Y006708D02*
X024556Y006708D01*
X024956Y006308D02*
X024956Y007108D01*
X020856Y006208D02*
X020056Y006208D01*
X020456Y005808D02*
X020456Y006608D01*
X016356Y005958D02*
X015556Y005958D01*
X015956Y005558D02*
X015956Y006358D01*
X012856Y008458D02*
X012056Y008458D01*
X012456Y008058D02*
X012456Y008858D01*
X011581Y009433D02*
X011581Y010233D01*
X011181Y009833D02*
X011981Y009833D01*
X011706Y011433D02*
X011706Y012233D01*
X011306Y011833D02*
X012106Y011833D01*
X009981Y011833D02*
X009181Y011833D01*
X009581Y011433D02*
X009581Y012233D01*
X011681Y013708D02*
X012481Y013708D01*
X012081Y013308D02*
X012081Y014108D01*
X009981Y014833D02*
X009181Y014833D01*
X009581Y014433D02*
X009581Y015233D01*
X007606Y016208D02*
X006806Y016208D01*
X007206Y015808D02*
X007206Y016608D01*
X009081Y018308D02*
X009081Y019108D01*
X008681Y018708D02*
X009481Y018708D01*
X011556Y017146D02*
X012356Y017146D01*
X011956Y016746D02*
X011956Y017546D01*
X015478Y020208D02*
X016184Y020208D01*
X015831Y019855D02*
X015831Y020562D01*
X020806Y017333D02*
X021606Y017333D01*
X021206Y016933D02*
X021206Y017733D01*
X021331Y019855D02*
X021331Y020562D01*
X020978Y020208D02*
X021684Y020208D01*
X022826Y021081D02*
X023626Y021081D01*
X023226Y020681D02*
X023226Y021481D01*
X024728Y020083D02*
X025434Y020083D01*
X025081Y019730D02*
X025081Y020437D01*
X027728Y019958D02*
X028434Y019958D01*
X028081Y019605D02*
X028081Y020312D01*
X023331Y014983D02*
X023331Y014183D01*
X022931Y014583D02*
X023731Y014583D01*
X023956Y013608D02*
X023956Y012808D01*
X023556Y013208D02*
X024356Y013208D01*
X022481Y013208D02*
X021681Y013208D01*
X022081Y012808D02*
X022081Y013608D01*
X020081Y012233D02*
X020081Y011433D01*
X019681Y011833D02*
X020481Y011833D01*
X017331Y014355D02*
X017331Y015062D01*
X016978Y014708D02*
X017684Y014708D01*
X015184Y012333D02*
X014478Y012333D01*
X014831Y011980D02*
X014831Y012687D01*
X014831Y011608D02*
X014831Y010808D01*
X014431Y011208D02*
X015231Y011208D01*
X014081Y009983D02*
X014081Y009183D01*
X013681Y009583D02*
X014481Y009583D01*
X010581Y006233D02*
X010581Y005433D01*
X010181Y005833D02*
X010981Y005833D01*
D16*
X012156Y008358D02*
X012456Y008358D01*
X012756Y008358D01*
X012756Y008558D02*
X012456Y008558D01*
X012156Y008558D01*
X013781Y009483D02*
X014081Y009483D01*
X014381Y009483D01*
X014381Y009683D02*
X014081Y009683D01*
X013781Y009683D01*
X012006Y011733D02*
X011706Y011733D01*
X011406Y011733D01*
X011406Y011933D02*
X011706Y011933D01*
X012006Y011933D01*
X011981Y013408D02*
X011981Y013708D01*
X011981Y014008D01*
X012181Y014008D02*
X012181Y013708D01*
X012181Y013408D01*
X009181Y018408D02*
X009181Y018708D01*
X009181Y019008D01*
X008981Y019008D02*
X008981Y018708D01*
X008981Y018408D01*
X019781Y011933D02*
X020081Y011933D01*
X020381Y011933D01*
X020381Y011733D02*
X020081Y011733D01*
X019781Y011733D01*
X026031Y009808D02*
X026331Y009808D01*
X026631Y009808D01*
X026631Y009608D02*
X026331Y009608D01*
X026031Y009608D01*
X025256Y006808D02*
X024956Y006808D01*
X024656Y006808D01*
X024656Y006608D02*
X024956Y006608D01*
X025256Y006608D01*
X032231Y011783D02*
X032231Y012083D01*
X032231Y012383D01*
X032431Y012383D02*
X032431Y012083D01*
X032431Y011783D01*
X030181Y015783D02*
X030181Y016083D01*
X030181Y016383D01*
X029981Y016383D02*
X029981Y016083D01*
X029981Y015783D01*
X030089Y016733D02*
X030033Y016735D01*
X029977Y016741D01*
X029922Y016751D01*
X029868Y016764D01*
X029814Y016782D01*
X029762Y016803D01*
X029712Y016827D01*
X029663Y016856D01*
X029617Y016887D01*
X029573Y016922D01*
X029531Y016959D01*
X029493Y017000D01*
X029457Y017043D01*
X029424Y017088D01*
X029394Y017136D01*
X030089Y018333D02*
X030143Y018331D01*
X030196Y018326D01*
X030250Y018317D01*
X030302Y018304D01*
X030353Y018288D01*
X030404Y018268D01*
X030453Y018246D01*
X030500Y018220D01*
X030545Y018190D01*
X030588Y018158D01*
X030629Y018123D01*
X030668Y018085D01*
X030704Y018045D01*
X030089Y018333D02*
X030035Y018331D01*
X029981Y018326D01*
X029928Y018317D01*
X029875Y018304D01*
X029824Y018288D01*
X029774Y018268D01*
X029725Y018245D01*
X029677Y018219D01*
X029632Y018190D01*
X029589Y018157D01*
X029548Y018122D01*
X029509Y018084D01*
X029473Y018044D01*
X029440Y018001D01*
X029410Y017956D01*
X029383Y017909D01*
X030089Y016733D02*
X030142Y016735D01*
X030196Y016740D01*
X030248Y016749D01*
X030300Y016761D01*
X030351Y016777D01*
X030401Y016796D01*
X030450Y016819D01*
X030497Y016845D01*
X030542Y016873D01*
X030585Y016905D01*
X030625Y016939D01*
X030664Y016977D01*
X030700Y017016D01*
X023326Y020781D02*
X023326Y021081D01*
X023326Y021381D01*
X023126Y021381D02*
X023126Y021081D01*
X023126Y020781D01*
X016256Y006058D02*
X015956Y006058D01*
X015656Y006058D01*
X015656Y005858D02*
X015956Y005858D01*
X016256Y005858D01*
D17*
X012369Y015249D02*
X012088Y015249D01*
X012229Y015249D02*
X012229Y015670D01*
X012088Y015530D01*
X011908Y015600D02*
X011838Y015670D01*
X011698Y015670D01*
X011628Y015600D01*
X011628Y015530D01*
X011698Y015459D01*
X011838Y015459D01*
X011908Y015389D01*
X011908Y015319D01*
X011838Y015249D01*
X011698Y015249D01*
X011628Y015319D01*
X021694Y020899D02*
X021764Y020829D01*
X022045Y020829D01*
X022115Y020899D01*
X022115Y021039D01*
X022045Y021109D01*
X022115Y021289D02*
X022115Y021569D01*
X022115Y021429D02*
X021694Y021429D01*
X021834Y021289D01*
X021764Y021109D02*
X021694Y021039D01*
X021694Y020899D01*
D18*
X029581Y013958D03*
X030581Y013958D03*
X032456Y014083D03*
X033456Y014083D03*
X009581Y012333D03*
X009581Y011333D03*
D19*
X010756Y016696D02*
X010856Y016696D01*
X010856Y017646D01*
X010756Y017646D01*
X013056Y017646D02*
X013056Y016646D01*
X013156Y016646D01*
X013156Y017646D02*
X013056Y017646D01*
D20*
X012846Y018426D03*
X011066Y018426D03*
X013331Y020208D03*
X014331Y020208D03*
X015331Y020208D03*
X016331Y020208D03*
X017331Y020208D03*
X018331Y020208D03*
X021331Y020208D03*
X024581Y020083D03*
X025581Y020083D03*
X027581Y019958D03*
X028581Y019958D03*
X032456Y017083D03*
X032456Y016083D03*
X031831Y010458D03*
X030831Y010458D03*
X029831Y010458D03*
X017831Y014708D03*
X016831Y014708D03*
X016831Y012333D03*
X015831Y012333D03*
X014831Y012333D03*
X013831Y012333D03*
X012831Y012333D03*
X012831Y011208D03*
X013831Y011208D03*
X014831Y011208D03*
X015831Y011208D03*
X016831Y011208D03*
X012846Y015866D03*
X011066Y015866D03*
X007206Y015708D03*
X007206Y016708D03*
X007206Y017708D03*
X007206Y018708D03*
X007206Y014708D03*
X007206Y013708D03*
D21*
X007206Y013708D03*
X007206Y014708D03*
X007206Y015708D03*
X007206Y016708D03*
X007206Y017708D03*
X007206Y018708D03*
X011066Y018426D03*
X012846Y018426D03*
X013331Y020208D03*
X014331Y020208D03*
X015331Y020208D03*
X016331Y020208D03*
X017331Y020208D03*
X018331Y020208D03*
X021331Y020208D03*
X024581Y020083D03*
X025581Y020083D03*
X027581Y019958D03*
X028581Y019958D03*
X032456Y017083D03*
X032456Y016083D03*
X031831Y010458D03*
X030831Y010458D03*
X029831Y010458D03*
X017831Y014708D03*
X016831Y014708D03*
X016831Y012333D03*
X015831Y012333D03*
X014831Y012333D03*
X013831Y012333D03*
X012831Y012333D03*
X012831Y011208D03*
X013831Y011208D03*
X014831Y011208D03*
X015831Y011208D03*
X016831Y011208D03*
X012846Y015866D03*
X011066Y015866D03*
D22*
X030831Y009608D03*
D23*
X029106Y009858D03*
X032556Y009858D03*
D24*
X031331Y009858D03*
X030331Y009858D03*
D25*
X030831Y011958D03*
X029831Y011958D03*
D26*
X029831Y011958D03*
X030831Y011958D03*
D27*
X029281Y011958D03*
D28*
X023956Y009208D03*
X022956Y009208D03*
X021956Y009208D03*
X020956Y009208D03*
X019956Y009208D03*
X018956Y009208D03*
X017956Y009208D03*
X016956Y009208D03*
X017456Y007208D03*
X018456Y007208D03*
X019456Y007208D03*
X020456Y007208D03*
X021456Y007208D03*
X022456Y007208D03*
X023456Y007208D03*
D29*
X023456Y007208D03*
X022456Y007208D03*
X021456Y007208D03*
X020456Y007208D03*
X019456Y007208D03*
X018456Y007208D03*
X017456Y007208D03*
X017956Y009208D03*
X016956Y009208D03*
X018956Y009208D03*
X019956Y009208D03*
X020956Y009208D03*
X021956Y009208D03*
X022956Y009208D03*
X023956Y009208D03*
D30*
X023995Y009799D02*
X023688Y009799D01*
X023841Y009799D02*
X023841Y010259D01*
X023688Y010105D01*
X023465Y006689D02*
X023311Y006689D01*
X023235Y006612D01*
X023465Y006689D02*
X023542Y006612D01*
X023542Y006535D01*
X023235Y006228D01*
X023542Y006228D01*
X020948Y005084D02*
X020641Y005084D01*
X020871Y005314D01*
X020871Y004853D01*
X020487Y004930D02*
X020410Y004853D01*
X020257Y004853D01*
X020180Y004930D01*
X020180Y005237D01*
X020257Y005314D01*
X020410Y005314D01*
X020487Y005237D01*
X020027Y005314D02*
X019873Y005314D01*
X019950Y005314D02*
X019950Y004853D01*
X019873Y004853D02*
X020027Y004853D01*
X017620Y006228D02*
X017620Y006689D01*
X017390Y006459D01*
X017697Y006459D01*
X017237Y006228D02*
X016930Y006228D01*
X017083Y006228D02*
X017083Y006689D01*
X016930Y006535D01*
X016920Y009775D02*
X016843Y009852D01*
X016920Y009775D02*
X017073Y009775D01*
X017150Y009852D01*
X017150Y010005D01*
X017073Y010082D01*
X016997Y010082D01*
X016843Y010005D01*
X016843Y010236D01*
X017150Y010236D01*
X016536Y010236D02*
X016536Y009775D01*
X016383Y009775D02*
X016690Y009775D01*
X016383Y010082D02*
X016536Y010236D01*
X010417Y013953D02*
X010417Y014304D01*
X010242Y014128D01*
X010475Y014128D01*
X010116Y014128D02*
X010116Y014245D01*
X010058Y014304D01*
X009883Y014304D01*
X009883Y013953D01*
X009883Y014070D02*
X010058Y014070D01*
X010116Y014128D01*
X010000Y014070D02*
X010116Y013953D01*
X030486Y019760D02*
X030486Y019935D01*
X030544Y019994D01*
X030661Y019994D01*
X030719Y019935D01*
X030719Y019760D01*
X030719Y019877D02*
X030836Y019994D01*
X030778Y020119D02*
X030836Y020178D01*
X030836Y020294D01*
X030778Y020353D01*
X030719Y020353D01*
X030661Y020294D01*
X030661Y020236D01*
X030661Y020294D02*
X030602Y020353D01*
X030544Y020353D01*
X030486Y020294D01*
X030486Y020178D01*
X030544Y020119D01*
X030486Y019760D02*
X030836Y019760D01*
D31*
X020456Y005810D03*
D32*
X026081Y007208D03*
X027331Y010208D03*
X032456Y018083D03*
X033706Y018083D03*
X011581Y009833D03*
X010581Y005833D03*
D33*
X010581Y005833D03*
X011581Y009833D03*
X026081Y007208D03*
X027331Y010208D03*
X032456Y018083D03*
X033706Y018083D03*
D34*
X024531Y015433D02*
X022131Y015433D01*
X022074Y015431D01*
X022018Y015425D01*
X021962Y015416D01*
X021906Y015403D01*
X021852Y015386D01*
X021799Y015366D01*
X021748Y015342D01*
X021698Y015314D01*
X021650Y015284D01*
X021604Y015250D01*
X021561Y015213D01*
X021520Y015174D01*
X021482Y015132D01*
X021447Y015087D01*
X021415Y015040D01*
X021386Y014991D01*
X021360Y014941D01*
X021338Y014888D01*
X021319Y014835D01*
X021304Y014780D01*
X021293Y014724D01*
X021285Y014668D01*
X021281Y014611D01*
X021281Y014555D01*
X021285Y014498D01*
X021293Y014442D01*
X021304Y014386D01*
X021319Y014331D01*
X021338Y014278D01*
X021360Y014225D01*
X021386Y014175D01*
X021415Y014126D01*
X021447Y014079D01*
X021482Y014034D01*
X021520Y013992D01*
X021561Y013953D01*
X021604Y013916D01*
X021650Y013882D01*
X021698Y013852D01*
X021748Y013824D01*
X021799Y013800D01*
X021852Y013780D01*
X021906Y013763D01*
X021962Y013750D01*
X022018Y013741D01*
X022074Y013735D01*
X022131Y013733D01*
X024531Y013733D01*
X024588Y013735D01*
X024644Y013741D01*
X024700Y013750D01*
X024756Y013763D01*
X024810Y013780D01*
X024863Y013800D01*
X024914Y013824D01*
X024964Y013852D01*
X025012Y013882D01*
X025058Y013916D01*
X025101Y013953D01*
X025142Y013992D01*
X025180Y014034D01*
X025215Y014079D01*
X025247Y014126D01*
X025276Y014175D01*
X025302Y014225D01*
X025324Y014278D01*
X025343Y014331D01*
X025358Y014386D01*
X025369Y014442D01*
X025377Y014498D01*
X025381Y014555D01*
X025381Y014611D01*
X025377Y014668D01*
X025369Y014724D01*
X025358Y014780D01*
X025343Y014835D01*
X025324Y014888D01*
X025302Y014941D01*
X025276Y014991D01*
X025247Y015040D01*
X025215Y015087D01*
X025180Y015132D01*
X025142Y015174D01*
X025101Y015213D01*
X025058Y015250D01*
X025012Y015284D01*
X024964Y015314D01*
X024914Y015342D01*
X024863Y015366D01*
X024810Y015386D01*
X024756Y015403D01*
X024700Y015416D01*
X024644Y015425D01*
X024588Y015431D01*
X024531Y015433D01*
D35*
X024086Y013508D02*
X024086Y012908D01*
X023836Y012908D02*
X023836Y013508D01*
X022201Y013508D02*
X022201Y012908D01*
X021951Y012908D02*
X021951Y013508D01*
D36*
X031331Y017508D03*
X031331Y019658D03*
D37*
X010656Y014833D03*
X008506Y014833D03*
D38*
X008081Y014833D02*
X008081Y014458D01*
X009081Y013458D01*
X011331Y013458D01*
X011581Y013708D01*
X011206Y013208D02*
X011331Y013083D01*
X017956Y013083D01*
X019706Y014833D01*
X019706Y015708D01*
X020706Y015833D02*
X020706Y012958D01*
X020081Y012333D01*
X009581Y012333D01*
X011706Y012333D01*
X012831Y012333D01*
X013831Y012333D01*
X014831Y012333D01*
X015831Y012333D01*
X016831Y012333D01*
X019956Y012333D01*
X021581Y013208D02*
X022381Y014008D01*
X022381Y014583D01*
X022381Y015508D01*
X022706Y015833D01*
X023706Y015833D02*
X023706Y015208D01*
X024281Y014633D01*
X024281Y014583D01*
X024281Y013383D01*
X024456Y013208D01*
X024956Y012208D02*
X025956Y013208D01*
X025956Y014208D01*
X024706Y015458D01*
X024706Y015833D01*
X025706Y015833D02*
X025706Y016708D01*
X025956Y016958D01*
X028081Y016958D01*
X028456Y016583D01*
X028456Y009833D01*
X026706Y008083D01*
X022081Y008083D01*
X021456Y007458D01*
X021456Y007208D01*
X019456Y007208D02*
X019456Y004583D01*
X019956Y004083D01*
X032831Y004083D01*
X035206Y006458D01*
X035206Y019458D01*
X033706Y020958D01*
X027206Y020958D01*
X026706Y020458D01*
X026706Y020083D01*
X025831Y019208D01*
X025831Y018958D01*
X025706Y018833D01*
X026706Y018833D02*
X026706Y019083D01*
X027581Y019958D01*
X027706Y019083D02*
X028581Y019958D01*
X027706Y019083D02*
X027706Y018833D01*
X029413Y017708D02*
X029589Y017533D01*
X029389Y017333D01*
X023456Y017333D01*
X022706Y018083D01*
X022706Y018833D01*
X022706Y021061D01*
X022726Y021081D01*
X021331Y020208D02*
X021331Y020083D01*
X021706Y019708D01*
X021706Y018833D01*
X021706Y018708D01*
X022706Y018833D02*
X020831Y016958D01*
X020831Y015958D01*
X020706Y015833D01*
X018706Y015833D02*
X017831Y014958D01*
X017831Y014708D01*
X016831Y014708D02*
X016831Y014958D01*
X017706Y015833D01*
X016706Y015833D02*
X016706Y016458D01*
X015456Y017708D01*
X007206Y017708D01*
X007081Y016833D02*
X007206Y016708D01*
X015081Y016708D01*
X015706Y016083D01*
X015706Y015833D01*
X014706Y015833D02*
X014706Y015083D01*
X014581Y014958D01*
X012456Y014958D01*
X011658Y015756D01*
X011081Y015756D01*
X011081Y014833D01*
X011081Y015756D02*
X010956Y015756D01*
X011066Y015866D01*
X008081Y015708D02*
X008081Y014833D01*
X008081Y015708D02*
X007206Y015708D01*
X006581Y015708D01*
X006456Y015583D01*
X006456Y013208D01*
X007206Y012458D01*
X009581Y012458D01*
X009518Y012396D01*
X008581Y011458D01*
X008581Y009208D01*
X009831Y007958D01*
X014956Y007958D01*
X015206Y008208D01*
X015206Y008333D01*
X019456Y008333D01*
X018956Y009208D02*
X018956Y009708D01*
X019456Y010208D01*
X021081Y010208D01*
X023081Y012208D01*
X024956Y012208D01*
X025206Y011583D02*
X023331Y011583D01*
X020956Y009208D01*
X021956Y009208D02*
X021956Y009458D01*
X023456Y010958D01*
X025331Y010958D01*
X027706Y013333D01*
X027706Y015833D01*
X027706Y015708D01*
X026706Y015833D02*
X026706Y013083D01*
X025206Y011583D01*
X026331Y010208D02*
X027456Y010208D01*
X029831Y010458D02*
X029831Y011958D01*
X029956Y011833D01*
X029956Y011333D01*
X029956Y011833D02*
X029956Y011958D01*
X029831Y012083D01*
X029831Y012583D01*
X029581Y012833D01*
X029581Y013958D01*
X029581Y016083D01*
X029589Y016091D01*
X029589Y017533D01*
X030589Y017533D02*
X030756Y017533D01*
X031331Y017083D01*
X025581Y020083D02*
X024706Y019208D01*
X024706Y018833D01*
X023706Y018833D02*
X023706Y019208D01*
X024581Y020083D01*
X019706Y018833D02*
X018331Y020208D01*
X017331Y020208D02*
X018706Y018833D01*
X017706Y018833D02*
X016331Y020208D01*
X015331Y020208D02*
X016706Y018833D01*
X015706Y018833D02*
X014331Y020208D01*
X013331Y020208D02*
X014706Y018833D01*
X011081Y018458D02*
X011066Y018443D01*
X011066Y018426D01*
X010783Y018708D01*
X009581Y018708D01*
X008581Y018708D02*
X007206Y018708D01*
X008331Y013208D02*
X011206Y013208D01*
X008331Y013208D02*
X007456Y012333D01*
X007456Y009708D01*
X010206Y006958D01*
X013081Y006958D01*
X013706Y007583D01*
X015956Y007583D01*
X016581Y008208D01*
X017831Y008208D01*
X018456Y007583D01*
X018456Y007208D01*
X014706Y015833D02*
X014673Y015866D01*
X029831Y012083D02*
X029831Y011958D01*
D39*
X019956Y009208D02*
X019956Y008833D01*
X019456Y008333D01*
X015331Y008333D01*
X014956Y007958D01*
X012456Y007958D01*
D40*
X020831Y015958D03*
D41*
X009581Y012333D02*
X009518Y012396D01*
D42*
X006031Y003658D02*
X006031Y021883D01*
X024256Y021883D01*
X036381Y021834D01*
X036381Y010884D01*
X036331Y003658D01*
X006031Y003658D01*
X006031Y003664D02*
X036332Y003664D01*
X036333Y003902D02*
X033213Y003902D01*
X033168Y003858D02*
X035431Y006121D01*
X035431Y006121D01*
X035543Y006233D01*
X035604Y006379D01*
X035604Y019538D01*
X035543Y019684D01*
X035431Y019796D01*
X033931Y021296D01*
X033785Y021356D01*
X027127Y021356D01*
X026980Y021296D01*
X026868Y021184D01*
X026368Y020684D01*
X026308Y020538D01*
X026308Y020248D01*
X026139Y020079D01*
X026139Y020315D01*
X025812Y020641D01*
X025350Y020641D01*
X025081Y020373D01*
X024812Y020641D01*
X024350Y020641D01*
X024023Y020315D01*
X024023Y020088D01*
X023368Y019434D01*
X023308Y019288D01*
X023308Y019168D01*
X023206Y019066D01*
X022921Y019351D01*
X022491Y019351D01*
X022206Y019066D01*
X022104Y019168D01*
X022104Y019788D01*
X022043Y019934D01*
X021931Y020046D01*
X021889Y020088D01*
X021889Y020440D01*
X021562Y020766D01*
X021100Y020766D01*
X020773Y020440D01*
X020773Y019977D01*
X021100Y019650D01*
X021201Y019650D01*
X021308Y019543D01*
X021308Y019168D01*
X021193Y019053D01*
X020913Y019333D01*
X020706Y019333D01*
X020706Y018833D01*
X020706Y018333D01*
X020913Y018333D01*
X021193Y018613D01*
X021491Y018315D01*
X021615Y018315D01*
X021627Y018310D01*
X021785Y018310D01*
X021797Y018315D01*
X021921Y018315D01*
X022206Y018601D01*
X022491Y018315D01*
X022921Y018315D01*
X023206Y018601D01*
X023491Y018315D01*
X023921Y018315D01*
X024206Y018601D01*
X024491Y018315D01*
X024921Y018315D01*
X025206Y018601D01*
X025491Y018315D01*
X025921Y018315D01*
X026206Y018601D01*
X026491Y018315D01*
X026921Y018315D01*
X027206Y018601D01*
X027491Y018315D01*
X027921Y018315D01*
X028224Y018619D01*
X028224Y019038D01*
X028586Y019400D01*
X028812Y019400D01*
X029139Y019727D01*
X029139Y020190D01*
X028812Y020516D01*
X028350Y020516D01*
X028081Y020248D01*
X027812Y020516D01*
X027350Y020516D01*
X027104Y020271D01*
X027104Y020293D01*
X027371Y020560D01*
X031101Y020560D01*
X030831Y020290D01*
X030831Y020083D01*
X030831Y019876D01*
X031124Y019583D01*
X031331Y019583D01*
X031538Y019583D01*
X031831Y019876D01*
X031831Y020083D01*
X031331Y020083D01*
X031331Y019583D01*
X031331Y020083D01*
X031331Y020083D01*
X031331Y020083D01*
X030831Y020083D01*
X031331Y020083D01*
X031331Y020083D01*
X031831Y020083D01*
X031831Y020290D01*
X031561Y020560D01*
X033541Y020560D01*
X034131Y019970D01*
X033855Y020085D01*
X033557Y020085D01*
X033280Y019970D01*
X033081Y019771D01*
X032881Y019970D01*
X032605Y020085D01*
X032307Y020085D01*
X032030Y019970D01*
X031819Y019759D01*
X031705Y019483D01*
X031705Y019184D01*
X031819Y018908D01*
X032030Y018697D01*
X032147Y018648D01*
X031838Y018339D01*
X031838Y017827D01*
X031938Y017727D01*
X031938Y017355D01*
X031898Y017315D01*
X031898Y016852D01*
X032167Y016583D01*
X031898Y016315D01*
X031898Y015852D01*
X031938Y015812D01*
X031938Y015355D01*
X031968Y015283D01*
X031968Y014377D01*
X031903Y014312D01*
X031903Y013854D01*
X031968Y013789D01*
X031968Y013786D01*
X031554Y013372D01*
X031417Y013235D01*
X031343Y013055D01*
X031343Y012328D01*
X031313Y012298D01*
X031313Y012268D01*
X031063Y012518D01*
X030831Y012518D01*
X030831Y011958D01*
X030831Y011398D01*
X031063Y011398D01*
X031343Y011678D01*
X031343Y010760D01*
X031318Y010735D01*
X031055Y010998D01*
X030831Y010998D01*
X030831Y010458D01*
X030831Y009918D01*
X031055Y009918D01*
X031318Y010182D01*
X031343Y010157D01*
X031343Y009036D01*
X028129Y005821D01*
X025276Y005821D01*
X025456Y006001D01*
X025456Y006208D01*
X024956Y006208D01*
X024956Y006208D01*
X024456Y006208D01*
X024456Y006001D01*
X024636Y005821D01*
X023283Y005821D01*
X022944Y006161D01*
X022944Y006856D01*
X022956Y006868D01*
X023210Y006614D01*
X023702Y006614D01*
X023808Y006720D01*
X024711Y006720D01*
X024736Y006696D01*
X024456Y006415D01*
X024456Y006208D01*
X024956Y006208D01*
X024956Y006208D01*
X025456Y006208D01*
X025456Y006415D01*
X025176Y006696D01*
X025201Y006720D01*
X025695Y006720D01*
X025825Y006590D01*
X026337Y006590D01*
X026699Y006952D01*
X026699Y007464D01*
X026478Y007685D01*
X026785Y007685D01*
X026931Y007746D01*
X026819Y007634D01*
X026705Y007358D01*
X026705Y007059D01*
X026819Y006783D01*
X027030Y006572D01*
X027307Y006457D01*
X027605Y006457D01*
X027881Y006572D01*
X028093Y006783D01*
X028207Y007059D01*
X028207Y007358D01*
X028093Y007634D01*
X027881Y007845D01*
X027605Y007960D01*
X027307Y007960D01*
X027031Y007845D01*
X028681Y009496D01*
X028793Y009608D01*
X028854Y009754D01*
X028854Y016663D01*
X028793Y016809D01*
X028306Y017296D01*
X028160Y017356D01*
X025877Y017356D01*
X025730Y017296D01*
X025618Y017184D01*
X025368Y016934D01*
X025308Y016788D01*
X025308Y016168D01*
X025206Y016066D01*
X024921Y016351D01*
X024491Y016351D01*
X024206Y016066D01*
X023921Y016351D01*
X023491Y016351D01*
X023206Y016066D01*
X022921Y016351D01*
X022491Y016351D01*
X022193Y016053D01*
X021913Y016333D01*
X021706Y016333D01*
X021706Y015833D01*
X021706Y015333D01*
X021913Y015333D01*
X021983Y015403D01*
X021983Y014918D01*
X021863Y014798D01*
X021863Y014369D01*
X021983Y014249D01*
X021983Y014173D01*
X021536Y013726D01*
X021366Y013726D01*
X021063Y013423D01*
X021063Y012994D01*
X021366Y012690D01*
X021796Y012690D01*
X022094Y012988D01*
X022374Y012708D01*
X022581Y012708D01*
X022788Y012708D01*
X023018Y012939D01*
X023249Y012708D01*
X023456Y012708D01*
X023663Y012708D01*
X023943Y012988D01*
X024241Y012690D01*
X024671Y012690D01*
X024974Y012994D01*
X024974Y013423D01*
X024679Y013718D01*
X024679Y014249D01*
X024799Y014369D01*
X024799Y014798D01*
X024496Y015101D01*
X024376Y015101D01*
X024104Y015373D01*
X024104Y015499D01*
X024206Y015601D01*
X024308Y015499D01*
X024308Y015379D01*
X024368Y015233D01*
X024480Y015121D01*
X025558Y014043D01*
X025558Y013373D01*
X024791Y012606D01*
X023002Y012606D01*
X022855Y012546D01*
X022743Y012434D01*
X020916Y010606D01*
X019377Y010606D01*
X019230Y010546D01*
X019118Y010434D01*
X018618Y009934D01*
X018558Y009788D01*
X018558Y009651D01*
X018456Y009549D01*
X018202Y009803D01*
X017710Y009803D01*
X017443Y009536D01*
X017195Y009785D01*
X016956Y009785D01*
X016717Y009785D01*
X016380Y009447D01*
X016380Y009208D01*
X016380Y008970D01*
X016578Y008771D01*
X015244Y008771D01*
X015147Y008731D01*
X015127Y008731D01*
X014980Y008671D01*
X014868Y008559D01*
X014820Y008442D01*
X014774Y008396D01*
X012751Y008396D01*
X012676Y008471D01*
X012956Y008751D01*
X012956Y008958D01*
X012456Y008958D01*
X012456Y008958D01*
X011956Y008958D01*
X011956Y008751D01*
X012236Y008471D01*
X012121Y008356D01*
X009996Y008356D01*
X008979Y009373D01*
X008979Y011293D01*
X009046Y011360D01*
X009046Y011333D01*
X009046Y011112D01*
X009359Y010798D01*
X009581Y010798D01*
X009803Y010798D01*
X010116Y011112D01*
X010116Y011333D01*
X009581Y011333D01*
X009581Y010798D01*
X009581Y011333D01*
X009581Y011333D01*
X009581Y011333D01*
X009046Y011333D01*
X009581Y011333D01*
X009581Y011333D01*
X010116Y011333D01*
X010116Y011555D01*
X009850Y011821D01*
X009965Y011935D01*
X011371Y011935D01*
X011486Y011821D01*
X011206Y011540D01*
X011206Y011333D01*
X011206Y011126D01*
X011499Y010833D01*
X011706Y010833D01*
X011913Y010833D01*
X012206Y011126D01*
X012206Y011333D01*
X011706Y011333D01*
X011706Y010833D01*
X011706Y011333D01*
X011706Y011333D01*
X011706Y011333D01*
X011206Y011333D01*
X011706Y011333D01*
X011706Y011333D01*
X012206Y011333D01*
X012206Y011540D01*
X011926Y011821D01*
X012041Y011935D01*
X012440Y011935D01*
X012600Y011775D01*
X013062Y011775D01*
X013222Y011935D01*
X013440Y011935D01*
X013600Y011775D01*
X014062Y011775D01*
X014222Y011935D01*
X014440Y011935D01*
X014600Y011775D01*
X015062Y011775D01*
X015222Y011935D01*
X015440Y011935D01*
X015600Y011775D01*
X016062Y011775D01*
X016222Y011935D01*
X016440Y011935D01*
X016600Y011775D01*
X017062Y011775D01*
X017222Y011935D01*
X019746Y011935D01*
X019861Y011821D01*
X019581Y011540D01*
X019581Y011333D01*
X019581Y011126D01*
X019874Y010833D01*
X020081Y010833D01*
X020288Y010833D01*
X020581Y011126D01*
X020581Y011333D01*
X020081Y011333D01*
X020081Y010833D01*
X020081Y011333D01*
X020081Y011333D01*
X020081Y011333D01*
X019581Y011333D01*
X020081Y011333D01*
X020081Y011333D01*
X020581Y011333D01*
X020581Y011540D01*
X020301Y011821D01*
X020599Y012119D01*
X020599Y012548D01*
X020296Y012851D01*
X019866Y012851D01*
X019746Y012731D01*
X017222Y012731D01*
X017062Y012891D01*
X016600Y012891D01*
X016440Y012731D01*
X016222Y012731D01*
X016062Y012891D01*
X015600Y012891D01*
X015440Y012731D01*
X015222Y012731D01*
X015062Y012891D01*
X014600Y012891D01*
X014440Y012731D01*
X014222Y012731D01*
X014062Y012891D01*
X013600Y012891D01*
X013440Y012731D01*
X013222Y012731D01*
X013062Y012891D01*
X012600Y012891D01*
X012440Y012731D01*
X012041Y012731D01*
X011921Y012851D01*
X011491Y012851D01*
X011371Y012731D01*
X009965Y012731D01*
X009810Y012886D01*
X009352Y012886D01*
X009322Y012856D01*
X007371Y012856D01*
X007059Y013168D01*
X007206Y013168D01*
X007430Y013168D01*
X007746Y013485D01*
X007746Y013708D01*
X007206Y013708D01*
X007206Y013168D01*
X007206Y013708D01*
X007206Y013708D01*
X007206Y013708D01*
X007746Y013708D01*
X007746Y013932D01*
X007482Y014196D01*
X007683Y014396D01*
X007683Y014379D01*
X007743Y014233D01*
X008743Y013233D01*
X008855Y013121D01*
X009002Y013060D01*
X011410Y013060D01*
X011556Y013121D01*
X011626Y013190D01*
X011796Y013190D01*
X012094Y013488D01*
X012374Y013208D01*
X012581Y013208D01*
X012788Y013208D01*
X013081Y013501D01*
X013081Y013708D01*
X012581Y013708D01*
X012581Y013208D01*
X012581Y013708D01*
X012581Y013708D01*
X012581Y013708D01*
X013081Y013708D01*
X013081Y013915D01*
X012788Y014208D01*
X012581Y014208D01*
X012581Y013708D01*
X012581Y013708D01*
X012581Y014208D01*
X012374Y014208D01*
X012094Y013928D01*
X011796Y014226D01*
X011366Y014226D01*
X011063Y013923D01*
X011063Y013856D01*
X009246Y013856D01*
X008541Y014561D01*
X008599Y014619D01*
X008599Y015048D01*
X008479Y015168D01*
X008479Y015788D01*
X008418Y015934D01*
X008306Y016046D01*
X008160Y016106D01*
X007597Y016106D01*
X007495Y016208D01*
X007764Y016477D01*
X007764Y016940D01*
X007495Y017208D01*
X007764Y017477D01*
X007764Y017940D01*
X007495Y018208D01*
X007597Y018310D01*
X008246Y018310D01*
X008366Y018190D01*
X008796Y018190D01*
X009081Y018476D01*
X009366Y018190D01*
X009796Y018190D01*
X009916Y018310D01*
X010508Y018310D01*
X010508Y018195D01*
X010764Y017938D01*
X010764Y016353D01*
X010508Y016097D01*
X010508Y015635D01*
X010683Y015460D01*
X010683Y015168D01*
X010563Y015048D01*
X010563Y014619D01*
X010866Y014315D01*
X011296Y014315D01*
X011599Y014619D01*
X011599Y015048D01*
X011479Y015168D01*
X011479Y015358D01*
X011494Y015358D01*
X012118Y014733D01*
X012230Y014621D01*
X012377Y014560D01*
X014660Y014560D01*
X014806Y014621D01*
X014918Y014733D01*
X014931Y014746D01*
X014931Y014746D01*
X015043Y014858D01*
X015104Y015004D01*
X015104Y015499D01*
X015206Y015601D01*
X015491Y015315D01*
X015921Y015315D01*
X016206Y015601D01*
X016491Y015315D01*
X016625Y015315D01*
X016493Y015184D01*
X016477Y015143D01*
X016273Y014940D01*
X016273Y014477D01*
X016600Y014150D01*
X017062Y014150D01*
X017331Y014419D01*
X017600Y014150D01*
X018062Y014150D01*
X018389Y014477D01*
X018389Y014940D01*
X018382Y014946D01*
X018751Y015315D01*
X018921Y015315D01*
X019206Y015601D01*
X019491Y015315D01*
X019921Y015315D01*
X020206Y015601D01*
X020491Y015315D01*
X020921Y015315D01*
X021101Y015496D01*
X021154Y015496D01*
X021245Y015587D01*
X021499Y015333D01*
X021706Y015333D01*
X021706Y015833D01*
X021706Y015833D01*
X021706Y015833D01*
X021706Y016333D01*
X021499Y016333D01*
X021293Y016128D01*
X021293Y016281D01*
X021154Y016421D01*
X020508Y016421D01*
X020368Y016281D01*
X020368Y016229D01*
X020206Y016066D01*
X019921Y016351D01*
X019491Y016351D01*
X019206Y016066D01*
X018921Y016351D01*
X018491Y016351D01*
X018206Y016066D01*
X017921Y016351D01*
X017491Y016351D01*
X017206Y016066D01*
X016921Y016351D01*
X016491Y016351D01*
X016206Y016066D01*
X015921Y016351D01*
X015491Y016351D01*
X015206Y016066D01*
X014921Y016351D01*
X014491Y016351D01*
X014188Y016048D01*
X014188Y015619D01*
X014308Y015499D01*
X014308Y015356D01*
X013100Y015356D01*
X013386Y015642D01*
X013386Y015866D01*
X013386Y016090D01*
X013070Y016406D01*
X012846Y016406D01*
X012846Y015866D01*
X012846Y015866D01*
X012846Y016406D01*
X012622Y016406D01*
X012306Y016090D01*
X012306Y015866D01*
X012846Y015866D01*
X013386Y015866D01*
X012846Y015866D01*
X012846Y015866D01*
X012846Y015866D01*
X012306Y015866D01*
X012306Y015671D01*
X011884Y016093D01*
X011738Y016154D01*
X011567Y016154D01*
X011398Y016323D01*
X011398Y017968D01*
X011624Y018195D01*
X011624Y018657D01*
X011297Y018984D01*
X011071Y018984D01*
X011009Y019046D01*
X010863Y019106D01*
X009916Y019106D01*
X009796Y019226D01*
X009366Y019226D01*
X009081Y018941D01*
X008796Y019226D01*
X008366Y019226D01*
X008246Y019106D01*
X007597Y019106D01*
X007437Y019266D01*
X006975Y019266D01*
X006648Y018940D01*
X006648Y018477D01*
X006917Y018208D01*
X006648Y017940D01*
X006648Y017477D01*
X006917Y017208D01*
X006648Y016940D01*
X006648Y016477D01*
X006917Y016208D01*
X006815Y016106D01*
X006502Y016106D01*
X006355Y016046D01*
X006243Y015934D01*
X006118Y015809D01*
X006058Y015663D01*
X006058Y013129D01*
X006118Y012983D01*
X006230Y012871D01*
X006980Y012121D01*
X007127Y012060D01*
X008620Y012060D01*
X008243Y011684D01*
X008183Y011538D01*
X008183Y009129D01*
X008243Y008983D01*
X008355Y008871D01*
X009605Y007621D01*
X009752Y007560D01*
X012121Y007560D01*
X012241Y007440D01*
X012671Y007440D01*
X012751Y007520D01*
X015043Y007520D01*
X015204Y007587D01*
X015512Y007895D01*
X019543Y007895D01*
X019704Y007962D01*
X019827Y008085D01*
X020327Y008585D01*
X020394Y008746D01*
X020394Y008806D01*
X020456Y008868D01*
X020710Y008614D01*
X021202Y008614D01*
X021456Y008868D01*
X021710Y008614D01*
X022202Y008614D01*
X022456Y008868D01*
X022710Y008614D01*
X023202Y008614D01*
X023469Y008881D01*
X023717Y008632D01*
X023956Y008632D01*
X024195Y008632D01*
X024532Y008970D01*
X024532Y009208D01*
X023956Y009208D01*
X023956Y008632D01*
X023956Y009208D01*
X023956Y009208D01*
X023956Y009208D01*
X024532Y009208D01*
X024532Y009447D01*
X024259Y009720D01*
X026086Y009720D01*
X026111Y009696D01*
X025831Y009415D01*
X025831Y009208D01*
X025831Y009001D01*
X026124Y008708D01*
X026331Y008708D01*
X026538Y008708D01*
X026831Y009001D01*
X026831Y009208D01*
X026331Y009208D01*
X026331Y008708D01*
X026331Y009208D01*
X026331Y009208D01*
X026331Y009208D01*
X025831Y009208D01*
X026331Y009208D01*
X026331Y009208D01*
X026831Y009208D01*
X026831Y009415D01*
X026551Y009696D01*
X026576Y009720D01*
X026945Y009720D01*
X027075Y009590D01*
X027587Y009590D01*
X027949Y009952D01*
X027949Y010464D01*
X027640Y010773D01*
X027756Y010822D01*
X027968Y011033D01*
X028058Y011250D01*
X028058Y009998D01*
X026541Y008481D01*
X022002Y008481D01*
X021855Y008421D01*
X021743Y008309D01*
X021237Y007803D01*
X021210Y007803D01*
X020943Y007536D01*
X020695Y007785D01*
X020456Y007785D01*
X020217Y007785D01*
X019969Y007536D01*
X019702Y007803D01*
X019210Y007803D01*
X018956Y007549D01*
X018702Y007803D01*
X018210Y007803D01*
X017956Y007549D01*
X017702Y007803D01*
X017210Y007803D01*
X016862Y007455D01*
X016862Y006962D01*
X017210Y006614D01*
X017702Y006614D01*
X017956Y006868D01*
X018210Y006614D01*
X018702Y006614D01*
X018956Y006868D01*
X019058Y006766D01*
X019058Y004504D01*
X019118Y004358D01*
X019230Y004246D01*
X019230Y004246D01*
X019730Y003746D01*
X019877Y003685D01*
X032910Y003685D01*
X033056Y003746D01*
X033168Y003858D01*
X033168Y003858D01*
X033451Y004141D02*
X035086Y004141D01*
X035155Y004072D02*
X035432Y003957D01*
X035730Y003957D01*
X036006Y004072D01*
X036218Y004283D01*
X036332Y004559D01*
X036332Y004858D01*
X036218Y005134D01*
X036006Y005345D01*
X035730Y005460D01*
X035432Y005460D01*
X035155Y005345D01*
X034944Y005134D01*
X034830Y004858D01*
X034830Y004559D01*
X034944Y004283D01*
X035155Y004072D01*
X034904Y004379D02*
X033690Y004379D01*
X033928Y004618D02*
X034830Y004618D01*
X034830Y004856D02*
X034167Y004856D01*
X034405Y005095D02*
X034928Y005095D01*
X035144Y005333D02*
X034644Y005333D01*
X034882Y005572D02*
X036345Y005572D01*
X036346Y005810D02*
X035121Y005810D01*
X035359Y006049D02*
X036348Y006049D01*
X036349Y006287D02*
X035566Y006287D01*
X035604Y006526D02*
X036351Y006526D01*
X036353Y006764D02*
X035604Y006764D01*
X035604Y007003D02*
X036354Y007003D01*
X036356Y007241D02*
X035604Y007241D01*
X035604Y007480D02*
X036358Y007480D01*
X036359Y007718D02*
X035604Y007718D01*
X035604Y007957D02*
X036361Y007957D01*
X036363Y008195D02*
X035604Y008195D01*
X035604Y008434D02*
X036364Y008434D01*
X036366Y008672D02*
X035604Y008672D01*
X035604Y008911D02*
X036367Y008911D01*
X036369Y009149D02*
X035604Y009149D01*
X035604Y009388D02*
X036371Y009388D01*
X036372Y009626D02*
X035604Y009626D01*
X035604Y009865D02*
X036374Y009865D01*
X036376Y010103D02*
X035604Y010103D01*
X035604Y010342D02*
X036377Y010342D01*
X036379Y010580D02*
X035604Y010580D01*
X035604Y010819D02*
X036381Y010819D01*
X036381Y011057D02*
X035604Y011057D01*
X035604Y011296D02*
X036381Y011296D01*
X036381Y011534D02*
X035604Y011534D01*
X035604Y011773D02*
X036381Y011773D01*
X036381Y012011D02*
X035604Y012011D01*
X035604Y012250D02*
X036381Y012250D01*
X036381Y012488D02*
X035604Y012488D01*
X035604Y012727D02*
X036381Y012727D01*
X036381Y012965D02*
X035604Y012965D01*
X035604Y013204D02*
X036381Y013204D01*
X036381Y013442D02*
X035604Y013442D01*
X035604Y013681D02*
X036381Y013681D01*
X036381Y013919D02*
X035604Y013919D01*
X035604Y014158D02*
X036381Y014158D01*
X036381Y014396D02*
X035604Y014396D01*
X035604Y014635D02*
X036381Y014635D01*
X036381Y014873D02*
X035604Y014873D01*
X035604Y015112D02*
X036381Y015112D01*
X036381Y015350D02*
X035604Y015350D01*
X035604Y015589D02*
X036381Y015589D01*
X036381Y015827D02*
X035604Y015827D01*
X035604Y016066D02*
X036381Y016066D01*
X036381Y016304D02*
X035604Y016304D01*
X035604Y016543D02*
X036381Y016543D01*
X036381Y016781D02*
X035604Y016781D01*
X035604Y017020D02*
X036381Y017020D01*
X036381Y017258D02*
X035604Y017258D01*
X035604Y017497D02*
X036381Y017497D01*
X036381Y017735D02*
X035604Y017735D01*
X035604Y017974D02*
X036381Y017974D01*
X036381Y018212D02*
X035604Y018212D01*
X035604Y018451D02*
X036381Y018451D01*
X036381Y018689D02*
X035604Y018689D01*
X035604Y018928D02*
X036381Y018928D01*
X036381Y019166D02*
X035604Y019166D01*
X035604Y019405D02*
X036381Y019405D01*
X036381Y019643D02*
X035560Y019643D01*
X035345Y019882D02*
X036381Y019882D01*
X036381Y020120D02*
X035107Y020120D01*
X035155Y020447D02*
X035432Y020332D01*
X035730Y020332D01*
X036006Y020447D01*
X036218Y020658D01*
X036332Y020934D01*
X036332Y021233D01*
X036218Y021509D01*
X036006Y021720D01*
X035730Y021835D01*
X035432Y021835D01*
X035155Y021720D01*
X034944Y021509D01*
X034830Y021233D01*
X034830Y020934D01*
X034944Y020658D01*
X035155Y020447D01*
X035005Y020597D02*
X034630Y020597D01*
X034868Y020359D02*
X035367Y020359D01*
X035795Y020359D02*
X036381Y020359D01*
X036381Y020597D02*
X036157Y020597D01*
X036292Y020836D02*
X036381Y020836D01*
X036381Y021074D02*
X036332Y021074D01*
X036299Y021313D02*
X036381Y021313D01*
X036381Y021551D02*
X036175Y021551D01*
X036381Y021790D02*
X035838Y021790D01*
X035324Y021790D02*
X006031Y021790D01*
X006031Y021551D02*
X006612Y021551D01*
X006655Y021595D02*
X006444Y021384D01*
X006330Y021108D01*
X006330Y020809D01*
X006444Y020533D01*
X006655Y020322D01*
X006932Y020207D01*
X007230Y020207D01*
X007506Y020322D01*
X007718Y020533D01*
X007832Y020809D01*
X007832Y021108D01*
X007718Y021384D01*
X007506Y021595D01*
X007230Y021710D01*
X006932Y021710D01*
X006655Y021595D01*
X006415Y021313D02*
X006031Y021313D01*
X006031Y021074D02*
X006330Y021074D01*
X006330Y020836D02*
X006031Y020836D01*
X006031Y020597D02*
X006417Y020597D01*
X006618Y020359D02*
X006031Y020359D01*
X006031Y020120D02*
X012773Y020120D01*
X012773Y019977D02*
X013100Y019650D01*
X013326Y019650D01*
X014188Y018788D01*
X014188Y018619D01*
X014491Y018315D01*
X014921Y018315D01*
X015206Y018601D01*
X015491Y018315D01*
X015921Y018315D01*
X016206Y018601D01*
X016491Y018315D01*
X016921Y018315D01*
X017206Y018601D01*
X017491Y018315D01*
X017921Y018315D01*
X018206Y018601D01*
X018491Y018315D01*
X018921Y018315D01*
X019206Y018601D01*
X019491Y018315D01*
X019921Y018315D01*
X020219Y018613D01*
X020499Y018333D01*
X020706Y018333D01*
X020706Y018833D01*
X020706Y018833D01*
X020706Y018833D01*
X020706Y019333D01*
X020499Y019333D01*
X020219Y019053D01*
X019921Y019351D01*
X019751Y019351D01*
X018889Y020213D01*
X018889Y020440D01*
X018562Y020766D01*
X018100Y020766D01*
X017831Y020498D01*
X017562Y020766D01*
X017100Y020766D01*
X016831Y020498D01*
X016562Y020766D01*
X016100Y020766D01*
X015831Y020498D01*
X015562Y020766D01*
X015100Y020766D01*
X014831Y020498D01*
X014562Y020766D01*
X014100Y020766D01*
X013831Y020498D01*
X013562Y020766D01*
X013100Y020766D01*
X012773Y020440D01*
X012773Y019977D01*
X012868Y019882D02*
X006031Y019882D01*
X006031Y019643D02*
X013333Y019643D01*
X013571Y019405D02*
X006031Y019405D01*
X006031Y019166D02*
X006875Y019166D01*
X006648Y018928D02*
X006031Y018928D01*
X006031Y018689D02*
X006648Y018689D01*
X006674Y018451D02*
X006031Y018451D01*
X006031Y018212D02*
X006913Y018212D01*
X006682Y017974D02*
X006031Y017974D01*
X006031Y017735D02*
X006648Y017735D01*
X006648Y017497D02*
X006031Y017497D01*
X006031Y017258D02*
X006867Y017258D01*
X006728Y017020D02*
X006031Y017020D01*
X006031Y016781D02*
X006648Y016781D01*
X006648Y016543D02*
X006031Y016543D01*
X006031Y016304D02*
X006821Y016304D01*
X006404Y016066D02*
X006031Y016066D01*
X006031Y015827D02*
X006137Y015827D01*
X006058Y015589D02*
X006031Y015589D01*
X006031Y015350D02*
X006058Y015350D01*
X006058Y015112D02*
X006031Y015112D01*
X006031Y014873D02*
X006058Y014873D01*
X006058Y014635D02*
X006031Y014635D01*
X006031Y014396D02*
X006058Y014396D01*
X006058Y014158D02*
X006031Y014158D01*
X006031Y013919D02*
X006058Y013919D01*
X006058Y013681D02*
X006031Y013681D01*
X006031Y013442D02*
X006058Y013442D01*
X006058Y013204D02*
X006031Y013204D01*
X006031Y012965D02*
X006136Y012965D01*
X006031Y012727D02*
X006374Y012727D01*
X006613Y012488D02*
X006031Y012488D01*
X006031Y012250D02*
X006851Y012250D01*
X007262Y012965D02*
X021091Y012965D01*
X021063Y013204D02*
X011809Y013204D01*
X012048Y013442D02*
X012140Y013442D01*
X012581Y013442D02*
X012581Y013442D01*
X012581Y013681D02*
X012581Y013681D01*
X012581Y013919D02*
X012581Y013919D01*
X012581Y014158D02*
X012581Y014158D01*
X012839Y014158D02*
X016592Y014158D01*
X016354Y014396D02*
X011377Y014396D01*
X011298Y014158D02*
X008944Y014158D01*
X008706Y014396D02*
X010785Y014396D01*
X010563Y014635D02*
X008599Y014635D01*
X008599Y014873D02*
X010563Y014873D01*
X010627Y015112D02*
X008535Y015112D01*
X008479Y015350D02*
X010683Y015350D01*
X010554Y015589D02*
X008479Y015589D01*
X008463Y015827D02*
X010508Y015827D01*
X010508Y016066D02*
X008258Y016066D01*
X007764Y016543D02*
X010764Y016543D01*
X010764Y016781D02*
X007764Y016781D01*
X007684Y017020D02*
X010764Y017020D01*
X010764Y017258D02*
X007545Y017258D01*
X007764Y017497D02*
X010764Y017497D01*
X010764Y017735D02*
X007764Y017735D01*
X007730Y017974D02*
X010729Y017974D01*
X010508Y018212D02*
X009818Y018212D01*
X009344Y018212D02*
X008818Y018212D01*
X009056Y018451D02*
X009106Y018451D01*
X008344Y018212D02*
X007499Y018212D01*
X007537Y019166D02*
X008306Y019166D01*
X008856Y019166D02*
X009306Y019166D01*
X009856Y019166D02*
X013810Y019166D01*
X014048Y018928D02*
X013108Y018928D01*
X013070Y018966D02*
X012846Y018966D01*
X012846Y018426D01*
X012846Y018426D01*
X012846Y018966D01*
X012622Y018966D01*
X012306Y018650D01*
X012306Y018426D01*
X012846Y018426D01*
X013386Y018426D01*
X013386Y018650D01*
X013070Y018966D01*
X012846Y018928D02*
X012846Y018928D01*
X012846Y018689D02*
X012846Y018689D01*
X012846Y018451D02*
X012846Y018451D01*
X012846Y018426D02*
X012846Y018426D01*
X012846Y018426D01*
X013386Y018426D01*
X013386Y018202D01*
X013070Y017886D01*
X012846Y017886D01*
X012846Y018426D01*
X012306Y018426D01*
X012306Y018202D01*
X012622Y017886D01*
X012846Y017886D01*
X012846Y018426D01*
X012846Y018426D01*
X012846Y018212D02*
X012846Y018212D01*
X012846Y017974D02*
X012846Y017974D01*
X013158Y017974D02*
X029116Y017974D01*
X029076Y017934D02*
X029015Y017788D01*
X029015Y017629D01*
X029070Y017496D01*
X029070Y017319D01*
X029190Y017199D01*
X029190Y016426D01*
X029063Y016298D01*
X029063Y015869D01*
X029183Y015749D01*
X029183Y014342D01*
X029028Y014187D01*
X029028Y013729D01*
X029183Y013574D01*
X029183Y012754D01*
X029243Y012608D01*
X029433Y012418D01*
X029433Y012378D01*
X029253Y012198D01*
X029253Y011719D01*
X029433Y011539D01*
X029433Y010850D01*
X029273Y010690D01*
X029273Y010227D01*
X029600Y009900D01*
X030062Y009900D01*
X030344Y010182D01*
X030607Y009918D01*
X030831Y009918D01*
X030831Y010458D01*
X030831Y010458D01*
X030831Y010458D01*
X030831Y010998D01*
X030607Y010998D01*
X030344Y010735D01*
X030229Y010850D01*
X030229Y011043D01*
X030293Y011108D01*
X030354Y011254D01*
X030354Y011643D01*
X030599Y011398D01*
X030831Y011398D01*
X030831Y011958D01*
X030831Y011958D01*
X030831Y011958D01*
X030831Y012518D01*
X030599Y012518D01*
X030344Y012263D01*
X030229Y012378D01*
X030229Y012663D01*
X030168Y012809D01*
X029979Y012998D01*
X029979Y013574D01*
X030094Y013689D01*
X030359Y013423D01*
X030581Y013423D01*
X030803Y013423D01*
X031116Y013737D01*
X031116Y013958D01*
X030581Y013958D01*
X030581Y013423D01*
X030581Y013958D01*
X030581Y013958D01*
X030581Y013958D01*
X031116Y013958D01*
X031116Y014180D01*
X030803Y014493D01*
X030581Y014493D01*
X030581Y013958D01*
X030581Y013958D01*
X030581Y014493D01*
X030359Y014493D01*
X030094Y014228D01*
X029979Y014342D01*
X029979Y015749D01*
X030094Y015863D01*
X030374Y015583D01*
X030581Y015583D01*
X030788Y015583D01*
X031081Y015876D01*
X031081Y016083D01*
X030581Y016083D01*
X030581Y015583D01*
X030581Y016083D01*
X030581Y016083D01*
X030581Y016083D01*
X031081Y016083D01*
X031081Y016290D01*
X030788Y016583D01*
X030581Y016583D01*
X030581Y016083D01*
X030581Y016083D01*
X030581Y016583D01*
X030374Y016583D01*
X030094Y016303D01*
X029987Y016410D01*
X029987Y017199D01*
X030089Y017301D01*
X030374Y017015D01*
X030772Y017015D01*
X030813Y016983D01*
X030813Y016869D01*
X031116Y016565D01*
X031546Y016565D01*
X031849Y016869D01*
X031849Y017298D01*
X031546Y017601D01*
X031315Y017601D01*
X031031Y017824D01*
X030803Y018051D01*
X030374Y018051D01*
X030089Y017766D01*
X029803Y018051D01*
X029626Y018051D01*
X029493Y018106D01*
X029334Y018106D01*
X029188Y018046D01*
X029076Y017934D01*
X029015Y017735D02*
X011398Y017735D01*
X011398Y017497D02*
X029070Y017497D01*
X029131Y017258D02*
X028344Y017258D01*
X028582Y017020D02*
X029190Y017020D01*
X029190Y016781D02*
X028805Y016781D01*
X028854Y016543D02*
X029190Y016543D01*
X029069Y016304D02*
X028854Y016304D01*
X028854Y016066D02*
X029063Y016066D01*
X029104Y015827D02*
X028854Y015827D01*
X028854Y015589D02*
X029183Y015589D01*
X029183Y015350D02*
X028854Y015350D01*
X028854Y015112D02*
X029183Y015112D01*
X029183Y014873D02*
X028854Y014873D01*
X028854Y014635D02*
X029183Y014635D01*
X029183Y014396D02*
X028854Y014396D01*
X028854Y014158D02*
X029028Y014158D01*
X029028Y013919D02*
X028854Y013919D01*
X028854Y013681D02*
X029076Y013681D01*
X029183Y013442D02*
X028854Y013442D01*
X028854Y013204D02*
X029183Y013204D01*
X029183Y012965D02*
X028854Y012965D01*
X028854Y012727D02*
X029194Y012727D01*
X029363Y012488D02*
X028854Y012488D01*
X028854Y012250D02*
X029305Y012250D01*
X029253Y012011D02*
X028854Y012011D01*
X028854Y011773D02*
X029253Y011773D01*
X029433Y011534D02*
X028854Y011534D01*
X028854Y011296D02*
X029433Y011296D01*
X029433Y011057D02*
X028854Y011057D01*
X028854Y010819D02*
X029402Y010819D01*
X029273Y010580D02*
X028854Y010580D01*
X028854Y010342D02*
X029273Y010342D01*
X029397Y010103D02*
X028854Y010103D01*
X028854Y009865D02*
X031343Y009865D01*
X031343Y010103D02*
X031240Y010103D01*
X031343Y009626D02*
X028801Y009626D01*
X028573Y009388D02*
X031343Y009388D01*
X031343Y009149D02*
X028335Y009149D01*
X028096Y008911D02*
X031218Y008911D01*
X030980Y008672D02*
X027858Y008672D01*
X027619Y008434D02*
X030741Y008434D01*
X030503Y008195D02*
X027381Y008195D01*
X027300Y007957D02*
X027142Y007957D01*
X026904Y007718D02*
X026865Y007718D01*
X026755Y007480D02*
X026684Y007480D01*
X026699Y007241D02*
X026705Y007241D01*
X026699Y007003D02*
X026728Y007003D01*
X026838Y006764D02*
X026511Y006764D01*
X027141Y006526D02*
X025346Y006526D01*
X025456Y006287D02*
X028595Y006287D01*
X028356Y006049D02*
X025456Y006049D01*
X024456Y006049D02*
X023056Y006049D01*
X022944Y006287D02*
X024456Y006287D01*
X024566Y006526D02*
X022944Y006526D01*
X022944Y006764D02*
X023059Y006764D01*
X021968Y006764D02*
X021852Y006764D01*
X021956Y006868D02*
X021968Y006856D01*
X021968Y005861D01*
X022042Y005682D01*
X022667Y005057D01*
X022804Y004920D01*
X022984Y004845D01*
X028428Y004845D01*
X028607Y004920D01*
X032107Y008420D01*
X032245Y008557D01*
X032319Y008736D01*
X032319Y010157D01*
X032389Y010227D01*
X032389Y010690D01*
X032319Y010760D01*
X032319Y011839D01*
X032344Y011863D01*
X032624Y011583D01*
X032831Y011583D01*
X033038Y011583D01*
X033331Y011876D01*
X033331Y012083D01*
X032831Y012083D01*
X032831Y011583D01*
X032831Y012083D01*
X032831Y012083D01*
X032831Y012083D01*
X033331Y012083D01*
X033331Y012290D01*
X033038Y012583D01*
X032831Y012583D01*
X032831Y012083D01*
X032831Y012083D01*
X032831Y012583D01*
X032624Y012583D01*
X032344Y012303D01*
X032319Y012328D01*
X032319Y012756D01*
X032870Y013307D01*
X032944Y013486D01*
X032944Y013789D01*
X032969Y013814D01*
X033234Y013548D01*
X033456Y013548D01*
X033678Y013548D01*
X033991Y013862D01*
X033991Y014083D01*
X033456Y014083D01*
X033456Y013548D01*
X033456Y014083D01*
X033456Y014083D01*
X033456Y014083D01*
X033991Y014083D01*
X033991Y014305D01*
X033678Y014618D01*
X033456Y014618D01*
X033456Y014083D01*
X033456Y014083D01*
X033456Y014618D01*
X033234Y014618D01*
X032969Y014353D01*
X032944Y014377D01*
X032944Y015283D01*
X032974Y015355D01*
X032974Y015812D01*
X033014Y015852D01*
X033014Y016315D01*
X032745Y016583D01*
X033014Y016852D01*
X033014Y017315D01*
X032974Y017355D01*
X032974Y017727D01*
X033074Y017827D01*
X033074Y018339D01*
X032765Y018648D01*
X032881Y018697D01*
X033081Y018896D01*
X033280Y018697D01*
X033415Y018641D01*
X033106Y018332D01*
X033106Y018093D01*
X033696Y018093D01*
X033696Y018073D01*
X033716Y018073D01*
X033716Y017483D01*
X033954Y017483D01*
X034306Y017835D01*
X034306Y018073D01*
X033716Y018073D01*
X033716Y018093D01*
X034306Y018093D01*
X034306Y018332D01*
X033997Y018641D01*
X034131Y018697D01*
X034343Y018908D01*
X034457Y019184D01*
X034457Y019483D01*
X034343Y019758D01*
X034808Y019293D01*
X034808Y006623D01*
X032666Y004481D01*
X020121Y004481D01*
X019854Y004748D01*
X019854Y006766D01*
X019969Y006881D01*
X020217Y006632D01*
X020456Y006632D01*
X020695Y006632D01*
X020943Y006881D01*
X021210Y006614D01*
X021702Y006614D01*
X021956Y006868D01*
X021968Y006526D02*
X019854Y006526D01*
X019854Y006764D02*
X020085Y006764D01*
X020456Y006764D02*
X020456Y006764D01*
X020456Y006632D02*
X020456Y007208D01*
X020456Y006632D01*
X020827Y006764D02*
X021059Y006764D01*
X020862Y007208D02*
X020456Y007208D01*
X020456Y007208D01*
X020456Y007208D01*
X020050Y007208D01*
X020050Y007208D01*
X020456Y007208D01*
X020456Y007208D01*
X020862Y007208D01*
X020862Y007208D01*
X020456Y007208D02*
X020456Y007208D01*
X020456Y007785D01*
X020456Y007208D01*
X020456Y007241D02*
X020456Y007241D01*
X020456Y007003D02*
X020456Y007003D01*
X020456Y007480D02*
X020456Y007480D01*
X020456Y007718D02*
X020456Y007718D01*
X020761Y007718D02*
X021125Y007718D01*
X021391Y007957D02*
X019692Y007957D01*
X019786Y007718D02*
X020151Y007718D01*
X019938Y008195D02*
X021630Y008195D01*
X021743Y008309D02*
X021743Y008309D01*
X021887Y008434D02*
X020176Y008434D01*
X020363Y008672D02*
X020651Y008672D01*
X021260Y008672D02*
X021651Y008672D01*
X022260Y008672D02*
X022651Y008672D01*
X023260Y008672D02*
X023677Y008672D01*
X023956Y008672D02*
X023956Y008672D01*
X023956Y008911D02*
X023956Y008911D01*
X023956Y009149D02*
X023956Y009149D01*
X024473Y008911D02*
X025921Y008911D01*
X025831Y009149D02*
X024532Y009149D01*
X024532Y009388D02*
X025831Y009388D01*
X026042Y009626D02*
X024353Y009626D01*
X024235Y008672D02*
X026732Y008672D01*
X026741Y008911D02*
X026970Y008911D01*
X026831Y009149D02*
X027209Y009149D01*
X027447Y009388D02*
X026831Y009388D01*
X027039Y009626D02*
X026620Y009626D01*
X026331Y009149D02*
X026331Y009149D01*
X026331Y008911D02*
X026331Y008911D01*
X027623Y009626D02*
X027686Y009626D01*
X027862Y009865D02*
X027924Y009865D01*
X027949Y010103D02*
X028058Y010103D01*
X028058Y010342D02*
X027949Y010342D01*
X028058Y010580D02*
X027833Y010580D01*
X027750Y010819D02*
X028058Y010819D01*
X028058Y011057D02*
X027978Y011057D01*
X030243Y011057D02*
X031343Y011057D01*
X031343Y010819D02*
X031234Y010819D01*
X030831Y010819D02*
X030831Y010819D01*
X030831Y010580D02*
X030831Y010580D01*
X030831Y010342D02*
X030831Y010342D01*
X030831Y010103D02*
X030831Y010103D01*
X030422Y010103D02*
X030265Y010103D01*
X030260Y010819D02*
X030428Y010819D01*
X030354Y011296D02*
X031343Y011296D01*
X031343Y011534D02*
X031199Y011534D01*
X030831Y011534D02*
X030831Y011534D01*
X030831Y011773D02*
X030831Y011773D01*
X030831Y012011D02*
X030831Y012011D01*
X030831Y012250D02*
X030831Y012250D01*
X030831Y012488D02*
X030831Y012488D01*
X031093Y012488D02*
X031343Y012488D01*
X031343Y012727D02*
X030202Y012727D01*
X030229Y012488D02*
X030569Y012488D01*
X030012Y012965D02*
X031343Y012965D01*
X031404Y013204D02*
X029979Y013204D01*
X029979Y013442D02*
X030340Y013442D01*
X030581Y013442D02*
X030581Y013442D01*
X030581Y013681D02*
X030581Y013681D01*
X030581Y013919D02*
X030581Y013919D01*
X030581Y014158D02*
X030581Y014158D01*
X030581Y014396D02*
X030581Y014396D01*
X030900Y014396D02*
X031968Y014396D01*
X031968Y014635D02*
X029979Y014635D01*
X029979Y014873D02*
X031968Y014873D01*
X031968Y015112D02*
X029979Y015112D01*
X029979Y015350D02*
X031940Y015350D01*
X031938Y015589D02*
X030794Y015589D01*
X030581Y015589D02*
X030581Y015589D01*
X030368Y015589D02*
X029979Y015589D01*
X030058Y015827D02*
X030130Y015827D01*
X030581Y015827D02*
X030581Y015827D01*
X030581Y016066D02*
X030581Y016066D01*
X030581Y016304D02*
X030581Y016304D01*
X030581Y016543D02*
X030581Y016543D01*
X030829Y016543D02*
X032126Y016543D01*
X031969Y016781D02*
X031762Y016781D01*
X031849Y017020D02*
X031898Y017020D01*
X031898Y017258D02*
X031849Y017258D01*
X031938Y017497D02*
X031650Y017497D01*
X031930Y017735D02*
X031144Y017735D01*
X030881Y017974D02*
X031838Y017974D01*
X031838Y018212D02*
X013386Y018212D01*
X013386Y018451D02*
X014356Y018451D01*
X014188Y018689D02*
X013346Y018689D01*
X012584Y018928D02*
X011353Y018928D01*
X011592Y018689D02*
X012346Y018689D01*
X012306Y018451D02*
X011624Y018451D01*
X011624Y018212D02*
X012306Y018212D01*
X012534Y017974D02*
X011403Y017974D01*
X011398Y017258D02*
X025693Y017258D01*
X025454Y017020D02*
X011398Y017020D01*
X011398Y016781D02*
X025308Y016781D01*
X025308Y016543D02*
X011398Y016543D01*
X011417Y016304D02*
X012521Y016304D01*
X012306Y016066D02*
X011911Y016066D01*
X012150Y015827D02*
X012306Y015827D01*
X012846Y016066D02*
X012846Y016066D01*
X012846Y016304D02*
X012846Y016304D01*
X013171Y016304D02*
X014444Y016304D01*
X014206Y016066D02*
X013386Y016066D01*
X013386Y015827D02*
X014188Y015827D01*
X014218Y015589D02*
X013333Y015589D01*
X012216Y014635D02*
X011599Y014635D01*
X011599Y014873D02*
X011978Y014873D01*
X011739Y015112D02*
X011535Y015112D01*
X011501Y015350D02*
X011479Y015350D01*
X010715Y016304D02*
X007591Y016304D01*
X007520Y014158D02*
X007818Y014158D01*
X007746Y013919D02*
X008057Y013919D01*
X008295Y013681D02*
X007746Y013681D01*
X007704Y013442D02*
X008534Y013442D01*
X008772Y013204D02*
X007465Y013204D01*
X007206Y013204D02*
X007206Y013204D01*
X007206Y013442D02*
X007206Y013442D01*
X007206Y013681D02*
X007206Y013681D01*
X009183Y013919D02*
X011063Y013919D01*
X011864Y014158D02*
X012323Y014158D01*
X013077Y013919D02*
X021729Y013919D01*
X021967Y014158D02*
X018070Y014158D01*
X018308Y014396D02*
X021863Y014396D01*
X021863Y014635D02*
X018389Y014635D01*
X018389Y014873D02*
X021938Y014873D01*
X021983Y015112D02*
X018547Y015112D01*
X018956Y015350D02*
X019456Y015350D01*
X019218Y015589D02*
X019194Y015589D01*
X019956Y015350D02*
X020456Y015350D01*
X020218Y015589D02*
X020194Y015589D01*
X020956Y015350D02*
X021482Y015350D01*
X021706Y015350D02*
X021706Y015350D01*
X021930Y015350D02*
X021983Y015350D01*
X021706Y015589D02*
X021706Y015589D01*
X021706Y015827D02*
X021706Y015827D01*
X021706Y016066D02*
X021706Y016066D01*
X021706Y016304D02*
X021706Y016304D01*
X021942Y016304D02*
X022444Y016304D01*
X022206Y016066D02*
X022181Y016066D01*
X021470Y016304D02*
X021271Y016304D01*
X020391Y016304D02*
X019968Y016304D01*
X019444Y016304D02*
X018968Y016304D01*
X018444Y016304D02*
X017968Y016304D01*
X017444Y016304D02*
X016968Y016304D01*
X016444Y016304D02*
X015968Y016304D01*
X015444Y016304D02*
X014968Y016304D01*
X015194Y015589D02*
X015218Y015589D01*
X015104Y015350D02*
X015456Y015350D01*
X015104Y015112D02*
X016445Y015112D01*
X016456Y015350D02*
X015956Y015350D01*
X016194Y015589D02*
X016218Y015589D01*
X016273Y014873D02*
X015050Y014873D01*
X014918Y014733D02*
X014918Y014733D01*
X014820Y014635D02*
X016273Y014635D01*
X017070Y014158D02*
X017592Y014158D01*
X017354Y014396D02*
X017308Y014396D01*
X020420Y012727D02*
X021330Y012727D01*
X021832Y012727D02*
X022355Y012727D01*
X022581Y012727D02*
X022581Y012727D01*
X022581Y012708D02*
X022581Y013208D01*
X022581Y012708D01*
X022807Y012727D02*
X023230Y012727D01*
X023456Y012727D02*
X023456Y012727D01*
X023456Y012708D02*
X023456Y013208D01*
X023456Y012708D01*
X023682Y012727D02*
X024205Y012727D01*
X023966Y012965D02*
X023920Y012965D01*
X023456Y012965D02*
X023456Y012965D01*
X023456Y013204D02*
X023456Y013204D01*
X023456Y013208D02*
X023456Y013208D01*
X022581Y013208D01*
X022581Y013208D01*
X022581Y013208D01*
X023081Y013208D01*
X023456Y013208D01*
X023456Y013208D01*
X023456Y013208D01*
X023456Y013708D01*
X023663Y013708D01*
X023883Y013489D01*
X023883Y014249D01*
X023763Y014369D01*
X023763Y014588D01*
X023480Y014871D01*
X023368Y014983D01*
X023308Y015129D01*
X023308Y015499D01*
X023206Y015601D01*
X022921Y015315D01*
X022779Y015315D01*
X022779Y014918D01*
X022899Y014798D01*
X022899Y014369D01*
X022779Y014249D01*
X022779Y013929D01*
X022718Y013783D01*
X022644Y013708D01*
X022788Y013708D01*
X023018Y013478D01*
X023249Y013708D01*
X023456Y013708D01*
X023456Y013208D01*
X023456Y013442D02*
X023456Y013442D01*
X023456Y013681D02*
X023456Y013681D01*
X023691Y013681D02*
X023883Y013681D01*
X023883Y013919D02*
X022775Y013919D01*
X022779Y014158D02*
X023883Y014158D01*
X023763Y014396D02*
X022899Y014396D01*
X022899Y014635D02*
X023716Y014635D01*
X023478Y014873D02*
X022824Y014873D01*
X022779Y015112D02*
X023315Y015112D01*
X023308Y015350D02*
X022956Y015350D01*
X023194Y015589D02*
X023218Y015589D01*
X024127Y015350D02*
X024320Y015350D01*
X024365Y015112D02*
X024489Y015112D01*
X024724Y014873D02*
X024728Y014873D01*
X024799Y014635D02*
X024966Y014635D01*
X024799Y014396D02*
X025205Y014396D01*
X025443Y014158D02*
X024679Y014158D01*
X024679Y013919D02*
X025558Y013919D01*
X025558Y013681D02*
X024716Y013681D01*
X024955Y013442D02*
X025558Y013442D01*
X025388Y013204D02*
X024974Y013204D01*
X024946Y012965D02*
X025150Y012965D01*
X024911Y012727D02*
X024707Y012727D01*
X023221Y013681D02*
X022816Y013681D01*
X022581Y013204D02*
X022581Y013204D01*
X022581Y012965D02*
X022581Y012965D01*
X022117Y012965D02*
X022071Y012965D01*
X022559Y012250D02*
X020599Y012250D01*
X020599Y012488D02*
X022798Y012488D01*
X022321Y012011D02*
X020492Y012011D01*
X020349Y011773D02*
X022082Y011773D01*
X021844Y011534D02*
X020581Y011534D01*
X020581Y011296D02*
X021605Y011296D01*
X021367Y011057D02*
X020512Y011057D01*
X020081Y011057D02*
X020081Y011057D01*
X020081Y011296D02*
X020081Y011296D01*
X019650Y011057D02*
X017371Y011057D01*
X017371Y010985D02*
X017371Y011208D01*
X016831Y011208D01*
X016831Y010668D01*
X017055Y010668D01*
X017371Y010985D01*
X017371Y011208D02*
X017371Y011432D01*
X017055Y011748D01*
X016831Y011748D01*
X016831Y011208D01*
X016831Y011208D01*
X016831Y010668D01*
X016607Y010668D01*
X016331Y010945D01*
X016055Y010668D01*
X015831Y010668D01*
X015831Y011208D01*
X015831Y011208D01*
X015831Y010668D01*
X015607Y010668D01*
X015331Y010945D01*
X015055Y010668D01*
X014831Y010668D01*
X014831Y011208D01*
X014831Y011208D01*
X014831Y010668D01*
X014607Y010668D01*
X014331Y010945D01*
X014055Y010668D01*
X013831Y010668D01*
X013831Y011208D01*
X013831Y011208D01*
X013831Y010668D01*
X013607Y010668D01*
X013331Y010945D01*
X013055Y010668D01*
X012831Y010668D01*
X012831Y011208D01*
X012831Y011208D01*
X012831Y010668D01*
X012607Y010668D01*
X012291Y010985D01*
X012291Y011208D01*
X012831Y011208D01*
X012831Y011208D01*
X013291Y011208D01*
X013831Y011208D01*
X013831Y011208D01*
X014291Y011208D01*
X014831Y011208D01*
X014831Y011208D01*
X015371Y011208D01*
X015831Y011208D01*
X015831Y011208D01*
X016291Y011208D01*
X016831Y011208D01*
X016831Y011208D01*
X016831Y011208D01*
X017371Y011208D01*
X017371Y011296D02*
X019581Y011296D01*
X019581Y011534D02*
X017269Y011534D01*
X016831Y011534D02*
X016831Y011534D01*
X016831Y011748D02*
X016831Y011208D01*
X015831Y011208D01*
X015831Y011208D01*
X014831Y011208D01*
X014831Y011208D01*
X013831Y011208D01*
X013831Y011208D01*
X012831Y011208D01*
X012831Y011208D01*
X012291Y011208D01*
X012291Y011432D01*
X012607Y011748D01*
X012831Y011748D01*
X012831Y011208D01*
X012831Y011208D01*
X012831Y011748D01*
X013055Y011748D01*
X013331Y011472D01*
X013607Y011748D01*
X013831Y011748D01*
X013831Y011208D01*
X013831Y011208D01*
X013831Y011748D01*
X014055Y011748D01*
X014331Y011472D01*
X014607Y011748D01*
X014831Y011748D01*
X014831Y011208D01*
X014831Y011208D01*
X014831Y011748D01*
X015055Y011748D01*
X015331Y011472D01*
X015607Y011748D01*
X015831Y011748D01*
X015831Y011208D01*
X015831Y011208D01*
X015831Y011748D01*
X016055Y011748D01*
X016331Y011472D01*
X016607Y011748D01*
X016831Y011748D01*
X016831Y011296D02*
X016831Y011296D01*
X016831Y011208D02*
X016831Y011208D01*
X016831Y011057D02*
X016831Y011057D01*
X016831Y010819D02*
X016831Y010819D01*
X017205Y010819D02*
X021128Y010819D01*
X019813Y011773D02*
X011974Y011773D01*
X012206Y011534D02*
X012393Y011534D01*
X012291Y011296D02*
X012206Y011296D01*
X012137Y011057D02*
X012291Y011057D01*
X012457Y010819D02*
X009823Y010819D01*
X009581Y010819D02*
X009581Y010819D01*
X009581Y011057D02*
X009581Y011057D01*
X009581Y011296D02*
X009581Y011296D01*
X010116Y011296D02*
X011206Y011296D01*
X011206Y011534D02*
X010116Y011534D01*
X009898Y011773D02*
X011438Y011773D01*
X011706Y011296D02*
X011706Y011296D01*
X011706Y011057D02*
X011706Y011057D01*
X011275Y011057D02*
X010062Y011057D01*
X009339Y010819D02*
X008979Y010819D01*
X008979Y011057D02*
X009100Y011057D01*
X009046Y011296D02*
X008981Y011296D01*
X008183Y011296D02*
X006031Y011296D01*
X006031Y011534D02*
X008183Y011534D01*
X008332Y011773D02*
X006031Y011773D01*
X006031Y012011D02*
X008571Y012011D01*
X008183Y011057D02*
X006031Y011057D01*
X006031Y010819D02*
X008183Y010819D01*
X008183Y010580D02*
X006031Y010580D01*
X006031Y010342D02*
X008183Y010342D01*
X008183Y010103D02*
X006031Y010103D01*
X006031Y009865D02*
X008183Y009865D01*
X008183Y009626D02*
X006031Y009626D01*
X006031Y009388D02*
X008183Y009388D01*
X008183Y009149D02*
X006031Y009149D01*
X006031Y008911D02*
X008315Y008911D01*
X008554Y008672D02*
X006031Y008672D01*
X006031Y008434D02*
X008792Y008434D01*
X009031Y008195D02*
X006031Y008195D01*
X006031Y007957D02*
X009269Y007957D01*
X009508Y007718D02*
X006031Y007718D01*
X006031Y007480D02*
X012202Y007480D01*
X012710Y007480D02*
X016887Y007480D01*
X016862Y007241D02*
X006031Y007241D01*
X006031Y007003D02*
X016862Y007003D01*
X017059Y006764D02*
X016383Y006764D01*
X016474Y006673D02*
X016171Y006976D01*
X015741Y006976D01*
X015438Y006673D01*
X015438Y006244D01*
X015736Y005946D01*
X015456Y005665D01*
X015456Y005458D01*
X015456Y005251D01*
X015749Y004958D01*
X015956Y004958D01*
X016163Y004958D01*
X016456Y005251D01*
X016456Y005458D01*
X015956Y005458D01*
X015956Y004958D01*
X015956Y005458D01*
X015956Y005458D01*
X015956Y005458D01*
X015456Y005458D01*
X015956Y005458D01*
X015956Y005458D01*
X016456Y005458D01*
X016456Y005665D01*
X016176Y005946D01*
X016474Y006244D01*
X016474Y006673D01*
X016474Y006526D02*
X019058Y006526D01*
X019058Y006764D02*
X018852Y006764D01*
X019058Y006287D02*
X016474Y006287D01*
X016279Y006049D02*
X019058Y006049D01*
X019058Y005810D02*
X016311Y005810D01*
X016456Y005572D02*
X019058Y005572D01*
X019058Y005333D02*
X016456Y005333D01*
X016300Y005095D02*
X019058Y005095D01*
X019058Y004856D02*
X008207Y004856D01*
X008207Y004858D02*
X008093Y005134D01*
X007881Y005345D01*
X007605Y005460D01*
X007307Y005460D01*
X007030Y005345D01*
X006819Y005134D01*
X006705Y004858D01*
X006705Y004559D01*
X006819Y004283D01*
X007030Y004072D01*
X007307Y003957D01*
X007605Y003957D01*
X007881Y004072D01*
X008093Y004283D01*
X008207Y004559D01*
X008207Y004858D01*
X008207Y004618D02*
X019058Y004618D01*
X019110Y004379D02*
X008133Y004379D01*
X007951Y004141D02*
X019335Y004141D01*
X019574Y003902D02*
X006031Y003902D01*
X006031Y004141D02*
X006961Y004141D01*
X006779Y004379D02*
X006031Y004379D01*
X006031Y004618D02*
X006705Y004618D01*
X006705Y004856D02*
X006031Y004856D01*
X006031Y005095D02*
X006803Y005095D01*
X007019Y005333D02*
X006031Y005333D01*
X006031Y005572D02*
X008626Y005572D01*
X008580Y005684D02*
X008694Y005408D01*
X008905Y005197D01*
X009182Y005082D01*
X009480Y005082D01*
X009756Y005197D01*
X009968Y005408D01*
X010016Y005524D01*
X010325Y005215D01*
X010837Y005215D01*
X011199Y005577D01*
X011199Y006089D01*
X010837Y006451D01*
X010325Y006451D01*
X010016Y006142D01*
X009968Y006259D01*
X009756Y006470D01*
X009480Y006585D01*
X009182Y006585D01*
X008905Y006470D01*
X008694Y006259D01*
X008580Y005983D01*
X008580Y005684D01*
X008580Y005810D02*
X006031Y005810D01*
X006031Y006049D02*
X008607Y006049D01*
X008723Y006287D02*
X006031Y006287D01*
X006031Y006526D02*
X009040Y006526D01*
X009622Y006526D02*
X015438Y006526D01*
X015438Y006287D02*
X011001Y006287D01*
X011199Y006049D02*
X015633Y006049D01*
X015601Y005810D02*
X011199Y005810D01*
X011194Y005572D02*
X015456Y005572D01*
X015456Y005333D02*
X010955Y005333D01*
X010207Y005333D02*
X009893Y005333D01*
X009511Y005095D02*
X015612Y005095D01*
X015956Y005095D02*
X015956Y005095D01*
X015956Y005333D02*
X015956Y005333D01*
X015529Y006764D02*
X006031Y006764D01*
X007893Y005333D02*
X008769Y005333D01*
X009151Y005095D02*
X008109Y005095D01*
X009939Y006287D02*
X010161Y006287D01*
X009918Y008434D02*
X012199Y008434D01*
X012035Y008672D02*
X009680Y008672D01*
X009780Y008822D02*
X010057Y008707D01*
X010355Y008707D01*
X010631Y008822D01*
X010843Y009033D01*
X010957Y009309D01*
X010957Y009608D01*
X010843Y009884D01*
X010631Y010095D01*
X010355Y010210D01*
X010057Y010210D01*
X009780Y010095D01*
X009569Y009884D01*
X009455Y009608D01*
X009455Y009309D01*
X009569Y009033D01*
X009780Y008822D01*
X009691Y008911D02*
X009441Y008911D01*
X009521Y009149D02*
X009203Y009149D01*
X008979Y009388D02*
X009455Y009388D01*
X009462Y009626D02*
X008979Y009626D01*
X008979Y009865D02*
X009561Y009865D01*
X009800Y010103D02*
X008979Y010103D01*
X008979Y010342D02*
X011215Y010342D01*
X011325Y010451D02*
X010963Y010089D01*
X010963Y009577D01*
X011325Y009215D01*
X011837Y009215D01*
X012199Y009577D01*
X012199Y010089D01*
X011837Y010451D01*
X011325Y010451D01*
X010977Y010103D02*
X010612Y010103D01*
X010851Y009865D02*
X010963Y009865D01*
X010949Y009626D02*
X010963Y009626D01*
X010957Y009388D02*
X011152Y009388D01*
X010891Y009149D02*
X011956Y009149D01*
X011956Y009165D02*
X011956Y008958D01*
X012456Y008958D01*
X012456Y008958D01*
X012956Y008958D01*
X012956Y009165D01*
X012663Y009458D01*
X012456Y009458D01*
X012249Y009458D01*
X011956Y009165D01*
X012010Y009388D02*
X012178Y009388D01*
X012199Y009626D02*
X013805Y009626D01*
X013861Y009571D02*
X013581Y009290D01*
X013581Y009083D01*
X013581Y008876D01*
X013874Y008583D01*
X014081Y008583D01*
X014288Y008583D01*
X014581Y008876D01*
X014581Y009083D01*
X014081Y009083D01*
X014081Y008583D01*
X014081Y009083D01*
X014081Y009083D01*
X014081Y009083D01*
X013581Y009083D01*
X014081Y009083D01*
X014081Y009083D01*
X014581Y009083D01*
X014581Y009290D01*
X014301Y009571D01*
X014599Y009869D01*
X014599Y010298D01*
X014296Y010601D01*
X013866Y010601D01*
X013563Y010298D01*
X013563Y009869D01*
X013861Y009571D01*
X013678Y009388D02*
X012734Y009388D01*
X012456Y009388D02*
X012456Y009388D01*
X012456Y009458D02*
X012456Y008958D01*
X012456Y008958D01*
X012456Y009458D01*
X012456Y009149D02*
X012456Y009149D01*
X011956Y008911D02*
X010721Y008911D01*
X012199Y009865D02*
X013567Y009865D01*
X013563Y010103D02*
X012185Y010103D01*
X011947Y010342D02*
X013607Y010342D01*
X013845Y010580D02*
X008979Y010580D01*
X012831Y010819D02*
X012831Y010819D01*
X012831Y011057D02*
X012831Y011057D01*
X012831Y011296D02*
X012831Y011296D01*
X012831Y011534D02*
X012831Y011534D01*
X013269Y011534D02*
X013393Y011534D01*
X013831Y011534D02*
X013831Y011534D01*
X013831Y011296D02*
X013831Y011296D01*
X013831Y011057D02*
X013831Y011057D01*
X013831Y010819D02*
X013831Y010819D01*
X014205Y010819D02*
X014457Y010819D01*
X014317Y010580D02*
X019314Y010580D01*
X019026Y010342D02*
X014555Y010342D01*
X014599Y010103D02*
X018788Y010103D01*
X018590Y009865D02*
X014595Y009865D01*
X014357Y009626D02*
X016559Y009626D01*
X016380Y009388D02*
X014484Y009388D01*
X014581Y009149D02*
X016380Y009149D01*
X016380Y009208D02*
X016956Y009208D01*
X016956Y009208D01*
X016380Y009208D01*
X016439Y008911D02*
X014581Y008911D01*
X014377Y008672D02*
X014984Y008672D01*
X014812Y008434D02*
X012713Y008434D01*
X012877Y008672D02*
X013785Y008672D01*
X014081Y008672D02*
X014081Y008672D01*
X014081Y008911D02*
X014081Y008911D01*
X013581Y008911D02*
X012956Y008911D01*
X012956Y009149D02*
X013581Y009149D01*
X015336Y007718D02*
X017125Y007718D01*
X017786Y007718D02*
X018125Y007718D01*
X018786Y007718D02*
X019125Y007718D01*
X018059Y006764D02*
X017852Y006764D01*
X019854Y006287D02*
X021968Y006287D01*
X021968Y006049D02*
X019854Y006049D01*
X019854Y005810D02*
X021989Y005810D01*
X022152Y005572D02*
X019854Y005572D01*
X019854Y005333D02*
X022391Y005333D01*
X022629Y005095D02*
X019854Y005095D01*
X019854Y004856D02*
X022957Y004856D01*
X019984Y004618D02*
X032802Y004618D01*
X033041Y004856D02*
X028455Y004856D01*
X028783Y005095D02*
X033279Y005095D01*
X033518Y005333D02*
X029021Y005333D01*
X029260Y005572D02*
X033756Y005572D01*
X033995Y005810D02*
X029498Y005810D01*
X029737Y006049D02*
X034233Y006049D01*
X034472Y006287D02*
X029975Y006287D01*
X030214Y006526D02*
X034710Y006526D01*
X034808Y006764D02*
X030452Y006764D01*
X030691Y007003D02*
X034808Y007003D01*
X034808Y007241D02*
X030929Y007241D01*
X031168Y007480D02*
X034808Y007480D01*
X034808Y007718D02*
X031406Y007718D01*
X031645Y007957D02*
X034808Y007957D01*
X034808Y008195D02*
X031883Y008195D01*
X032122Y008434D02*
X034808Y008434D01*
X034808Y008672D02*
X032293Y008672D01*
X032319Y008911D02*
X034808Y008911D01*
X034808Y009149D02*
X032319Y009149D01*
X032319Y009388D02*
X034808Y009388D01*
X034808Y009626D02*
X032319Y009626D01*
X032319Y009865D02*
X034808Y009865D01*
X034808Y010103D02*
X032319Y010103D01*
X032389Y010342D02*
X034808Y010342D01*
X034808Y010580D02*
X032389Y010580D01*
X032319Y010819D02*
X034808Y010819D01*
X034808Y011057D02*
X032319Y011057D01*
X032319Y011296D02*
X034808Y011296D01*
X034808Y011534D02*
X032319Y011534D01*
X032319Y011773D02*
X032434Y011773D01*
X032831Y011773D02*
X032831Y011773D01*
X032831Y012011D02*
X032831Y012011D01*
X032831Y012250D02*
X032831Y012250D01*
X032831Y012488D02*
X032831Y012488D01*
X033133Y012488D02*
X034808Y012488D01*
X034808Y012250D02*
X033331Y012250D01*
X033331Y012011D02*
X034808Y012011D01*
X034808Y011773D02*
X033228Y011773D01*
X032529Y012488D02*
X032319Y012488D01*
X032319Y012727D02*
X034808Y012727D01*
X034808Y012965D02*
X032528Y012965D01*
X032767Y013204D02*
X034808Y013204D01*
X034808Y013442D02*
X032926Y013442D01*
X032944Y013681D02*
X033102Y013681D01*
X033456Y013681D02*
X033456Y013681D01*
X033456Y013919D02*
X033456Y013919D01*
X033456Y014158D02*
X033456Y014158D01*
X033456Y014396D02*
X033456Y014396D01*
X033900Y014396D02*
X034808Y014396D01*
X034808Y014158D02*
X033991Y014158D01*
X033991Y013919D02*
X034808Y013919D01*
X034808Y013681D02*
X033810Y013681D01*
X033012Y014396D02*
X032944Y014396D01*
X032944Y014635D02*
X034808Y014635D01*
X034808Y014873D02*
X032944Y014873D01*
X032944Y015112D02*
X034808Y015112D01*
X034808Y015350D02*
X032972Y015350D01*
X032974Y015589D02*
X034808Y015589D01*
X034808Y015827D02*
X032989Y015827D01*
X033014Y016066D02*
X034808Y016066D01*
X034808Y016304D02*
X033014Y016304D01*
X032786Y016543D02*
X034808Y016543D01*
X034808Y016781D02*
X032943Y016781D01*
X033014Y017020D02*
X034808Y017020D01*
X034808Y017258D02*
X033014Y017258D01*
X032974Y017497D02*
X033444Y017497D01*
X033457Y017483D02*
X033696Y017483D01*
X033696Y018073D01*
X033106Y018073D01*
X033106Y017835D01*
X033457Y017483D01*
X033696Y017497D02*
X033716Y017497D01*
X033696Y017735D02*
X033716Y017735D01*
X033696Y017974D02*
X033716Y017974D01*
X033205Y017735D02*
X032982Y017735D01*
X033074Y017974D02*
X033106Y017974D01*
X033106Y018212D02*
X033074Y018212D01*
X032963Y018451D02*
X033225Y018451D01*
X033298Y018689D02*
X032864Y018689D01*
X032048Y018689D02*
X028224Y018689D01*
X028224Y018928D02*
X031811Y018928D01*
X031712Y019166D02*
X028352Y019166D01*
X028817Y019405D02*
X031705Y019405D01*
X031771Y019643D02*
X031598Y019643D01*
X031331Y019643D02*
X031331Y019643D01*
X031331Y019882D02*
X031331Y019882D01*
X031064Y019643D02*
X029055Y019643D01*
X029139Y019882D02*
X030831Y019882D01*
X030831Y020120D02*
X029139Y020120D01*
X028970Y020359D02*
X030899Y020359D01*
X031763Y020359D02*
X033742Y020359D01*
X033981Y020120D02*
X031831Y020120D01*
X031831Y019882D02*
X031942Y019882D01*
X032970Y019882D02*
X033192Y019882D01*
X034391Y019643D02*
X034458Y019643D01*
X034457Y019405D02*
X034696Y019405D01*
X034808Y019166D02*
X034450Y019166D01*
X034351Y018928D02*
X034808Y018928D01*
X034808Y018689D02*
X034114Y018689D01*
X034187Y018451D02*
X034808Y018451D01*
X034808Y018212D02*
X034306Y018212D01*
X034306Y017974D02*
X034808Y017974D01*
X034808Y017735D02*
X034207Y017735D01*
X033968Y017497D02*
X034808Y017497D01*
X031949Y018451D02*
X028056Y018451D01*
X027356Y018451D02*
X027056Y018451D01*
X026356Y018451D02*
X026056Y018451D01*
X025356Y018451D02*
X025056Y018451D01*
X024356Y018451D02*
X024056Y018451D01*
X023356Y018451D02*
X023056Y018451D01*
X022356Y018451D02*
X022056Y018451D01*
X021356Y018451D02*
X021031Y018451D01*
X020706Y018451D02*
X020706Y018451D01*
X020706Y018689D02*
X020706Y018689D01*
X020706Y018928D02*
X020706Y018928D01*
X020706Y019166D02*
X020706Y019166D01*
X021080Y019166D02*
X021306Y019166D01*
X021308Y019405D02*
X019697Y019405D01*
X019459Y019643D02*
X021208Y019643D01*
X020868Y019882D02*
X019220Y019882D01*
X018982Y020120D02*
X020773Y020120D01*
X020773Y020359D02*
X018889Y020359D01*
X018731Y020597D02*
X020931Y020597D01*
X021731Y020597D02*
X022478Y020597D01*
X022512Y020563D02*
X022941Y020563D01*
X023239Y020861D01*
X023519Y020581D01*
X023726Y020581D01*
X023726Y021081D01*
X023726Y021081D01*
X023726Y021581D01*
X023519Y021581D01*
X023239Y021301D01*
X022941Y021599D01*
X022512Y021599D01*
X022208Y021296D01*
X022208Y020867D01*
X022512Y020563D01*
X022239Y020836D02*
X007832Y020836D01*
X007832Y021074D02*
X022208Y021074D01*
X022225Y021313D02*
X007747Y021313D01*
X007550Y021551D02*
X022464Y021551D01*
X022989Y021551D02*
X023490Y021551D01*
X023726Y021551D02*
X023726Y021551D01*
X023726Y021581D02*
X023934Y021581D01*
X024226Y021288D01*
X024226Y021081D01*
X023726Y021081D01*
X023726Y021081D01*
X023726Y020581D01*
X023934Y020581D01*
X024226Y020874D01*
X024226Y021081D01*
X023726Y021081D01*
X023726Y021581D01*
X023963Y021551D02*
X034987Y021551D01*
X034863Y021313D02*
X033890Y021313D01*
X034153Y021074D02*
X034830Y021074D01*
X034870Y020836D02*
X034391Y020836D01*
X030296Y017974D02*
X029881Y017974D01*
X030046Y017258D02*
X030131Y017258D01*
X029987Y017020D02*
X030369Y017020D01*
X029987Y016781D02*
X030900Y016781D01*
X031067Y016304D02*
X031898Y016304D01*
X031898Y016066D02*
X031081Y016066D01*
X031032Y015827D02*
X031923Y015827D01*
X030333Y016543D02*
X029987Y016543D01*
X030093Y016304D02*
X030095Y016304D01*
X029979Y014396D02*
X030262Y014396D01*
X030102Y013681D02*
X030086Y013681D01*
X030822Y013442D02*
X031625Y013442D01*
X031863Y013681D02*
X031060Y013681D01*
X031116Y013919D02*
X031903Y013919D01*
X031903Y014158D02*
X031116Y014158D01*
X030463Y011534D02*
X030354Y011534D01*
X030264Y007957D02*
X027612Y007957D01*
X028008Y007718D02*
X030026Y007718D01*
X029787Y007480D02*
X028157Y007480D01*
X028207Y007241D02*
X029549Y007241D01*
X029310Y007003D02*
X028184Y007003D01*
X028074Y006764D02*
X029072Y006764D01*
X028833Y006526D02*
X027771Y006526D01*
X036018Y005333D02*
X036343Y005333D01*
X036341Y005095D02*
X036234Y005095D01*
X036332Y004856D02*
X036340Y004856D01*
X036332Y004618D02*
X036338Y004618D01*
X036336Y004379D02*
X036258Y004379D01*
X036335Y004141D02*
X036076Y004141D01*
X024218Y015589D02*
X024194Y015589D01*
X023968Y016304D02*
X024444Y016304D01*
X024968Y016304D02*
X025308Y016304D01*
X023444Y016304D02*
X022968Y016304D01*
X020381Y018451D02*
X020056Y018451D01*
X019356Y018451D02*
X019056Y018451D01*
X018356Y018451D02*
X018056Y018451D01*
X017356Y018451D02*
X017056Y018451D01*
X016356Y018451D02*
X016056Y018451D01*
X015356Y018451D02*
X015056Y018451D01*
X012773Y020359D02*
X007544Y020359D01*
X007745Y020597D02*
X012931Y020597D01*
X013731Y020597D02*
X013931Y020597D01*
X014731Y020597D02*
X014931Y020597D01*
X015731Y020597D02*
X015931Y020597D01*
X016731Y020597D02*
X016931Y020597D01*
X017731Y020597D02*
X017931Y020597D01*
X020106Y019166D02*
X020332Y019166D01*
X021889Y020120D02*
X024023Y020120D01*
X024067Y020359D02*
X021889Y020359D01*
X022065Y019882D02*
X023816Y019882D01*
X023578Y019643D02*
X022104Y019643D01*
X022104Y019405D02*
X023356Y019405D01*
X023306Y019166D02*
X023106Y019166D01*
X022306Y019166D02*
X022106Y019166D01*
X022975Y020597D02*
X023503Y020597D01*
X023726Y020597D02*
X023726Y020597D01*
X023950Y020597D02*
X024306Y020597D01*
X024188Y020836D02*
X026520Y020836D01*
X026333Y020597D02*
X025856Y020597D01*
X026095Y020359D02*
X026308Y020359D01*
X026180Y020120D02*
X026139Y020120D01*
X025306Y020597D02*
X024856Y020597D01*
X024226Y021074D02*
X026759Y021074D01*
X026868Y021184D02*
X026868Y021184D01*
X027022Y021313D02*
X024202Y021313D01*
X023726Y021313D02*
X023726Y021313D01*
X023726Y021081D02*
X023726Y021081D01*
X023726Y021074D02*
X023726Y021074D01*
X023726Y020836D02*
X023726Y020836D01*
X023265Y020836D02*
X023214Y020836D01*
X023227Y021313D02*
X023251Y021313D01*
X027169Y020359D02*
X027192Y020359D01*
X027970Y020359D02*
X028192Y020359D01*
X021321Y013681D02*
X013081Y013681D01*
X013022Y013442D02*
X021082Y013442D01*
X018533Y009626D02*
X018378Y009626D01*
X017533Y009626D02*
X017353Y009626D01*
X016956Y009626D02*
X016956Y009626D01*
X016956Y009785D02*
X016956Y009208D01*
X016956Y009208D01*
X016956Y009785D01*
X016956Y009388D02*
X016956Y009388D01*
X016457Y010819D02*
X016205Y010819D01*
X015831Y010819D02*
X015831Y010819D01*
X015831Y011057D02*
X015831Y011057D01*
X015831Y011296D02*
X015831Y011296D01*
X015831Y011534D02*
X015831Y011534D01*
X016269Y011534D02*
X016393Y011534D01*
X015457Y010819D02*
X015205Y010819D01*
X014831Y010819D02*
X014831Y010819D01*
X014831Y011057D02*
X014831Y011057D01*
X014831Y011296D02*
X014831Y011296D01*
X014831Y011534D02*
X014831Y011534D01*
X015269Y011534D02*
X015393Y011534D01*
X014393Y011534D02*
X014269Y011534D01*
X013457Y010819D02*
X013205Y010819D01*
D43*
X012956Y010083D02*
X012706Y009833D01*
X011581Y009833D01*
X012956Y010083D02*
X014081Y010083D01*
X017706Y010083D01*
X017956Y009833D01*
X017956Y009208D01*
X017456Y007208D02*
X016581Y007208D01*
X015956Y006583D01*
X015956Y006458D01*
X015206Y006458D01*
X014581Y005833D01*
X010581Y005833D01*
X022456Y005958D02*
X023081Y005333D01*
X028331Y005333D01*
X031831Y008833D01*
X031831Y010458D01*
X031831Y012083D01*
X031831Y012958D01*
X032456Y013583D01*
X032456Y014083D01*
X032456Y015458D01*
X027331Y010208D02*
X026331Y010208D01*
X023706Y010208D01*
X022956Y009458D01*
X022956Y009208D01*
X023456Y007208D02*
X024956Y007208D01*
X026081Y007208D01*
X022456Y007208D02*
X022456Y005958D01*
D44*
X032456Y015458D02*
X032456Y016083D01*
X032456Y017083D02*
X032456Y018083D01*
D45*
X011081Y018333D02*
X011081Y015958D01*
X011066Y015866D01*
X011081Y018333D02*
X011066Y018426D01*
M02*
